<svg xmlns="http://www.w3.org/2000/svg" xmlns:xlink="http://www.w3.org/1999/xlink" version="1.1"><metadata/><defs><font id="daft_fontregular" horiz-adv-x="870"><font-face ascent="1638" descent="-410" units-per-em="2048"/><glyph horiz-adv-x="0"/><glyph horiz-adv-x="682"/><glyph horiz-adv-x="1024"/><glyph horiz-adv-x="1024"/><glyph horiz-adv-x="1024"/><glyph d="M23 500q-2 0 -4.5 3t-2.5 5q6 16 17.5 31.5t17.5 33.5q-6 12 -13 25.5t-13 28.5q6 39 47 92q18 12 89.5 31.5t96.5 17.5l27 -14l32 -52l-26 -40l37 2q-12 -18 -23.5 -39t-36.5 -43q2 2 -10 -17q-4 -6 -7 -17t-5 -18q-4 -6 -32 -29.5t-30 -27.5q-2 -6 -41 -7t-41 -5z M266 1108q-4 12 15.5 42t15.5 36q25 51 39 115.5t41 115.5l41 176q0 -4 12 15q4 6 10 19t17 32q6 16 30.5 84.5t34.5 95.5q10 25 35 54.5t37 64.5q12 29 28.5 24.5t34.5 2.5l86 18q18 4 33 -18.5t21 -47.5q6 -27 -7.5 -72.5t-25.5 -80.5q-47 -111 -42 -103.5t-48 -78.5 l-31 -64l-31 -63l-86 -152q-51 -104 -54 -164.5t-79 -144.5q-4 0 -31 -58l-26 -57q-12 12 -43 9t-31 30q-6 2 -15 8t-14 10q-2 23 -1 38.5t1 39.5q-8 0 9.5 29t23.5 45z" horiz-adv-x="669" unicode="!"/><glyph d="M145 1675q-2 2 -6 6.5t-30 30.5q-12 14 -17.5 16.5t-5.5 26.5q-2 25 -2 53.5t8 55.5q6 43 51 104q20 14 101.5 35.5t107.5 19.5l29 -18l37 -57l-29 -43l41 2q-12 -23 -24.5 -46.5t-43.5 -48.5q-2 -4 -19 -53t-19 -55q-4 -6 -31 -52t-31 -53q-4 -8 -16.5 -57t-14.5 -55 q-4 -6 -33.5 0t-31.5 2l-6 123zM508 1675q-2 2 -7 6.5t-32 30.5q-10 14 -15 16.5t-8 26.5q-2 25 -2 53.5t9 55.5q10 51 53 104q18 14 99 35.5t110 19.5l28 -18l37 -57l-30 -43l43 2q-12 -23 -24.5 -46.5t-43.5 -48.5q-4 -4 -20.5 -53t-18.5 -55q-4 -6 -31.5 -52t-29.5 -53 q-4 -8 -16.5 -57t-14.5 -55q-4 -6 -35 0t-31 2l-6 123z" horiz-adv-x="706" unicode="&quot;"/><glyph d="M186 1538h508q57 0 58 -80v-907q0 -80 -58 -80h-508q-57 0 -57 80v907q0 80 57 80zM197 1524q-53 0 -54 -78v-883q0 -78 54 -78h487q53 0 53 78v883q0 78 -53 78h-487zM248 563v24.5t10 24.5q0 -8 -7 -34.5t13 -20.5q2 4 6 7t9 9v0v2q6 4 10 21.5t6 28.5v47v20l1 1t3 1 q10 -29 12 -32q10 4 23 45h1h3v-1v-1q-6 -29 -10 -56.5t12 -52.5h-1h-1q-12 14 -12 49q2 31 2 33q-2 -4 -3 -7t-1 -5h-1h-1v-3v-1q-2 0 -7 -5q-10 4 -16 27q0 -31 -2 -62.5t-21 -56.5v-1v-1q-18 -16 -28 0zM348 616q0 29 12 31q10 -2 9.5 -12t3.5 -17q2 10 0 21h1h3v-2v-2 q2 0 4 2q0 -4 1 -7l1 -3q8 0 8 8h1h1q2 8 7.5 23.5t0.5 25.5q-12 -6 -14 -8q-2 2 -2 4q4 0 8 3t10 5q2 4 3 14h1h3v-7v-5q18 8 47 19l1 -2l1 -2q-12 -6 -24.5 -10.5t-24.5 -8.5q-2 -12 -5.5 -30.5t7.5 -26.5q8 0 8 16.5v22.5q4 2 8 -4q10 2 16 14h1h1v-6v-4h-1h-1 q0 -33 5 -35q14 2 12 29q2 6 2 18q10 2 12 2q2 -12 -2 -22.5t-2 -16.5q6 -2 14 6v1v1h1h1v35q18 0 15 -2q12 4 14 12h2h2q0 -6 -4 -14q0 -18 6 -27q10 4 10 11q2 0 3 2q0 4 -3 20q8 18 23 6q18 18 25 19l1 -1l1 -1q-16 -12 -23 -17v-3v-1h-1h-1v-24q-8 -6 -18 0 q-10 -25 -23 -9q-2 6 -4 12.5t-2 12.5q-12 -4 -16 -2q0 -43 -27 -39l-4 -4v-3v-1q-20 -16 -27 10q2 6 2 19h-7h-5q0 -8 -2 -26t-16 -9q-4 6 -7 12q-4 -4 -6 -8t-8 -8h-8q-6 -12 -19 -19q-6 2 -12 12zM354 614l1 -2l1 -2q23 2 6 33h-2h-2l-1 -2l-1 -2q0 -6 -1 -12.5t-1 -12.5 zM465 653l1 -1l1 -1q6 14 4 27h-1h-1q-2 -6 -3 -12.5t-1 -12.5zM541 670q2 -2 2 -4q12 2 10 22h-3h-1v-2v0q-4 -4 -6 -4q0 -8 -2 -12zM541 694q6 6 10 0q-4 -4 -8 -6l-1 2t-1 4zM602 612q0 6 1 10.5t1 10.5q4 14 29 39q0 23 1 26l1 4q-20 -14 -17 -8q-6 -4 -8 -5t-4 -1 q-18 6 -14 35t10 41q2 0 2 2q8 20 23 20q14 -20 12 -57v-5v-3q-2 -45 -3 -60.5t-1 -58.5q-23 -23 -33 10zM606 614q2 -12 12 -18l13 6q0 6 1 14.5t1 47.5q-18 -14 -23 -25h-1h-1q0 -6 -1 -12.5t-1 -12.5zM596 709q4 -12 8 -17q14 6 14 10q-18 14 -14 56h-1h-1 q-2 -12 -4 -24.5t-2 -24.5zM606 727q4 -14 15 -22h1t3 2q6 14 12 38.5t-12 38.5q-18 -4 -18.5 -24.5t-0.5 -32.5zM627 705v-3v0q8 6 8 21q-6 -18 -8 -18zM475 733q-18 0 -33 4q-4 16 9 49h-3h-2q-12 -6 -40.5 -17t-28.5 15q6 6 18.5 16.5t18.5 18.5q0 2 -6 43q-4 14 -9 47 q-6 18 -12 30.5t-10 25.5q-6 55 -6 112q4 39 4 43q-14 -25 -19 -43q0 -25 2 -38t-26 -11q-10 20 -8 14q0 8 8 59.5t14 67.5q-2 4 -1 10.5t1 12.5q0 31 3 68.5t36 56.5q-12 16 -12 31q0 14 -2 20q-16 6 -29 10l1 3q1 3 1 5q23 10 27 15q4 14 10 29q27 18 61 -9q6 -18 35 -32 v-5v-2q-14 -8 -22 -10q0 -10 2 -19.5t4 -17.5q23 -6 28 -16q14 -6 27.5 -25.5t22.5 -31.5v-11.5v-11.5q12 -37 20 -86q4 -12 2 -22.5t2 -20.5q0 -18 -3 -33.5t3 -29.5q0 -45 -33 -37q-12 8 -12 32q-4 -27 -8 -43q0 -12 1 -23t1 -24q-6 -12 -3 -29.5t5 -29.5q0 -57 -18 -113 q-2 -31 -4 -35q-5 -4 -17 -12zM471 741q6 2 14 11q0 18 5.5 38.5t5.5 40.5q-20 -4 -35 3q0 -39 -2 -58q-10 -18 -10 -33q4 0 10 -1t12 -1zM406 774q4 2 17 7t15 12q2 2 15 8q0 29 -2 43q-2 6 -2 12q-18 -2 -25 -1l-6 1q0 -12 3 -28.5t-11 -22.5q-4 -8 -15 -14v-1v-2 q-8 -4 -10 -12q6 0 10.5 -1t10.5 -1zM487 836q2 0 5.5 1t7.5 3q0 4 1 10t3 12q-2 20 -5 45t3 45v19.5v19.5q6 47 18 90q0 20 -6 39q6 0 -39 -12q-2 -14 7.5 -29.5t9.5 -31.5q-12 0 -26.5 22.5t-19.5 34.5q-37 0 -57 6h-3h-1q-12 -53 -4 -100t27 -97q-2 0 -2 -2 q2 -12 5 -26.5t13 -20.5q6 0 10 -1t10 -1q-2 12 -3 34t-3 71q-10 31 -21 63.5t-14 67.5h3h4q14 -74 49 -142v-3v-1q0 -2 -1 -2h-1q-4 0 -6 2t-5 4q0 -31 4.5 -67.5t8.5 -42.5q-1 -4 28 -10zM547 1014q14 10 6 41q-16 2 -25 2v-11.5v-11.5q4 -8 4 -16q2 -2 6.5 -3t8.5 -1z M338 1036v11.5v11.5q2 -2 6 -2q0 -6 1 -10.5t3 -8.5h1h1v17.5v19.5q-12 4 -14 4q-6 -25 -2 -43h1h3zM553 1063q2 94 -21 170h-2v0q-2 31 -4 37q-37 41 -63 57v1v3h-5h-3q-16 -27 -25 -31q18 -23 23 -30q0 -10 -4 -35q-6 -2 -13 -2q0 -2 -18 31q-8 25 -15 24q-2 -10 -6 -38.5 t-20 -22.5q-2 6 -5 12t-3 12q-4 -23 0 -45t10 -41q8 -10 45 -16q-6 10 -12 20.5t-6 22.5q16 4 20 4q18 -35 21.5 -41t5.5 -6q31 8 41 10v1v3h1h1q0 8 -11 35q-8 57 -4 88q6 2 11 2q-12 -41 2 -85t28 -79q6 -20 10 -51l-1 -1l-1 -1v-3v-3q15 0 23 -2zM479 1067q-2 6 -14 39 q-4 -2 -12 -2q4 -10 12 -18.5t10 -16.5h1h3v-2v0zM350 1085q8 25 10 37q10 4 11 33q-8 23 -9.5 49.5t-1.5 50.5q4 6 13.5 23.5t15.5 19.5v4v7q-12 -4 -16 -13h-1h-1q-10 -16 -11.5 -22t-5.5 -17q-4 -66 0 -59q0 -25 -12 -65q-2 -12 -3 -22.5t-1 -20.5q10 -3 12 -5zM451 1112 q33 6 40 8t19 8q0 6 -4 13.5t-4 13.5q-63 -23 -121 -2q0 -29 4 -31t31 -6q8 -2 17.5 -3t17.5 -1zM444 1149q-10 23 -20 39q-6 0 -10 -2q12 -25 18 -35q2 0 5 -1t7 -1zM383 1241q12 23 10 49q-26 -16 -10 -49zM442 1243q2 41 -22 51q0 -8 16 -45h1h1q0 -2 1 -4t3 -2z M410 1298q27 16 34 35q-2 0 -4 -1l-2 -1q-8 -29 -41 -22q2 -4 2 -11h4.5h6.5zM412 1315q6 6 16 18.5t23 9.5q-6 25 -7 25q-14 -4 -65 0q-4 -20 3 -39.5t30 -13.5zM436 1374q20 8 27 12v0v3q-6 0 -11.5 3t-9.5 5q-12 31 -55 28q-2 -6 -4 -14t-2 -14q-16 -8 -23 -11v-3v-1 q18 -6 38 -7t40 -1zM379 555h-1h-1h-1t-1 2v0v2q0 2 2 4v1v3l-1 1l-1 1h-1h-1h-1t-1 2l1 1l1 1h1h1q0 4 2 5q2 2 4 2h1h3t2 -2v-2q0 -1 2 -1l-1 -1l-1 -1l-1 1l-1 1h-3h-1v0v0h-1h-1v-2v0h1h1h1h1v0h2v-2v0v0v0v-1v-1h-1h-1h-1h-1h-1h-1v-1v-1v0h2v-1v-1h-1h-1v-1v-1v-3v-1 v0v0v-1v-1q2 0 2 -2h-1h-1zM399 555q-6 0 -6 4v2v4v2v2q2 0 2 -2v-1v-1v0v0v-3v-1v-1v-1v0v0v-1v-1h1h1q0 2 2 2v-2v2h1h1v1v1v1v1v1v1v1v3h1h4v-1v-1v-3v-1v-2v-2v-1v-1v0v0q0 -2 -3 -2v0v0h-3h-1zM420 555h-2v0q-2 0 -4 2h-1t-1 2v1v1q2 2 0 6q0 4 4 4h1h1v0h2v0v0v0h2h1 h1v0h2q-2 -2 0 -2v-1v-1v0v0l1 -1l1 -1v-1v-1l-1 -1l-1 -1v0v0h-2v0h-2v0h-2v0q0 2 -2 0v0v2v1v1v0h2v0h2h1h1v0v0v0v2v0v0h-3h-1h-1h-1h-2v0v0h-1h-1v-2v0h1h1v0v0v-1t2 -1q0 -2 -1 -2h-1l-1 -1l-1 -1v0h2v-3v-1v2h1h1h1h1l1 1t3 1v0h2v0h2v-1v-1h-1h-1q0 -2 -2 -2h-2h-2z M436 555q-2 0 -2 4v4v4v1v1q0 2 2 2h1h1q0 4 4 0v0h2v0v0q2 0 5 -2q0 -2 2 -4v0v0h-1h-1v-1v-1v0h2v-2v0h-1h-1v0v0v-1t2 -1v-1v-1h-1h-1v-2v0q-2 0 -3 2v1v1v1v3v0v2l-1 1l-1 1v0v0q-2 0 -3 1l-1 1l-1 -1l-1 -1v0v0v0v0q-2 0 -2 -1v-1v-3v-1v-3v-1v-2v0zM465 555v1v1h-2v0 q-2 0 -2 1v1q-2 0 -2 4h-2v0l1 1l1 1v0v2v1v1v1v1h-1h-1q-4 0 -4 2l4 5q0 -2 1 -2.5t1 2.5v1v1v1v1q0 2 4 2v-1v-1v-2v0v-2v0q0 -2 2 0l1 -2l1 -1h1h1v-1v-1q0 -2 -2 0v-2v0h-2v0v0v0q-2 0 -2 -1v-1v-2v-2q-2 -2 -1 -2h1v-3v-1l1 1t3 1l1 1l1 1q2 2 2 0v-2v-2q0 -2 -1 -2h-1 q0 2 -2 0l-1 -1zM469 559l1 1l1 1h-2v0v-1v-1zM483 555h-1h-1q-2 0 -4 2h-1t-1 2v1v1q2 2 2 6q-4 4 2 4h1h1v0h2v0v0v0h2h1h1v0h2v-2v0v-1v-1h1h2v-1v-1v-1v-1v-1v-1h-2h-1h-2v0h-1h-1h-2v0v0v0q-2 0 -2 2v1v1h1h1h1h1h1h1v0v0v0v2v0v0h-1h-1h-2v0h-2v0h-2v0v0v0q-2 -2 0 -2 v0v0v0v0l1 -1l1 -1q0 -2 -2 -2v-1v-1q-2 0 -1 0h1v-3v-1l1 1l1 1v0v0h1h1l2 1l2 1v0h2h1h2v-1v-1v0v0q0 -2 -5 -2h-3h-1zM506 557h-1h-1h-3h-1l-1 1t-1 3v1v1l1 -1l1 -1h1h3h1h3q0 2 -2 4h-3h-1q-4 0 -4 2v2l1 2l1 2h2h4q4 0 4 -2h1h1q-2 -2 0 -2v0v0l-1 -1l-1 -1v-1v-1 l1 -1l1 -1v0v0q0 -2 -2 -2v-2v0q0 -2 -4 -2v0v0zM506 567q2 0 2 2h-1h-1q-2 0 -4 2v-1v-1h-2h2v-1v-1v0h2v0h2v0v0z" unicode="#"/><glyph d="M690 1014q-23 -31 -45 -31q-45 -74 -90 -144.5t-92 -140.5q23 4 46 10.5t54 18.5q70 41 156 102.5t108 149.5q-14 6 -69.5 21.5t-67.5 13.5zM305 1051q-61 39 -61 147q-2 0 -3 1l-1 1q0 16 4 49q12 55 45 99.5t76 81.5q31 8 61.5 17t60.5 21q117 41 228.5 93.5 t224.5 105.5q0 -2 2 -3t4 -1q20 27 49 70q18 25 62.5 104.5t62.5 106.5q10 23 21.5 56.5t44.5 51.5q43 -10 94 -2t68 -18q-6 -29 -59.5 -92.5t-74.5 -100.5q-12 0 -49 -51t-86 -125q-18 -14 -35 -37q12 4 21 6q43 -117 67.5 -201.5t10.5 -103.5q-125 -51 -180 55 q-23 20 -60 50q-35 -49 -64.5 -94.5t-47.5 -69.5q-4 -6 -21.5 -44t-32.5 -69q33 2 49 12l2 -6q2 -2 4 -2h3q16 -6 50 -12t97 -35q-2 -12 20.5 -93t28.5 -81q-12 -129 -125 -229q-31 -10 -61.5 -20.5t-61.5 -18.5q-113 -41 -221 -92.5t-217 -100.5q-23 -35 -61.5 -107.5 t-57.5 -97.5q-12 -23 -23 -56.5t-42 -51.5q-43 8 -93.5 1t-64.5 21q6 25 57.5 89.5t71.5 101.5q10 0 38 39t69 98q-6 -2 -14.5 -4t-18.5 -4q-45 16 -90 72q-10 20 -15.5 102t5.5 106l22 25l62 25l36 -37l7 39q18 -16 37.5 -33t37.5 -49q20 -20 74 -62q49 70 97 161t77 132 q10 12 -82 13.5t-129 50.5zM795 1444q-31 -8 -60.5 -13.5t-66.5 -19.5q-72 -43 -159 -104.5t-106 -149.5q25 -12 77 -13t120 3q20 45 63.5 107.5t57.5 84.5h1h3q18 27 35 53.5t35 51.5z" horiz-adv-x="1112" unicode="$"/><glyph d="M186 1538h508q57 0 58 -80v-907q0 -80 -58 -80h-508q-57 0 -57 80v907q0 80 57 80zM197 1524q-53 0 -54 -78v-883q0 -78 54 -78h487q53 0 53 78v883q0 78 -53 78h-487zM248 563v24.5t10 24.5q0 -8 -7 -34.5t13 -20.5q2 4 6 7t9 9v0v2q6 4 10 21.5t6 28.5v47v20l1 1t3 1 q10 -29 12 -32q10 4 23 45h1h3v-1v-1q-6 -29 -10 -56.5t12 -52.5h-1h-1q-12 14 -12 49q2 31 2 33q-2 -4 -3 -7t-1 -5h-1h-1v-3v-1q-2 0 -7 -5q-10 4 -16 27q0 -31 -2 -62.5t-21 -56.5v-1v-1q-18 -16 -28 0zM348 616q0 29 12 31q10 -2 9.5 -12t3.5 -17q2 10 0 21h1h3v-2v-2 q2 0 4 2q0 -4 1 -7l1 -3q8 0 8 8h1h1q2 8 7.5 23.5t0.5 25.5q-12 -6 -14 -8q-2 2 -2 4q4 0 8 3t10 5q2 4 3 14h1h3v-7v-5q18 8 47 19l1 -2l1 -2q-12 -6 -24.5 -10.5t-24.5 -8.5q-2 -12 -5.5 -30.5t7.5 -26.5q8 0 8 16.5v22.5q4 2 8 -4q10 2 16 14h1h1v-6v-4h-1h-1 q0 -33 5 -35q14 2 12 29q2 6 2 18q10 2 12 2q2 -12 -2 -22.5t-2 -16.5q6 -2 14 6v1v1h1h1v35q18 0 15 -2q12 4 14 12h2h2q0 -6 -4 -14q0 -18 6 -27q10 4 10 11q2 0 3 2q0 4 -3 20q8 18 23 6q18 18 25 19l1 -1l1 -1q-16 -12 -23 -17v-3v-1h-1h-1v-24q-8 -6 -18 0 q-10 -25 -23 -9q-2 6 -4 12.5t-2 12.5q-12 -4 -16 -2q0 -43 -27 -39l-4 -4v-3v-1q-20 -16 -27 10q2 6 2 19h-7h-5q0 -8 -2 -26t-16 -9q-4 6 -7 12q-4 -4 -6 -8t-8 -8h-8q-6 -12 -19 -19q-6 2 -12 12zM354 614l1 -2l1 -2q23 2 6 33h-2h-2l-1 -2l-1 -2q0 -6 -1 -12.5t-1 -12.5 zM465 653l1 -1l1 -1q6 14 4 27h-1h-1q-2 -6 -3 -12.5t-1 -12.5zM541 670q2 -2 2 -4q12 2 10 22h-3h-1v-2v0q-4 -4 -6 -4q0 -8 -2 -12zM541 694q6 6 10 0q-4 -4 -8 -6l-1 2t-1 4zM602 612q0 6 1 10.5t1 10.5q4 14 29 39q0 23 1 26l1 4q-20 -14 -17 -8q-6 -4 -8 -5t-4 -1 q-18 6 -14 35t10 41q2 0 2 2q8 20 23 20q14 -20 12 -57v-5v-3q-2 -45 -3 -60.5t-1 -58.5q-23 -23 -33 10zM606 614q2 -12 12 -18l13 6q0 6 1 14.5t1 47.5q-18 -14 -23 -25h-1h-1q0 -6 -1 -12.5t-1 -12.5zM596 709q4 -12 8 -17q14 6 14 10q-18 14 -14 56h-1h-1 q-2 -12 -4 -24.5t-2 -24.5zM606 727q4 -14 15 -22h1t3 2q6 14 12 38.5t-12 38.5q-18 -4 -18.5 -24.5t-0.5 -32.5zM627 705v-3v0q8 6 8 21q-6 -18 -8 -18zM475 733q-18 0 -33 4q-4 16 9 49h-3h-2q-12 -6 -40.5 -17t-28.5 15q6 6 18.5 16.5t18.5 18.5q0 2 -6 43q-4 14 -9 47 q-6 18 -12 30.5t-10 25.5q-6 55 -6 112q4 39 4 43q-14 -25 -19 -43q0 -25 2 -38t-26 -11q-10 20 -8 14q0 8 8 59.5t14 67.5q-2 4 -1 10.5t1 12.5q0 31 3 68.5t36 56.5q-12 16 -12 31q0 14 -2 20q-16 6 -29 10l1 3q1 3 1 5q23 10 27 15q4 14 10 29q27 18 61 -9q6 -18 35 -32 v-5v-2q-14 -8 -22 -10q0 -10 2 -19.5t4 -17.5q23 -6 28 -16q14 -6 27.5 -25.5t22.5 -31.5v-11.5v-11.5q12 -37 20 -86q4 -12 2 -22.5t2 -20.5q0 -18 -3 -33.5t3 -29.5q0 -45 -33 -37q-12 8 -12 32q-4 -27 -8 -43q0 -12 1 -23t1 -24q-6 -12 -3 -29.5t5 -29.5q0 -57 -18 -113 q-2 -31 -4 -35q-5 -4 -17 -12zM471 741q6 2 14 11q0 18 5.5 38.5t5.5 40.5q-20 -4 -35 3q0 -39 -2 -58q-10 -18 -10 -33q4 0 10 -1t12 -1zM406 774q4 2 17 7t15 12q2 2 15 8q0 29 -2 43q-2 6 -2 12q-18 -2 -25 -1l-6 1q0 -12 3 -28.5t-11 -22.5q-4 -8 -15 -14v-1v-2 q-8 -4 -10 -12q6 0 10.5 -1t10.5 -1zM487 836q2 0 5.5 1t7.5 3q0 4 1 10t3 12q-2 20 -5 45t3 45v19.5v19.5q6 47 18 90q0 20 -6 39q6 0 -39 -12q-2 -14 7.5 -29.5t9.5 -31.5q-12 0 -26.5 22.5t-19.5 34.5q-37 0 -57 6h-3h-1q-12 -53 -4 -100t27 -97q-2 0 -2 -2 q2 -12 5 -26.5t13 -20.5q6 0 10 -1t10 -1q-2 12 -3 34t-3 71q-10 31 -21 63.5t-14 67.5h3h4q14 -74 49 -142v-3v-1q0 -2 -1 -2h-1q-4 0 -6 2t-5 4q0 -31 4.5 -67.5t8.5 -42.5q-1 -4 28 -10zM547 1014q14 10 6 41q-16 2 -25 2v-11.5v-11.5q4 -8 4 -16q2 -2 6.5 -3t8.5 -1z M338 1036v11.5v11.5q2 -2 6 -2q0 -6 1 -10.5t3 -8.5h1h1v17.5v19.5q-12 4 -14 4q-6 -25 -2 -43h1h3zM553 1063q2 94 -21 170h-2v0q-2 31 -4 37q-37 41 -63 57v1v3h-5h-3q-16 -27 -25 -31q18 -23 23 -30q0 -10 -4 -35q-6 -2 -13 -2q0 -2 -18 31q-8 25 -15 24q-2 -10 -6 -38.5 t-20 -22.5q-2 6 -5 12t-3 12q-4 -23 0 -45t10 -41q8 -10 45 -16q-6 10 -12 20.5t-6 22.5q16 4 20 4q18 -35 21.5 -41t5.5 -6q31 8 41 10v1v3h1h1q0 8 -11 35q-8 57 -4 88q6 2 11 2q-12 -41 2 -85t28 -79q6 -20 10 -51l-1 -1l-1 -1v-3v-3q15 0 23 -2zM479 1067q-2 6 -14 39 q-4 -2 -12 -2q4 -10 12 -18.5t10 -16.5h1h3v-2v0zM350 1085q8 25 10 37q10 4 11 33q-8 23 -9.5 49.5t-1.5 50.5q4 6 13.5 23.5t15.5 19.5v4v7q-12 -4 -16 -13h-1h-1q-10 -16 -11.5 -22t-5.5 -17q-4 -66 0 -59q0 -25 -12 -65q-2 -12 -3 -22.5t-1 -20.5q10 -3 12 -5zM451 1112 q33 6 40 8t19 8q0 6 -4 13.5t-4 13.5q-63 -23 -121 -2q0 -29 4 -31t31 -6q8 -2 17.5 -3t17.5 -1zM444 1149q-10 23 -20 39q-6 0 -10 -2q12 -25 18 -35q2 0 5 -1t7 -1zM383 1241q12 23 10 49q-26 -16 -10 -49zM442 1243q2 41 -22 51q0 -8 16 -45h1h1q0 -2 1 -4t3 -2z M410 1298q27 16 34 35q-2 0 -4 -1l-2 -1q-8 -29 -41 -22q2 -4 2 -11h4.5h6.5zM412 1315q6 6 16 18.5t23 9.5q-6 25 -7 25q-14 -4 -65 0q-4 -20 3 -39.5t30 -13.5zM436 1374q20 8 27 12v0v3q-6 0 -11.5 3t-9.5 5q-12 31 -55 28q-2 -6 -4 -14t-2 -14q-16 -8 -23 -11v-3v-1 q18 -6 38 -7t40 -1zM379 555h-1h-1h-1t-1 2v0v2q0 2 2 4v1v3l-1 1l-1 1h-1h-1h-1t-1 2l1 1l1 1h1h1q0 4 2 5q2 2 4 2h1h3t2 -2v-2q0 -1 2 -1l-1 -1l-1 -1l-1 1l-1 1h-3h-1v0v0h-1h-1v-2v0h1h1h1h1v0h2v-2v0v0v0v-1v-1h-1h-1h-1h-1h-1h-1v-1v-1v0h2v-1v-1h-1h-1v-1v-1v-3v-1 v0v0v-1v-1q2 0 2 -2h-1h-1zM399 555q-6 0 -6 4v2v4v2v2q2 0 2 -2v-1v-1v0v0v-3v-1v-1v-1v0v0v-1v-1h1h1q0 2 2 2v-2v2h1h1v1v1v1v1v1v1v1v3h1h4v-1v-1v-3v-1v-2v-2v-1v-1v0v0q0 -2 -3 -2v0v0h-3h-1zM420 555h-2v0q-2 0 -4 2h-1t-1 2v1v1q2 2 0 6q0 4 4 4h1h1v0h2v0v0v0h2h1 h1v0h2q-2 -2 0 -2v-1v-1v0v0l1 -1l1 -1v-1v-1l-1 -1l-1 -1v0v0h-2v0h-2v0h-2v0q0 2 -2 0v0v2v1v1v0h2v0h2h1h1v0v0v0v2v0v0h-3h-1h-1h-1h-2v0v0h-1h-1v-2v0h1h1v0v0v-1t2 -1q0 -2 -1 -2h-1l-1 -1l-1 -1v0h2v-3v-1v2h1h1h1h1l1 1t3 1v0h2v0h2v-1v-1h-1h-1q0 -2 -2 -2h-2h-2z M436 555q-2 0 -2 4v4v4v1v1q0 2 2 2h1h1q0 4 4 0v0h2v0v0q2 0 5 -2q0 -2 2 -4v0v0h-1h-1v-1v-1v0h2v-2v0h-1h-1v0v0v-1t2 -1v-1v-1h-1h-1v-2v0q-2 0 -3 2v1v1v1v3v0v2l-1 1l-1 1v0v0q-2 0 -3 1l-1 1l-1 -1l-1 -1v0v0v0v0q-2 0 -2 -1v-1v-3v-1v-3v-1v-2v0zM465 555v1v1h-2v0 q-2 0 -2 1v1q-2 0 -2 4h-2v0l1 1l1 1v0v2v1v1v1v1h-1h-1q-4 0 -4 2l4 5q0 -2 1 -2.5t1 2.5v1v1v1v1q0 2 4 2v-1v-1v-2v0v-2v0q0 -2 2 0l1 -2l1 -1h1h1v-1v-1q0 -2 -2 0v-2v0h-2v0v0v0q-2 0 -2 -1v-1v-2v-2q-2 -2 -1 -2h1v-3v-1l1 1t3 1l1 1l1 1q2 2 2 0v-2v-2q0 -2 -1 -2h-1 q0 2 -2 0l-1 -1zM469 559l1 1l1 1h-2v0v-1v-1zM483 555h-1h-1q-2 0 -4 2h-1t-1 2v1v1q2 2 2 6q-4 4 2 4h1h1v0h2v0v0v0h2h1h1v0h2v-2v0v-1v-1h1h2v-1v-1v-1v-1v-1v-1h-2h-1h-2v0h-1h-1h-2v0v0v0q-2 0 -2 2v1v1h1h1h1h1h1h1v0v0v0v2v0v0h-1h-1h-2v0h-2v0h-2v0v0v0q-2 -2 0 -2 v0v0v0v0l1 -1l1 -1q0 -2 -2 -2v-1v-1q-2 0 -1 0h1v-3v-1l1 1l1 1v0v0h1h1l2 1l2 1v0h2h1h2v-1v-1v0v0q0 -2 -5 -2h-3h-1zM506 557h-1h-1h-3h-1l-1 1t-1 3v1v1l1 -1l1 -1h1h3h1h3q0 2 -2 4h-3h-1q-4 0 -4 2v2l1 2l1 2h2h4q4 0 4 -2h1h1q-2 -2 0 -2v0v0l-1 -1l-1 -1v-1v-1 l1 -1l1 -1v0v0q0 -2 -2 -2v-2v0q0 -2 -4 -2v0v0zM506 567q2 0 2 2h-1h-1q-2 0 -4 2v-1v-1h-2h2v-1v-1v0h2v0h2v0v0z" unicode="%"/><glyph d="M344 1128q-4 49 6 101q37 53 56 78q49 78 57 139t51 145q14 0 62.5 16.5t62.5 20.5q12 18 42 29.5t32 15.5q43 12 99 20.5t87 -30.5l15 -15l16 -16q4 -8 9 -16t11 -14q27 -66 11 -160q-2 -55 -18.5 -87t-70.5 -136q-8 -23 -55 -89.5t-61 -68.5q-8 -10 -47 -26.5 t-45 -24.5q-16 -8 -33 -9q8 -8 16 -15t19 -13q25 -43 56.5 -80t63.5 -80q18 18 19 21q33 0 50 17t52 19q-6 -8 16.5 -24.5t26.5 -32.5q0 -12 -26.5 -38.5t-32.5 -35.5q-6 -10 49 3.5t49 7.5q-2 -6 -31.5 -33t-70.5 -64q47 -88 85 -132t50 -118q-6 -12 -4 -29.5t2 -29.5 q-16 -2 -26.5 -9t-24.5 -7q-2 -45 -8.5 -49.5t-8.5 -6.5q-39 80 -83 150t-91 137q-55 -49 -96 -85t-41 -42q-12 -10 -59 -43t-58 -39q-37 -6 -108.5 -25.5t-124.5 -2.5q-39 4 -89 42.5t-67 71.5q-37 61 -66.5 75.5t-15.5 53.5q-6 16 0 38t-2 38q20 139 84 272.5t119 169.5 q29 27 90 45zM643 684q-4 88 -54 132t-93 106q-20 18 -38 50t-30 50q-12 0 -47 -16.5t-47 -16.5q-43 -35 -53.5 -86t-34.5 -88q-25 -43 -26 -81t-5 -91q6 -8 17.5 -28.5t52.5 -53.5q27 -6 70.5 -5t66.5 7q115 19 221 121zM825 1481q-20 53 -56 53h-85q-23 -16 -42 -31.5 t-48 -42.5q-12 -12 -29.5 -49t-25.5 -55q-31 -68 -7 -105l54 -49q37 -18 63.5 -12t38.5 8q35 25 64.5 49.5t48.5 61.5q14 35 16 81t8 91z" horiz-adv-x="1036" unicode="&amp;"/><glyph d="M145 1675q-2 2 -6 6.5t-30 30.5q-12 14 -17.5 16.5t-5.5 26.5q-2 25 -2 53.5t8 55.5q6 43 51 104q20 14 101.5 35.5t107.5 19.5l29 -18l37 -57l-29 -43l41 2q-12 -23 -24.5 -46.5t-43.5 -48.5q-2 -4 -19 -53t-19 -55q-4 -6 -31 -52t-31 -53q-4 -8 -16.5 -57t-14.5 -55 q-4 -6 -33.5 0t-31.5 2l-6 123z" horiz-adv-x="366" unicode="'"/><glyph d="M965 1935q-14 -12 -46 -38.5t-53 -51.5q-39 -47 -56 -72.5t-58 -76.5q-43 -53 -87 -118t-77 -118q-43 -84 -90 -159.5t-90 -151.5q-55 -127 -107 -227q-25 -59 -52.5 -133t-43.5 -136q-20 -66 -30.5 -94.5t-27.5 -85.5q-8 -33 -12 -75t-4 -58q-2 -18 -4 -68.5t29 -87.5 q-20 -27 -33 -30q-47 78 -69.5 227t-6.5 223q4 16 10 30.5t11 35.5q0 8 14 68.5t31.5 129t32 126t16.5 63.5q53 123 147 284.5t176 278.5q49 59 106.5 114.5t110.5 116.5q49 55 184.5 123t225.5 76q2 -10 -4 -45q-49 0 -90 -30t-53 -40z" horiz-adv-x="542" unicode="("/><glyph d="M-141 281q12 12 38.5 40.5t45.5 53.5q31 47 44 72.5t48 80.5q33 51 68.5 117t62.5 121q31 82 55.5 158.5t61.5 154.5q18 55 38.5 110.5t40.5 113.5q18 55 43 127.5t37 134.5q12 63 22.5 92t20.5 86q4 31 4 69.5v57.5q-2 14 -5 61t-33 84q18 25 28 31q49 -70 85 -208 t30 -210q-4 -18 -1 -58t3 -59q-2 -10 -13.5 -60t-23.5 -106.5t-23.5 -104.5t-11.5 -50q-33 -68 -42 -136.5t-58 -158.5l-1 -2l-1 -2q-16 -35 -29.5 -65.5t-23.5 -63.5l-37 -55q-12 -23 -37 -56q-45 -66 -101.5 -134t-62.5 -77q-12 -14 -19.5 -28.5t-15.5 -26.5 q-43 -57 -161.5 -134t-204.5 -93q-2 10 0 43q49 2 83 35t46 45z" horiz-adv-x="579" unicode=")"/><glyph d="M291 803q-6 14 -8 31q18 43 29.5 106.5t21.5 110.5q2 6 2 16q-16 -2 -32.5 -7t-31.5 -7q-4 -4 -6 -7l-2 -2q-43 -33 -133 -47q-2 -2 -33 -8l-30 -6q-27 -6 -29 -6l50 50t9 13q43 0 64 17q16 27 18 33q78 37 172 100q4 16 -12 35q-10 2 -12 4q-14 27 -30.5 65.5 t-49.5 51.5v6v8q-45 16 -55 29q0 2 1 6t1 8q18 -2 35.5 -3t35.5 -1q4 -2 9.5 -6t31.5 -23q33 -20 78 -46t86 -19q6 6 8 10q25 53 39 82q35 31 45 53h2h4q14 29 17 35q20 29 44.5 58.5t20.5 8.5q0 -2 3 -22l3 -21q-18 -43 -29.5 -96t-19.5 -98q0 -4 -1 -8t-1 -7 q16 0 31.5 5.5t34.5 9.5l2 3q2 3 4 5q45 31 133 47l31 6q30 6 32 8q27 6 29 7q-43 -43 -50 -51.5t-9 -12.5q-41 0 -62 -16q-12 -14 -20 -33q-82 -43 -172 -100q-6 -20 14 -35q8 -2 12 -4q12 -29 27.5 -67t50.5 -50v-8v-6q45 -20 56 -29v-8v-6q-25 0 -74 4q-6 0 -11.5 4 t-29.5 24q-33 18 -78 44t-86 22q-2 -4 -8 -10q-25 -53 -37 -82q-37 -33 -45 -53h-6h-2q-6 -10 -9.5 -19.5t-7.5 -15.5q-6 -18 -19 -30.5t-46 -49.5z" horiz-adv-x="845" unicode="*"/><glyph d="M186 1538h508q57 0 58 -80v-907q0 -80 -58 -80h-508q-57 0 -57 80v907q0 80 57 80zM197 1524q-53 0 -54 -78v-883q0 -78 54 -78h487q53 0 53 78v883q0 78 -53 78h-487zM248 563v24.5t10 24.5q0 -8 -7 -34.5t13 -20.5q2 4 6 7t9 9v0v2q6 4 10 21.5t6 28.5v47v20l1 1t3 1 q10 -29 12 -32q10 4 23 45h1h3v-1v-1q-6 -29 -10 -56.5t12 -52.5h-1h-1q-12 14 -12 49q2 31 2 33q-2 -4 -3 -7t-1 -5h-1h-1v-3v-1q-2 0 -7 -5q-10 4 -16 27q0 -31 -2 -62.5t-21 -56.5v-1v-1q-18 -16 -28 0zM348 616q0 29 12 31q10 -2 9.5 -12t3.5 -17q2 10 0 21h1h3v-2v-2 q2 0 4 2q0 -4 1 -7l1 -3q8 0 8 8h1h1q2 8 7.5 23.5t0.5 25.5q-12 -6 -14 -8q-2 2 -2 4q4 0 8 3t10 5q2 4 3 14h1h3v-7v-5q18 8 47 19l1 -2l1 -2q-12 -6 -24.5 -10.5t-24.5 -8.5q-2 -12 -5.5 -30.5t7.5 -26.5q8 0 8 16.5v22.5q4 2 8 -4q10 2 16 14h1h1v-6v-4h-1h-1 q0 -33 5 -35q14 2 12 29q2 6 2 18q10 2 12 2q2 -12 -2 -22.5t-2 -16.5q6 -2 14 6v1v1h1h1v35q18 0 15 -2q12 4 14 12h2h2q0 -6 -4 -14q0 -18 6 -27q10 4 10 11q2 0 3 2q0 4 -3 20q8 18 23 6q18 18 25 19l1 -1l1 -1q-16 -12 -23 -17v-3v-1h-1h-1v-24q-8 -6 -18 0 q-10 -25 -23 -9q-2 6 -4 12.5t-2 12.5q-12 -4 -16 -2q0 -43 -27 -39l-4 -4v-3v-1q-20 -16 -27 10q2 6 2 19h-7h-5q0 -8 -2 -26t-16 -9q-4 6 -7 12q-4 -4 -6 -8t-8 -8h-8q-6 -12 -19 -19q-6 2 -12 12zM354 614l1 -2l1 -2q23 2 6 33h-2h-2l-1 -2l-1 -2q0 -6 -1 -12.5t-1 -12.5 zM465 653l1 -1l1 -1q6 14 4 27h-1h-1q-2 -6 -3 -12.5t-1 -12.5zM541 670q2 -2 2 -4q12 2 10 22h-3h-1v-2v0q-4 -4 -6 -4q0 -8 -2 -12zM541 694q6 6 10 0q-4 -4 -8 -6l-1 2t-1 4zM602 612q0 6 1 10.5t1 10.5q4 14 29 39q0 23 1 26l1 4q-20 -14 -17 -8q-6 -4 -8 -5t-4 -1 q-18 6 -14 35t10 41q2 0 2 2q8 20 23 20q14 -20 12 -57v-5v-3q-2 -45 -3 -60.5t-1 -58.5q-23 -23 -33 10zM606 614q2 -12 12 -18l13 6q0 6 1 14.5t1 47.5q-18 -14 -23 -25h-1h-1q0 -6 -1 -12.5t-1 -12.5zM596 709q4 -12 8 -17q14 6 14 10q-18 14 -14 56h-1h-1 q-2 -12 -4 -24.5t-2 -24.5zM606 727q4 -14 15 -22h1t3 2q6 14 12 38.5t-12 38.5q-18 -4 -18.5 -24.5t-0.5 -32.5zM627 705v-3v0q8 6 8 21q-6 -18 -8 -18zM475 733q-18 0 -33 4q-4 16 9 49h-3h-2q-12 -6 -40.5 -17t-28.5 15q6 6 18.5 16.5t18.5 18.5q0 2 -6 43q-4 14 -9 47 q-6 18 -12 30.5t-10 25.5q-6 55 -6 112q4 39 4 43q-14 -25 -19 -43q0 -25 2 -38t-26 -11q-10 20 -8 14q0 8 8 59.5t14 67.5q-2 4 -1 10.5t1 12.5q0 31 3 68.5t36 56.5q-12 16 -12 31q0 14 -2 20q-16 6 -29 10l1 3q1 3 1 5q23 10 27 15q4 14 10 29q27 18 61 -9q6 -18 35 -32 v-5v-2q-14 -8 -22 -10q0 -10 2 -19.5t4 -17.5q23 -6 28 -16q14 -6 27.5 -25.5t22.5 -31.5v-11.5v-11.5q12 -37 20 -86q4 -12 2 -22.5t2 -20.5q0 -18 -3 -33.5t3 -29.5q0 -45 -33 -37q-12 8 -12 32q-4 -27 -8 -43q0 -12 1 -23t1 -24q-6 -12 -3 -29.5t5 -29.5q0 -57 -18 -113 q-2 -31 -4 -35q-5 -4 -17 -12zM471 741q6 2 14 11q0 18 5.5 38.5t5.5 40.5q-20 -4 -35 3q0 -39 -2 -58q-10 -18 -10 -33q4 0 10 -1t12 -1zM406 774q4 2 17 7t15 12q2 2 15 8q0 29 -2 43q-2 6 -2 12q-18 -2 -25 -1l-6 1q0 -12 3 -28.5t-11 -22.5q-4 -8 -15 -14v-1v-2 q-8 -4 -10 -12q6 0 10.5 -1t10.5 -1zM487 836q2 0 5.5 1t7.5 3q0 4 1 10t3 12q-2 20 -5 45t3 45v19.5v19.5q6 47 18 90q0 20 -6 39q6 0 -39 -12q-2 -14 7.5 -29.5t9.5 -31.5q-12 0 -26.5 22.5t-19.5 34.5q-37 0 -57 6h-3h-1q-12 -53 -4 -100t27 -97q-2 0 -2 -2 q2 -12 5 -26.5t13 -20.5q6 0 10 -1t10 -1q-2 12 -3 34t-3 71q-10 31 -21 63.5t-14 67.5h3h4q14 -74 49 -142v-3v-1q0 -2 -1 -2h-1q-4 0 -6 2t-5 4q0 -31 4.5 -67.5t8.5 -42.5q-1 -4 28 -10zM547 1014q14 10 6 41q-16 2 -25 2v-11.5v-11.5q4 -8 4 -16q2 -2 6.5 -3t8.5 -1z M338 1036v11.5v11.5q2 -2 6 -2q0 -6 1 -10.5t3 -8.5h1h1v17.5v19.5q-12 4 -14 4q-6 -25 -2 -43h1h3zM553 1063q2 94 -21 170h-2v0q-2 31 -4 37q-37 41 -63 57v1v3h-5h-3q-16 -27 -25 -31q18 -23 23 -30q0 -10 -4 -35q-6 -2 -13 -2q0 -2 -18 31q-8 25 -15 24q-2 -10 -6 -38.5 t-20 -22.5q-2 6 -5 12t-3 12q-4 -23 0 -45t10 -41q8 -10 45 -16q-6 10 -12 20.5t-6 22.5q16 4 20 4q18 -35 21.5 -41t5.5 -6q31 8 41 10v1v3h1h1q0 8 -11 35q-8 57 -4 88q6 2 11 2q-12 -41 2 -85t28 -79q6 -20 10 -51l-1 -1l-1 -1v-3v-3q15 0 23 -2zM479 1067q-2 6 -14 39 q-4 -2 -12 -2q4 -10 12 -18.5t10 -16.5h1h3v-2v0zM350 1085q8 25 10 37q10 4 11 33q-8 23 -9.5 49.5t-1.5 50.5q4 6 13.5 23.5t15.5 19.5v4v7q-12 -4 -16 -13h-1h-1q-10 -16 -11.5 -22t-5.5 -17q-4 -66 0 -59q0 -25 -12 -65q-2 -12 -3 -22.5t-1 -20.5q10 -3 12 -5zM451 1112 q33 6 40 8t19 8q0 6 -4 13.5t-4 13.5q-63 -23 -121 -2q0 -29 4 -31t31 -6q8 -2 17.5 -3t17.5 -1zM444 1149q-10 23 -20 39q-6 0 -10 -2q12 -25 18 -35q2 0 5 -1t7 -1zM383 1241q12 23 10 49q-26 -16 -10 -49zM442 1243q2 41 -22 51q0 -8 16 -45h1h1q0 -2 1 -4t3 -2z M410 1298q27 16 34 35q-2 0 -4 -1l-2 -1q-8 -29 -41 -22q2 -4 2 -11h4.5h6.5zM412 1315q6 6 16 18.5t23 9.5q-6 25 -7 25q-14 -4 -65 0q-4 -20 3 -39.5t30 -13.5zM436 1374q20 8 27 12v0v3q-6 0 -11.5 3t-9.5 5q-12 31 -55 28q-2 -6 -4 -14t-2 -14q-16 -8 -23 -11v-3v-1 q18 -6 38 -7t40 -1zM379 555h-1h-1h-1t-1 2v0v2q0 2 2 4v1v3l-1 1l-1 1h-1h-1h-1t-1 2l1 1l1 1h1h1q0 4 2 5q2 2 4 2h1h3t2 -2v-2q0 -1 2 -1l-1 -1l-1 -1l-1 1l-1 1h-3h-1v0v0h-1h-1v-2v0h1h1h1h1v0h2v-2v0v0v0v-1v-1h-1h-1h-1h-1h-1h-1v-1v-1v0h2v-1v-1h-1h-1v-1v-1v-3v-1 v0v0v-1v-1q2 0 2 -2h-1h-1zM399 555q-6 0 -6 4v2v4v2v2q2 0 2 -2v-1v-1v0v0v-3v-1v-1v-1v0v0v-1v-1h1h1q0 2 2 2v-2v2h1h1v1v1v1v1v1v1v1v3h1h4v-1v-1v-3v-1v-2v-2v-1v-1v0v0q0 -2 -3 -2v0v0h-3h-1zM420 555h-2v0q-2 0 -4 2h-1t-1 2v1v1q2 2 0 6q0 4 4 4h1h1v0h2v0v0v0h2h1 h1v0h2q-2 -2 0 -2v-1v-1v0v0l1 -1l1 -1v-1v-1l-1 -1l-1 -1v0v0h-2v0h-2v0h-2v0q0 2 -2 0v0v2v1v1v0h2v0h2h1h1v0v0v0v2v0v0h-3h-1h-1h-1h-2v0v0h-1h-1v-2v0h1h1v0v0v-1t2 -1q0 -2 -1 -2h-1l-1 -1l-1 -1v0h2v-3v-1v2h1h1h1h1l1 1t3 1v0h2v0h2v-1v-1h-1h-1q0 -2 -2 -2h-2h-2z M436 555q-2 0 -2 4v4v4v1v1q0 2 2 2h1h1q0 4 4 0v0h2v0v0q2 0 5 -2q0 -2 2 -4v0v0h-1h-1v-1v-1v0h2v-2v0h-1h-1v0v0v-1t2 -1v-1v-1h-1h-1v-2v0q-2 0 -3 2v1v1v1v3v0v2l-1 1l-1 1v0v0q-2 0 -3 1l-1 1l-1 -1l-1 -1v0v0v0v0q-2 0 -2 -1v-1v-3v-1v-3v-1v-2v0zM465 555v1v1h-2v0 q-2 0 -2 1v1q-2 0 -2 4h-2v0l1 1l1 1v0v2v1v1v1v1h-1h-1q-4 0 -4 2l4 5q0 -2 1 -2.5t1 2.5v1v1v1v1q0 2 4 2v-1v-1v-2v0v-2v0q0 -2 2 0l1 -2l1 -1h1h1v-1v-1q0 -2 -2 0v-2v0h-2v0v0v0q-2 0 -2 -1v-1v-2v-2q-2 -2 -1 -2h1v-3v-1l1 1t3 1l1 1l1 1q2 2 2 0v-2v-2q0 -2 -1 -2h-1 q0 2 -2 0l-1 -1zM469 559l1 1l1 1h-2v0v-1v-1zM483 555h-1h-1q-2 0 -4 2h-1t-1 2v1v1q2 2 2 6q-4 4 2 4h1h1v0h2v0v0v0h2h1h1v0h2v-2v0v-1v-1h1h2v-1v-1v-1v-1v-1v-1h-2h-1h-2v0h-1h-1h-2v0v0v0q-2 0 -2 2v1v1h1h1h1h1h1h1v0v0v0v2v0v0h-1h-1h-2v0h-2v0h-2v0v0v0q-2 -2 0 -2 v0v0v0v0l1 -1l1 -1q0 -2 -2 -2v-1v-1q-2 0 -1 0h1v-3v-1l1 1l1 1v0v0h1h1l2 1l2 1v0h2h1h2v-1v-1v0v0q0 -2 -5 -2h-3h-1zM506 557h-1h-1h-3h-1l-1 1t-1 3v1v1l1 -1l1 -1h1h3h1h3q0 2 -2 4h-3h-1q-4 0 -4 2v2l1 2l1 2h2h4q4 0 4 -2h1h1q-2 -2 0 -2v0v0l-1 -1l-1 -1v-1v-1 l1 -1l1 -1v0v0q0 -2 -2 -2v-2v0q0 -2 -4 -2v0v0zM506 567q2 0 2 2h-1h-1q-2 0 -4 2v-1v-1h-2h2v-1v-1v0h2v0h2v0v0z" unicode="+"/><glyph d="M139 473q-2 2 -23.5 -5t-47.5 19q-12 14 -16.5 16.5t-6.5 28.5q-2 23 -2 51.5t8 55.5q6 47 53 104q18 14 99.5 36t107.5 20l29 -19l37 -57l-29 -43l41 2q-12 -23 -24.5 -46.5t-42.5 -47.5q-2 -4 -18.5 -53.5l-18.5 -55.5q-4 -6 -39 -79.5t-37 -80.5q-4 -6 -51 -35.5 t-49 -35.5q-6 -6 -49.5 12.5t-43.5 11.5l105 115z" horiz-adv-x="415" unicode=","/><glyph d="M59 506q-2 0 -4 3t-2 5q6 18 19.5 34.5t19.5 39.5q-10 18 -31 59q8 43 54 105q18 14 100 35.5t109 19.5l28 -19l37 -57l-29 -43l41 2l-24 -46t-43 -48q-2 -4 -5 -8t-5 -10q-4 -6 -7.5 -18.5t-7.5 -18.5q-4 -8 -34.5 -35t-32.5 -33q-4 -6 -48 -6t-44 -4z" horiz-adv-x="428" unicode="."/><glyph d="M494 1153q-135 -197 -218 -350.5t-126 -255.5q-16 -23 -52.5 -97.5t-54.5 -99.5l-182 31q23 29 36 83t40 91q63 43 93.5 104.5t88.5 133.5q49 68 115.5 163t107.5 152q18 31 33.5 63.5t38.5 63.5h1h1q113 170 190.5 278.5t120.5 167.5q20 31 69.5 121t71.5 121 q10 25 23.5 62.5t50.5 60.5q47 -12 105.5 -3t76.5 -22q-8 -31 -67.5 -103.5t-81.5 -115.5q-14 0 -56 -58t-98 -142q-66 -55 -170 -215t-157 -234z" horiz-adv-x="757" unicode="/"/><glyph d="M109 485h-3h-2q-8 10 -32 41q-31 53 -35 111.5t2 118.5q16 29 33.5 58.5t36.5 59.5q61 117 91.5 260.5t82.5 266.5q20 0 79.5 54t81.5 61q16 27 63.5 22.5t51.5 1.5q59 25 138 42t128 -36l23 -20q22 -21 24 -21q20 -29 33 -41q27 -55 33 -113.5t0 -115.5q0 -41 -40 -127 t-94 -189.5t-111.5 -210t-88.5 -182.5q-23 -4 -55.5 -12t-52.5 -14q-55 -86 -188 -87.5t-199 72.5zM741 1278q-37 74 -87 69.5t-124 -10.5q-29 -25 -55 -49t-63 -65q-14 -18 -36 -73.5t-34 -82.5q-18 -53 -61 -172t-45 -182l51 -2q61 -41 111.5 -25t56.5 53 q49 41 126.5 139.5t102.5 153.5q16 51 34.5 115.5t22.5 130.5z" horiz-adv-x="909" unicode="0"/><glyph d="M211 408q10 31 -1 31.5t-3 23.5h-39t-25 4q-25 4 -51 -3t-51 -1q-4 10 -7 19.5t-5 21.5q8 4 16 17.5t18 19.5q-6 29 -9 33t9 30q20 18 45 18.5t52 0.5q37 -6 47 -2t47 -7q12 35 44 104.5t75 168.5q12 78 53 206t53 207q-57 18 -114.5 4t-88.5 17q18 23 30.5 51.5 t43.5 65.5q25 6 51.5 13t71.5 24q51 -4 78 36q4 37 38 35t89 19q0 -4 46 6t46 8q37 -57 37 -55t16 -21q-23 -18 -19.5 -56t-8.5 -58q-18 -47 -14.5 -62.5t1.5 -19.5q-12 6 -10 -33t-10 -33q-25 -20 -33 -51t-12 -60q-25 -45 -38 -42.5t-32.5 -16t-57.5 -88.5t-110 -254 q-12 -33 -22.5 -64.5t-20.5 -62.5q78 -16 139.5 -19t137.5 -34l-21 -27q-22 -28 -18 -28q-25 -10 -74 -20.5t-74 -16.5q-55 -18 -68.5 -14.5t-72.5 14.5q-8 -25 -9 -21t-7 -18q-14 0 -30.5 -14.5t-29.5 -20.5q-12 14 -26.5 17t-26.5 22q-49 -29 -46 -21.5t1 7.5z" horiz-adv-x="782" unicode="1"/><glyph d="M551 944q92 45 191.5 141.5t101.5 108.5q12 94 -5.5 97t-82.5 87q-57 10 -137 3t-117 -107l12 -37q-29 -49 -65.5 -86t-49.5 -88l-32 16l-43 -20l-62 10l6 57q0 6 5.5 22.5t11.5 49.5q45 119 55 146.5t25 72.5q10 6 42.5 29.5t36.5 32.5q16 10 30.5 17t88.5 44 q111 10 194 9t150 -52q4 0 4 2q10 -12 20.5 -21.5t22.5 -19.5q41 -51 57.5 -113.5t22.5 -125.5q-14 -37 -32.5 -71t-30.5 -69q-16 -47 -99.5 -104t-113.5 -76q-6 -6 -29.5 -22.5t-30.5 -20.5l-114 -76q-41 -68 -64 -115l-24 -47q59 -27 53 -25.5t61 -0.5q14 -14 64 -43 q39 -10 65.5 -2t67.5 24q6 -6 26.5 -14t137.5 -51q-6 -2 -13.5 -4t-48.5 -10q-4 0 -102 -32t-98 -30q-61 -16 -99.5 -9t-97.5 -15q-92 -2 -94 -5.5t-88 -9.5q-10 -2 -19.5 -4t-17.5 -2q-47 0 -113.5 45t-136.5 72q10 88 13 93t34 46q70 76 221.5 175t239.5 128z" horiz-adv-x="997" unicode="2"/><glyph d="M-14 444q27 6 114 -65q47 -90 85 -89t108 -1q80 16 93 -1.5t79 50.5q78 115 105.5 228.5t-23.5 187.5q-33 -20 -33 -19q-53 16 -102.5 28.5t-98.5 14.5q-25 8 -32 38t-11 36q6 10 11.5 25.5t23.5 44.5q80 80 220.5 120.5t179.5 131.5l43 116q8 43 -14.5 67.5t-84.5 65.5 q-37 -12 -71.5 -39.5t-65.5 -46.5l6 -39q-33 -43 -78 -81.5t-63 -86.5l-29 19l-45 -14l-57 16l10 55q0 6 12.5 28.5t24.5 53.5q57 111 69.5 135.5t30.5 65.5q10 6 45 25.5t39 25.5q18 6 33.5 12.5t89.5 34.5q6 -10 12 -18t13 -17q45 10 96 6t88 -38q4 0 4 2 q8 -12 17.5 -22.5t19.5 -20.5q35 -57 45 -138l2 2v-3v-1q2 -16 2 -53q8 -18 -8.5 -87t-32.5 -97q-57 -98 -156.5 -109.5t-173.5 -85.5q59 -8 94 3.5t66 -7.5q8 -8 25.5 -22.5t19.5 -28.5q12 -12 30.5 -54t24.5 -79q25 -43 37.5 -92t-8.5 -95q0 -2 1 -3l1 -1q-8 -12 -15 -24 t-13 -25q-41 -49 -105.5 -187t-124.5 -155q-37 4 -74.5 -28.5t-74.5 -26.5q-61 6 -77 15t-77 12q-66 -14 -95.5 16.5t-31.5 32.5q-86 37 -129 98q-53 68 -52 79t5 44z" horiz-adv-x="884" unicode="3"/><glyph d="M512 1210q61 37 178 113t105 45q-74 -190 -97.5 -198.5t-85.5 -75.5q-106 -84 -144 -110t-93 -142q12 -74 141 -78t148 -4q23 51 47 100t43 90q14 23 36.5 85.5t40.5 72.5q27 55 10.5 62.5t8.5 64.5q12 6 76.5 100.5t72.5 108.5q16 14 55.5 55t75.5 72q6 -4 13.5 -11.5 t25.5 -17.5q10 -6 20.5 -8t22.5 -4q12 16 23 35h20.5h22.5l1 1l3 3q2 0 5 -1t7 -1q-4 -8 -8 -25q-4 -4 -8 -6q-12 -25 -26.5 -53.5t-75.5 -161.5q-4 -39 -25 -96l-219 -334q-18 -31 -32.5 -68t-35.5 -82q-10 -10 -20 -30q20 0 82 24q6 -4 25.5 -11t131.5 -50q-4 -4 -11 -6 t-48 -11q-2 0 -61.5 -13t-61.5 -11q-49 -16 -106 -25l-15 -33q-25 -31 -20 -26v0v2q-6 -12 -10.5 -22.5t-8.5 -18.5l7 -2q-12 -25 -19 -39q-31 -119 -76 -195.5t-94 -187.5q-18 2 -30.5 6t-67.5 25q-12 25 -18.5 51.5t-12.5 52.5h-35q43 82 87 165t87 167h6q4 12 10.5 27.5 t12.5 33.5q-31 -8 -61.5 -12t-57.5 -14q-88 -2 -91 -5t-85 -8q-12 -4 -37 -8q-43 0 -107.5 44t-131.5 71q-8 16 -4 33q-23 12 -33 16q8 35 42 41t40 43q117 125 214 189.5t226 205.5z" horiz-adv-x="1148" unicode="4"/><glyph d="M430 1550q6 -2 59.5 6.5t61.5 6.5q84 -16 86 -11.5t90 -7.5q25 -18 71 -15t76 -9q6 0 11.5 3t11.5 5q72 -18 94.5 -14t73.5 18q2 0 -5 -55.5t-3 -55.5q-33 -25 -48.5 -24.5t-11.5 -1.5q-80 -25 -32.5 -13.5t-42.5 -1.5q-20 -10 -75.5 -21t-74.5 -24q-98 6 -103 6t-104 -4 q-14 -14 -24.5 -26.5t-22.5 -24.5q-4 -10 -20.5 -41t-16.5 -39q8 -10 -28.5 -25.5t-34.5 -21.5q-18 -72 -92 -142.5t-50 -131.5q27 -29 29 -25q88 84 86 65.5t29 14.5q12 0 50 7t44 14q18 0 34.5 1t96.5 1q8 -25 12 -39q45 -6 91.5 -26.5t68.5 -63.5h2h4q10 -31 21 -52 q12 -63 1 -123.5t-34 -117.5q-27 -25 -53.5 -50.5t-52.5 -50.5q-96 -100 -128 -163.5t-118 -170.5q-25 2 -106 2.5t-103 0.5q-14 -12 -43 -10.5t-41 -10.5q-31 -4 -50.5 -8t-47.5 8q-23 18 -59 61.5t-42 71.5l10 37l50 55l55 -20l-14 45q25 -8 53.5 -15.5t64.5 -31.5 q27 -10 74 -18.5t78 -8.5q37 49 77 71.5t81 74.5q49 76 93 147.5t23 171.5q-14 23 -54 30t-77 1l-6 -39q-43 -31 -94 -21.5t-82 -29.5l-37 2l-78 -17l-80 58q-10 -4 -2.5 11t-11.5 34q-4 8 -8 68.5t22 127.5q35 80 36 102.5t46 112.5q-8 2 21 58.5t20 60.5q-6 61 5.5 110.5 t23.5 106.5q12 41 53 34t121 11z" horiz-adv-x="921" unicode="5"/><glyph d="M92 625q-23 57 -27 127.5t3 107.5q12 41 13 48t19 38q8 31 17.5 62.5t19.5 64.5q29 57 66 156.5t63 159.5q4 18 7 37.5t10 37.5q20 31 43 56q25 57 39 86q37 98 29.5 114.5t29.5 73.5q55 49 55 71.5t88 69.5q-2 -4 59.5 21.5t61.5 23.5q68 18 80 16.5t80 22.5 q37 16 100.5 9t102.5 12q68 -2 55.5 0t46.5 -39q20 -25 45 -45q49 -59 34 -85l-15 -26q37 -43 3 -125t-46 -131l-56 31l-59 -66l-37 45q2 4 3 38t1 73v71t2 40q-94 68 -122.5 46t-131.5 -40q-121 -33 -186 -117q-27 -14 -36 -55t-34 -96q49 2 125 -35t107 -74 q63 -72 105 -83t36 -62q12 -20 8 -51t12 -50q6 -186 -44 -367.5t-109 -242.5q-39 -53 -115 -114.5t-137 -82.5q-29 -6 -101.5 -5t-87.5 20q-80 -8 -111.5 43t-62.5 114l-23 23q-24 23 -28 33zM274 1042q-6 -29 -28.5 -96t-24.5 -96q0 -61 32 -90t52 -53q61 -31 108.5 -52.5 t129.5 15.5q43 55 82 89t63 89q20 61 22.5 153.5t-5.5 163.5q-10 8 -39 45t-88 74l14 -94q-12 -14 -43 -50t-33 -30l-72 72q-12 12 -30.5 14t-24.5 -12q-8 -16 -47 -54t-45 -51q-6 -12 -11.5 -14.5t-11.5 -22.5z" horiz-adv-x="1085" unicode="6"/><glyph d="M963 1188q-45 0 -68 -2q-20 -61 -76.5 -92t-105.5 -93q-49 -61 -121 -125.5t-121 -117.5q-104 -207 -216 -393.5t-179 -417.5q-4 4 -6 12t-11 55h-36.5h-34.5q0 12 -2 33t-9 33q0 94 38 154.5t81 197.5q43 117 91.5 192.5t84.5 159.5q2 4 46 56.5t97.5 115t99.5 116.5 t56 63q39 39 47 63h-27.5h-31.5q-12 4 -22.5 8t-20.5 11q-139 27 -154.5 18.5t-146.5 44.5q-10 4 -53 8t-51 10q-33 18 -31 42t-29 42q2 0 6 2t9 5q121 27 170 39t176 14q147 -6 252 45q6 2 43 -12q61 -6 79 -7h1h1q55 8 89 -8q57 -8 84 -41q12 -39 4.5 -68.5t-19.5 -68.5 q10 -10 21.5 -19.5t23.5 -17.5q-8 -14 -15 -28.5t-13 -28.5z" horiz-adv-x="897" unicode="7"/><glyph d="M1122 1790q70 -104 23 -174t-96 -156q-55 -61 -105 -123q14 -39 16.5 -81t6.5 -82q4 -78 -118 -283t-177 -359q-25 -6 -59.5 -17t-55.5 -17q-53 -86 -195.5 -97.5t-216.5 52.5h-4h-2q-10 8 -19 17t-18 19q-37 49 -46 105.5t-7 114.5q16 31 32.5 60.5t35.5 59.5 q55 117 73.5 222.5t63.5 228.5q23 4 82 60.5t84 64.5q2 6 14 14q-23 16 -10 47q-6 16 1 38t-1 40q25 139 79 242.5t113 140.5q39 31 111 66t127 41q33 0 49 -2l27 -6l26 -5q66 -6 95.5 -68.5t44.5 -113.5q0 -2 12 -22.5t14 -26.5zM578 1241q-49 -8 -74 -22 q-33 -18 -47.5 -37t-50.5 -62q-14 -20 -51.5 -106t-47.5 -113q-14 -53 -29.5 -104.5t-13.5 -112.5l55 2q68 -37 119 -17.5t58 56.5q49 45 103 80t77 90q12 51 34.5 136t22.5 147q-2 0 -3 2t-1 4q-10 23 -59 51q-18 0 -43.5 3t-48.5 3zM616 1489q25 10 74 22q12 14 31.5 35 t32.5 21q25 0 35 -29t24 -41q10 -10 18 -16q8 -4 17 -13q12 -6 18 0q53 66 70.5 118t26.5 132q-80 121 -209 97q-45 -35 -83 -79t-67 -81q-29 -43 -21.5 -54.5t7.5 -66.5q-1 -4 26 -45z" horiz-adv-x="1099" unicode="8"/><glyph d="M733 1278q47 -47 43 -56.5t15 -50.5q-4 -10 2 -45.5t4 -44.5q0 -6 -9.5 -32.5t-7.5 -26.5q-12 -37 -13 -42t-13 -30q-6 -27 -14.5 -52.5t-14.5 -49.5q-12 -29 -14 -36t10 -34q4 -12 30.5 -14t22.5 -12q-6 -12 -4 -45t-2 -43q-4 -16 -72.5 -44t-68.5 -42 q-10 -12 -18.5 -17.5t-16.5 -15.5q-8 -18 -16.5 -35.5t-14.5 -36.5q-31 -82 -30 -128t-27 -93q-47 -43 -46 -61.5t-69 -55.5l-50 -21q-50 -22 -48 -18q-55 -18 -66.5 -16t-62.5 -19q-31 -14 -83 -10t-81 -10q-55 0 -45 -1t-39 32q-25 25 -39 37q-39 45 -27 67l11 21 q-31 35 -5.5 101.5t35.5 109.5l48 -25l45 55l30 -37q-6 -10 -2 -90v-59.5v-30.5q78 -55 100.5 -37.5t108.5 35.5q94 31 150 100q20 10 32.5 76t32.5 115q-41 -6 -103.5 23.5t-86.5 60.5q-55 55 -89 64.5t-28 52.5q-12 16 -9 40.5t-9 41.5q-12 152 23.5 306t84.5 208 q29 43 89.5 71.5t111.5 46.5q27 6 47 11h27h26q66 8 109 -27t71 -86q0 -2 15.5 -20.5t19.5 -24.5zM600 1020q14 39 14 55q-4 49 -7 66.5t-9 50.5q-106 104 -223 51q-35 -45 -59.5 -111.5t-43.5 -109.5q-18 -51 -10 -92t19 -96q6 -8 24.5 -28t67.5 -46q31 0 57.5 15.5 t44.5 31.5q31 29 55.5 47t42.5 61q2 10 6.5 32t10.5 40q4 16 2 21q0 2 3 5t5 7z" horiz-adv-x="757" unicode="9"/><glyph d="M59 506q-2 0 -4 3t-2 5q6 18 19.5 34.5t19.5 39.5q-10 18 -31 59q8 43 54 105q18 14 100 35.5t109 19.5l28 -19l37 -57l-29 -43l41 2l-24 -46t-43 -48q-2 -4 -5 -8t-5 -10q-4 -6 -7.5 -18.5t-7.5 -18.5q-4 -8 -34.5 -35t-32.5 -33q-4 -6 -48 -6t-44 -4zM623 1352 q0 -4 3 -6.5t5 -4.5q-10 -18 -22.5 -35.5t-16.5 -35.5q8 -20 29 -62q-12 -51 -54 -102q-20 -16 -102 -39t-107 -16l-28 16l-37 57l31 45l-43 -2q12 20 24 43t43 50q0 2 3 7t7 11q2 6 6.5 18.5t8.5 20.5q2 6 32.5 32.5t34.5 32.5q2 6 46 6.5t46 6.5z" horiz-adv-x="593" unicode=":"/><glyph d="M139 473q-2 2 -23.5 -5t-47.5 19q-12 14 -16.5 16.5t-6.5 28.5q-2 23 -2 51.5t8 55.5q6 47 53 104q18 14 99.5 36t107.5 20l29 -19l37 -57l-29 -43l41 2q-12 -23 -24.5 -46.5t-42.5 -47.5q-2 -4 -18.5 -53.5l-18.5 -55.5q-4 -6 -39 -79.5t-37 -80.5q-4 -6 -51 -35.5 t-49 -35.5q-6 -6 -49.5 12.5t-43.5 11.5l105 115zM610 1343q2 -4 8 -10q-10 -20 -22 -36.5t-16 -36.5q6 -14 13 -30t15 -30q-8 -49 -53 -104q-20 -14 -101 -37t-106 -17l-29 17l-36 57l28 45l-41 -2q10 18 23.5 42t44.5 50q0 2 3 7.5t7 11.5q2 4 5 17t7 20q4 6 34 32.5 t36 34.5q2 6 45 5t47 5z" horiz-adv-x="579" unicode=";"/><glyph d="M102 987q-12 4 -23 9t-22 12q0 4 -12 29.5t8 62.5q6 18 44 43.5t38 50.5q23 2 37 4t74 8q104 14 164.5 21.5t158.5 1.5q37 0 73 9t73 15q16 16 16 17q68 43 144.5 60.5t156.5 29.5q2 2 69.5 11t72.5 13q45 6 53 7.5t14 1.5q-100 -92 -117.5 -108.5t-21.5 -22.5 q-47 0 -57.5 -17.5t-45.5 -42.5q-14 -18 -45.5 -20t-42.5 -21q-102 -45 -171.5 -83t-168.5 -93q-14 -39 27 -82q18 -2 27 -6q29 -98 35 -131t45 -57q0 -8 39.5 -54.5t39.5 -54.5q33 -14 36 -45t28 -55q0 -10 -1 -19.5t-1 -15.5q-43 4 -53.5 31.5t-49.5 33.5q-10 4 -65 54.5 t-111 97.5q-70 49 -99.5 59.5t-102.5 67.5q-98 76 -143.5 93t-119.5 85z" horiz-adv-x="1073" unicode="&lt;"/><glyph d="M186 1538h508q57 0 58 -80v-907q0 -80 -58 -80h-508q-57 0 -57 80v907q0 80 57 80zM197 1524q-53 0 -54 -78v-883q0 -78 54 -78h487q53 0 53 78v883q0 78 -53 78h-487zM248 563v24.5t10 24.5q0 -8 -7 -34.5t13 -20.5q2 4 6 7t9 9v0v2q6 4 10 21.5t6 28.5v47v20l1 1t3 1 q10 -29 12 -32q10 4 23 45h1h3v-1v-1q-6 -29 -10 -56.5t12 -52.5h-1h-1q-12 14 -12 49q2 31 2 33q-2 -4 -3 -7t-1 -5h-1h-1v-3v-1q-2 0 -7 -5q-10 4 -16 27q0 -31 -2 -62.5t-21 -56.5v-1v-1q-18 -16 -28 0zM348 616q0 29 12 31q10 -2 9.5 -12t3.5 -17q2 10 0 21h1h3v-2v-2 q2 0 4 2q0 -4 1 -7l1 -3q8 0 8 8h1h1q2 8 7.5 23.5t0.5 25.5q-12 -6 -14 -8q-2 2 -2 4q4 0 8 3t10 5q2 4 3 14h1h3v-7v-5q18 8 47 19l1 -2l1 -2q-12 -6 -24.5 -10.5t-24.5 -8.5q-2 -12 -5.5 -30.5t7.5 -26.5q8 0 8 16.5v22.5q4 2 8 -4q10 2 16 14h1h1v-6v-4h-1h-1 q0 -33 5 -35q14 2 12 29q2 6 2 18q10 2 12 2q2 -12 -2 -22.5t-2 -16.5q6 -2 14 6v1v1h1h1v35q18 0 15 -2q12 4 14 12h2h2q0 -6 -4 -14q0 -18 6 -27q10 4 10 11q2 0 3 2q0 4 -3 20q8 18 23 6q18 18 25 19l1 -1l1 -1q-16 -12 -23 -17v-3v-1h-1h-1v-24q-8 -6 -18 0 q-10 -25 -23 -9q-2 6 -4 12.5t-2 12.5q-12 -4 -16 -2q0 -43 -27 -39l-4 -4v-3v-1q-20 -16 -27 10q2 6 2 19h-7h-5q0 -8 -2 -26t-16 -9q-4 6 -7 12q-4 -4 -6 -8t-8 -8h-8q-6 -12 -19 -19q-6 2 -12 12zM354 614l1 -2l1 -2q23 2 6 33h-2h-2l-1 -2l-1 -2q0 -6 -1 -12.5t-1 -12.5 zM465 653l1 -1l1 -1q6 14 4 27h-1h-1q-2 -6 -3 -12.5t-1 -12.5zM541 670q2 -2 2 -4q12 2 10 22h-3h-1v-2v0q-4 -4 -6 -4q0 -8 -2 -12zM541 694q6 6 10 0q-4 -4 -8 -6l-1 2t-1 4zM602 612q0 6 1 10.5t1 10.5q4 14 29 39q0 23 1 26l1 4q-20 -14 -17 -8q-6 -4 -8 -5t-4 -1 q-18 6 -14 35t10 41q2 0 2 2q8 20 23 20q14 -20 12 -57v-5v-3q-2 -45 -3 -60.5t-1 -58.5q-23 -23 -33 10zM606 614q2 -12 12 -18l13 6q0 6 1 14.5t1 47.5q-18 -14 -23 -25h-1h-1q0 -6 -1 -12.5t-1 -12.5zM596 709q4 -12 8 -17q14 6 14 10q-18 14 -14 56h-1h-1 q-2 -12 -4 -24.5t-2 -24.5zM606 727q4 -14 15 -22h1t3 2q6 14 12 38.5t-12 38.5q-18 -4 -18.5 -24.5t-0.5 -32.5zM627 705v-3v0q8 6 8 21q-6 -18 -8 -18zM475 733q-18 0 -33 4q-4 16 9 49h-3h-2q-12 -6 -40.5 -17t-28.5 15q6 6 18.5 16.5t18.5 18.5q0 2 -6 43q-4 14 -9 47 q-6 18 -12 30.5t-10 25.5q-6 55 -6 112q4 39 4 43q-14 -25 -19 -43q0 -25 2 -38t-26 -11q-10 20 -8 14q0 8 8 59.5t14 67.5q-2 4 -1 10.5t1 12.5q0 31 3 68.5t36 56.5q-12 16 -12 31q0 14 -2 20q-16 6 -29 10l1 3q1 3 1 5q23 10 27 15q4 14 10 29q27 18 61 -9q6 -18 35 -32 v-5v-2q-14 -8 -22 -10q0 -10 2 -19.5t4 -17.5q23 -6 28 -16q14 -6 27.5 -25.5t22.5 -31.5v-11.5v-11.5q12 -37 20 -86q4 -12 2 -22.5t2 -20.5q0 -18 -3 -33.5t3 -29.5q0 -45 -33 -37q-12 8 -12 32q-4 -27 -8 -43q0 -12 1 -23t1 -24q-6 -12 -3 -29.5t5 -29.5q0 -57 -18 -113 q-2 -31 -4 -35q-5 -4 -17 -12zM471 741q6 2 14 11q0 18 5.5 38.5t5.5 40.5q-20 -4 -35 3q0 -39 -2 -58q-10 -18 -10 -33q4 0 10 -1t12 -1zM406 774q4 2 17 7t15 12q2 2 15 8q0 29 -2 43q-2 6 -2 12q-18 -2 -25 -1l-6 1q0 -12 3 -28.5t-11 -22.5q-4 -8 -15 -14v-1v-2 q-8 -4 -10 -12q6 0 10.5 -1t10.5 -1zM487 836q2 0 5.5 1t7.5 3q0 4 1 10t3 12q-2 20 -5 45t3 45v19.5v19.5q6 47 18 90q0 20 -6 39q6 0 -39 -12q-2 -14 7.5 -29.5t9.5 -31.5q-12 0 -26.5 22.5t-19.5 34.5q-37 0 -57 6h-3h-1q-12 -53 -4 -100t27 -97q-2 0 -2 -2 q2 -12 5 -26.5t13 -20.5q6 0 10 -1t10 -1q-2 12 -3 34t-3 71q-10 31 -21 63.5t-14 67.5h3h4q14 -74 49 -142v-3v-1q0 -2 -1 -2h-1q-4 0 -6 2t-5 4q0 -31 4.5 -67.5t8.5 -42.5q-1 -4 28 -10zM547 1014q14 10 6 41q-16 2 -25 2v-11.5v-11.5q4 -8 4 -16q2 -2 6.5 -3t8.5 -1z M338 1036v11.5v11.5q2 -2 6 -2q0 -6 1 -10.5t3 -8.5h1h1v17.5v19.5q-12 4 -14 4q-6 -25 -2 -43h1h3zM553 1063q2 94 -21 170h-2v0q-2 31 -4 37q-37 41 -63 57v1v3h-5h-3q-16 -27 -25 -31q18 -23 23 -30q0 -10 -4 -35q-6 -2 -13 -2q0 -2 -18 31q-8 25 -15 24q-2 -10 -6 -38.5 t-20 -22.5q-2 6 -5 12t-3 12q-4 -23 0 -45t10 -41q8 -10 45 -16q-6 10 -12 20.5t-6 22.5q16 4 20 4q18 -35 21.5 -41t5.5 -6q31 8 41 10v1v3h1h1q0 8 -11 35q-8 57 -4 88q6 2 11 2q-12 -41 2 -85t28 -79q6 -20 10 -51l-1 -1l-1 -1v-3v-3q15 0 23 -2zM479 1067q-2 6 -14 39 q-4 -2 -12 -2q4 -10 12 -18.5t10 -16.5h1h3v-2v0zM350 1085q8 25 10 37q10 4 11 33q-8 23 -9.5 49.5t-1.5 50.5q4 6 13.5 23.5t15.5 19.5v4v7q-12 -4 -16 -13h-1h-1q-10 -16 -11.5 -22t-5.5 -17q-4 -66 0 -59q0 -25 -12 -65q-2 -12 -3 -22.5t-1 -20.5q10 -3 12 -5zM451 1112 q33 6 40 8t19 8q0 6 -4 13.5t-4 13.5q-63 -23 -121 -2q0 -29 4 -31t31 -6q8 -2 17.5 -3t17.5 -1zM444 1149q-10 23 -20 39q-6 0 -10 -2q12 -25 18 -35q2 0 5 -1t7 -1zM383 1241q12 23 10 49q-26 -16 -10 -49zM442 1243q2 41 -22 51q0 -8 16 -45h1h1q0 -2 1 -4t3 -2z M410 1298q27 16 34 35q-2 0 -4 -1l-2 -1q-8 -29 -41 -22q2 -4 2 -11h4.5h6.5zM412 1315q6 6 16 18.5t23 9.5q-6 25 -7 25q-14 -4 -65 0q-4 -20 3 -39.5t30 -13.5zM436 1374q20 8 27 12v0v3q-6 0 -11.5 3t-9.5 5q-12 31 -55 28q-2 -6 -4 -14t-2 -14q-16 -8 -23 -11v-3v-1 q18 -6 38 -7t40 -1zM379 555h-1h-1h-1t-1 2v0v2q0 2 2 4v1v3l-1 1l-1 1h-1h-1h-1t-1 2l1 1l1 1h1h1q0 4 2 5q2 2 4 2h1h3t2 -2v-2q0 -1 2 -1l-1 -1l-1 -1l-1 1l-1 1h-3h-1v0v0h-1h-1v-2v0h1h1h1h1v0h2v-2v0v0v0v-1v-1h-1h-1h-1h-1h-1h-1v-1v-1v0h2v-1v-1h-1h-1v-1v-1v-3v-1 v0v0v-1v-1q2 0 2 -2h-1h-1zM399 555q-6 0 -6 4v2v4v2v2q2 0 2 -2v-1v-1v0v0v-3v-1v-1v-1v0v0v-1v-1h1h1q0 2 2 2v-2v2h1h1v1v1v1v1v1v1v1v3h1h4v-1v-1v-3v-1v-2v-2v-1v-1v0v0q0 -2 -3 -2v0v0h-3h-1zM420 555h-2v0q-2 0 -4 2h-1t-1 2v1v1q2 2 0 6q0 4 4 4h1h1v0h2v0v0v0h2h1 h1v0h2q-2 -2 0 -2v-1v-1v0v0l1 -1l1 -1v-1v-1l-1 -1l-1 -1v0v0h-2v0h-2v0h-2v0q0 2 -2 0v0v2v1v1v0h2v0h2h1h1v0v0v0v2v0v0h-3h-1h-1h-1h-2v0v0h-1h-1v-2v0h1h1v0v0v-1t2 -1q0 -2 -1 -2h-1l-1 -1l-1 -1v0h2v-3v-1v2h1h1h1h1l1 1t3 1v0h2v0h2v-1v-1h-1h-1q0 -2 -2 -2h-2h-2z M436 555q-2 0 -2 4v4v4v1v1q0 2 2 2h1h1q0 4 4 0v0h2v0v0q2 0 5 -2q0 -2 2 -4v0v0h-1h-1v-1v-1v0h2v-2v0h-1h-1v0v0v-1t2 -1v-1v-1h-1h-1v-2v0q-2 0 -3 2v1v1v1v3v0v2l-1 1l-1 1v0v0q-2 0 -3 1l-1 1l-1 -1l-1 -1v0v0v0v0q-2 0 -2 -1v-1v-3v-1v-3v-1v-2v0zM465 555v1v1h-2v0 q-2 0 -2 1v1q-2 0 -2 4h-2v0l1 1l1 1v0v2v1v1v1v1h-1h-1q-4 0 -4 2l4 5q0 -2 1 -2.5t1 2.5v1v1v1v1q0 2 4 2v-1v-1v-2v0v-2v0q0 -2 2 0l1 -2l1 -1h1h1v-1v-1q0 -2 -2 0v-2v0h-2v0v0v0q-2 0 -2 -1v-1v-2v-2q-2 -2 -1 -2h1v-3v-1l1 1t3 1l1 1l1 1q2 2 2 0v-2v-2q0 -2 -1 -2h-1 q0 2 -2 0l-1 -1zM469 559l1 1l1 1h-2v0v-1v-1zM483 555h-1h-1q-2 0 -4 2h-1t-1 2v1v1q2 2 2 6q-4 4 2 4h1h1v0h2v0v0v0h2h1h1v0h2v-2v0v-1v-1h1h2v-1v-1v-1v-1v-1v-1h-2h-1h-2v0h-1h-1h-2v0v0v0q-2 0 -2 2v1v1h1h1h1h1h1h1v0v0v0v2v0v0h-1h-1h-2v0h-2v0h-2v0v0v0q-2 -2 0 -2 v0v0v0v0l1 -1l1 -1q0 -2 -2 -2v-1v-1q-2 0 -1 0h1v-3v-1l1 1l1 1v0v0h1h1l2 1l2 1v0h2h1h2v-1v-1v0v0q0 -2 -5 -2h-3h-1zM506 557h-1h-1h-3h-1l-1 1t-1 3v1v1l1 -1l1 -1h1h3h1h3q0 2 -2 4h-3h-1q-4 0 -4 2v2l1 2l1 2h2h4q4 0 4 -2h1h1q-2 -2 0 -2v0v0l-1 -1l-1 -1v-1v-1 l1 -1l1 -1v0v0q0 -2 -2 -2v-2v0q0 -2 -4 -2v0v0zM506 567q2 0 2 2h-1h-1q-2 0 -4 2v-1v-1h-2h2v-1v-1v0h2v0h2v0v0z" unicode="="/><glyph d="M872 1069q12 -2 23.5 -5t24.5 -3q0 -6 15 -26.5t7 -57.5q-4 -18 -32.5 -51t-24.5 -52q-20 -6 -33.5 -12t-63.5 -20q-92 -37 -146 -55.5t-144 -30.5q-33 -8 -65 -24.5t-62 -29.5q-8 -12 -13 -16q-55 -55 -120.5 -87t-135.5 -56q-2 -4 -60 -26.5t-60 -24.5 q-39 -16 -46.5 -18.5t-13.5 -2.5q72 102 83 120.5t15 26.5q41 8 47.5 26t34.5 48q6 18 35 27.5t35 28.5q84 61 140.5 109t133.5 120q4 39 -38 67q-18 0 -27 3q-47 82 -59.5 110.5t-51.5 42.5q-2 8 -48 42t-48 42q-33 4 -42 31.5t-36 46.5q0 12 -4 33q37 4 53.5 -20.5 t53.5 -20.5q8 -2 68.5 -36t121.5 -65q74 -31 101.5 -35t107.5 -40q104 -49 149 -56.5t125 -52.5z" horiz-adv-x="909" unicode="&gt;"/><glyph d="M61 492q-4 4 -6 8q6 16 17.5 30.5t17.5 32.5q-10 16 -27 53q8 43 48 91q16 12 86.5 31.5t95.5 17.5l24 -17l33 -49l-26 -39l36 2q-10 -20 -21 -39.5t-38 -42.5l-8 -16q-4 -6 -7 -16.5t-5 -16.5q-4 -6 -31 -29.5t-29 -29.5q-4 -6 -42 -6t-40 -4zM582 1325q12 55 27.5 89 t4.5 59q-4 100 -69 186q-66 72 -75 102.5t-114 32.5q-2 -6 -20.5 -29.5t-38.5 -50.5q-55 -72 -57 -82l-52 -12l-6 80l-55 8q16 43 37.5 120t71.5 89l3 27q3 26 70 43q12 0 27.5 2t30.5 4q63 -2 53 4t41 -31q18 -35 67.5 -65.5t67.5 -61.5q33 -55 45 -60t49 -55q0 2 31 -51 t33 -49q37 -82 23.5 -97.5t0.5 -82.5q-6 -61 -19.5 -68.5t-39.5 -99.5q-6 -23 -11.5 -43.5t-9.5 -40.5q0 -16 -45 -65.5t-45 -65.5q-8 -16 -52 -9t-50 -8q-37 -10 -66 -12q-6 -10 -9 -19t-7 -18q-2 0 -27.5 -56t-27.5 -56q-12 12 -42 10t-30 29q-6 2 -15.5 8t-13.5 10 q-2 23 -1 37t1 39q-8 0 8.5 28.5t22.5 45.5q-2 12 16.5 40.5t14.5 34.5q8 63 78 56q45 27 86 49t88 55z" horiz-adv-x="733" unicode="?"/><glyph d="M1348 365q-4 0 -27 -4.5t-25 -4.5q-25 70 -37 94.5t-51 49.5h-31.5h-29.5q-6 -12 -12.5 -20.5t-36.5 -49.5q-59 -55 -221 -110.5t-340 -51.5q-4 0 -53 52l-48 51q-6 14 -12 29.5t-12 31.5q-18 74 -4 145.5t41 139.5q31 29 62.5 58.5t61.5 60.5q113 117 215.5 244.5 t206.5 256.5q25 -4 50.5 -14t52.5 -10q45 37 67 57q66 2 148 -33q27 -25 49 -57.5t22 -69.5q10 4 46 15q72 43 91 86t68 108h4h6q53 -68 138 -86q-2 -53 -9.5 -82.5t-33.5 -74.5q-27 -37 -19 -16.5t-22 -14.5q-6 -18 -22.5 -52t-16.5 -51q-27 -61 -65 -117.5t-83 -172.5 q74 6 96.5 4t106.5 -15q6 -8 81 -60t85 -60q141 125 113.5 286.5t-27.5 272.5q-6 59 -16.5 107t-46.5 91q-18 59 -98.5 105.5t-180.5 85.5q-57 45 -71.5 61.5t-19.5 20.5t-15.5 6t-59.5 22q-160 174 -335 141.5t-349 -124.5q-55 -25 -134 -59.5t-108 -84.5q-43 -29 -57 -95 t-23.5 -143t-23.5 -150.5t-55 -114.5q2 -4 -17.5 -109.5t-42 -238t-37 -254t-2.5 -154.5q14 -104 66.5 -156.5t132.5 -118.5q49 -31 134 -85t143 -54q55 -25 198.5 17.5t239.5 97.5q70 12 85 9t14 -6t1 0t49 28q2 -2 61.5 31.5t131 73.5t131 73t63.5 33q0 2 -16 -10.5 t-4 -16.5t77.5 12.5t229.5 75.5q20 -10 48 -22.5t75 -79.5q-6 -25 -17.5 -62t-17.5 -59q-31 8 -138.5 -13.5t-135.5 -11.5q-94 -37 -136 -55.5t-75 -33.5t-78 -31.5t-145 -47.5q-53 -18 -141.5 -51t-181.5 -66.5t-174 -59.5t-114 -32q-80 12 -151.5 34t-171.5 124q4 0 7 1 t7 1q-61 41 -122.5 65.5t-125.5 59.5q-113 86 -129 184.5t-22 270.5q8 8 33.5 79.5t21.5 143.5q25 88 21.5 178t11.5 182q68 195 74 338.5t100 343.5q82 92 237.5 149.5t274.5 123.5q37 20 89 30.5t91 34.5q74 6 195.5 -17.5t218.5 -86.5q6 -12 46 -51t109 -58 q84 -59 103.5 -71.5t26 -15.5t25.5 -15t105 -70q92 -59 136.5 -71.5t95.5 -59.5q39 -68 46 -68.5t-9 -142.5q-4 2 -11 8q12 -147 37 -286q16 -70 39 -170q-16 -72 -44.5 -139.5t-82.5 -116.5q-31 -47 -71.5 -72t-112.5 -72q-100 -8 -158.5 46.5t-107.5 78.5 q-119 -18 -150.5 -32t-68.5 -168zM928 766v21.5v23.5q74 55 137 116.5t63 159.5q-59 18 -118 19q-84 -100 -187 -234q-61 -92 -128.5 -214.5t-39.5 -239.5q43 0 92.5 16.5t92.5 24.5q0 10 2 21.5t4 23.5q84 43 164 94t90 158q-18 -10 -37 -22.5t-37 -12.5q-6 6 -27 45h-35.5 h-35.5z" horiz-adv-x="2084" unicode="@"/><glyph d="M1192 598q-86 37 -213 -102.5t-213 -194.5q-2 0 -5 1l-3 1q6 31 16 60.5t10 64.5q-10 4 -22 8q-2 25 -4 50.5t-2 52.5h-30.5h-29.5q-6 -12 -11 -20.5t-34 -47.5q-98 -94 -120.5 -115.5t-55.5 -56.5q-14 -2 -56 -9t-48 -14q-23 -2 -40.5 -2h-103.5q-4 8 -8 18.5t-6 22.5 q-51 6 -102.5 29t-75.5 72q-2 0 -3 1l-1 1q-6 12 -12.5 27.5t-12.5 29.5q-12 68 -1 135.5t38 130.5q29 27 57.5 54.5t59.5 56.5q104 111 200.5 230.5t192.5 240.5q25 -4 48.5 -14.5t49.5 -8.5q14 12 29.5 25.5t32.5 26.5q61 4 137 -29q68 -53 68 -119q29 8 45 13 q68 41 101.5 111.5t80.5 131.5h4h4q49 -61 129 -80q0 -82 -39 -147q-27 -37 -36 -48l-36 -44q-6 -14 -21 -47t-15 -47q-25 -59 -36.5 -90t-54.5 -142q106 2 177 37q18 10 53 7t51 -7zM492 786v20.5v22.5q68 51 127 109.5t59 151.5q-55 16 -111 16q-43 -55 -87 -109.5 t-87 -107.5q-59 -86 -120.5 -202t-36.5 -226q39 0 85 15.5t87 23.5q2 25 8 41q78 39 152.5 88t84.5 149q-16 -10 -34.5 -21.5t-34.5 -11.5q-16 23 -27 41h-32.5h-32.5z" horiz-adv-x="1161" unicode="A"/><glyph d="M868 2146q0 -2 3 -4t8 -4q-2 -2 -2 -6q16 -25 26 -35q-4 -8 -14 -41q25 -20 37 -28q18 -8 29.5 -9.5t19.5 -3.5q-2 -49 -12.5 -87t-10.5 -62q-8 -14 -54 -85t-42 -85q-33 -55 -42 -105.5t-36 -105.5q0 -6 -11 -28.5t-11 -24.5q-18 -33 -41 -73t-64 -126q10 -6 66.5 13.5 t68.5 13.5q82 41 75 29.5t83 8.5q37 -49 38 -49t54 -75q33 -49 55.5 -92.5t67.5 -172.5q-6 0 -15 -146.5t-87 -277.5q-31 -63 -138.5 -101t-236.5 -69q-78 37 -125 51.5t-113 143.5q-6 18 -57 75.5t-76 76.5q-51 -31 -106 -116t-92 -110q-41 68 -60.5 64t-62.5 63 q49 53 77.5 179t79.5 182q8 6 16.5 11t18.5 11q80 41 96.5 50.5t20.5 11.5q6 6 12 15t13 17q0 4 3 19.5t13 91.5q72 119 139.5 246t134.5 250q-2 2 59.5 119.5t61.5 121.5q74 141 88.5 171t28.5 57v4v6q4 4 16 20zM594 997q-8 -10 8 -95t10 -93q-47 -49 -93 -56.5t67 -136.5 q43 -20 70.5 -44.5t117.5 -24.5q70 43 88.5 57t61.5 80q-4 12 0 51t16 60q0 2 5 54t5 56q18 25 -12.5 126.5t-60.5 125.5q-39 18 -71 0t-99 -59q-37 -14 -69 -50.5t-44 -50.5z" horiz-adv-x="1138" unicode="B"/><glyph d="M731 643q-4 -6 -43 -31.5t-59 -52.5q-96 -92 -118 -112.5t-52 -53.5q-14 -4 -55.5 -10t-45.5 -12q-23 -2 -40 -3t-99 -1q-8 29 -12 41q-51 6 -100.5 26.5t-71.5 69.5q-2 2 -6 2q-6 18 -23 55q-20 115 35 258q29 25 56.5 52.5t56.5 54.5q102 106 195 222l186 232 q25 -4 47 -13t47 -9q14 12 28.5 25.5t30.5 25.5q53 2 133 -29q23 -20 71 -105t54 -116l-12 -37l-53 -59l-60 20l15 -47q-29 6 -58.5 14.5t-66.5 34.5q-31 10 -81 20.5t-81 10.5q-43 -55 -85 -79.5t-85 -75.5q-55 -84 -115.5 -196t-36.5 -218q37 0 82 15.5t84 23.5q6 37 8 39 q45 31 122 62.5t114 74.5l22 -31h50l51 -37z" unicode="C"/><glyph d="M823 371q-57 57 -71.5 112.5t-22.5 134.5q-68 0 -120 -25.5t-109 -51.5q-109 -12 -219.5 10t-190.5 98q-86 109 -82 234q14 25 29.5 51.5t32.5 52.5q78 111 202 178q37 12 74 26.5t74 29.5q51 94 112.5 147t161.5 94q31 6 65 18.5t68 12.5q12 12 114.5 14t125.5 -8 q4 -16 12 -26q8 4 23 4q6 -55 20.5 -110.5t20.5 -109.5q14 -6 47 -18q0 14 2 21q123 203 270 413q57 92 114.5 185.5t115.5 185.5q18 -6 31.5 -12.5t72.5 -36.5q6 -29 10 -59.5t9 -59.5l36 -6q-147 -201 -287.5 -402.5t-269.5 -414.5q-55 -66 -111.5 -131.5t-103.5 -137.5 q-18 -31 -38.5 -66.5t-26.5 -72.5q-16 -14 -22.5 -69.5t-6.5 -67.5v-58.5v-58.5q-57 4 -88 4q-4 -4 -23.5 -8t-50.5 -16zM854 1274q-4 8 -4 10q-59 29 -130 1t-137.5 -81t-120.5 -115.5t-81 -103.5q-25 -51 -29 -60.5t-4 -15.5q-14 -14 -13 -51t3 -55q2 -4 4 -9.5t14 -33.5 q16 -4 43 7t43 17q2 2 38 8.5t38 10.5q37 0 68.5 -1t58.5 27q27 14 56.5 24.5t60.5 23.5v38.5v40.5q-10 6 -31 15q-8 16 -18.5 40.5t2.5 43.5q20 16 59 43.5t78 58.5q0 16 1 32.5t1 35.5v24.5v24.5zM762 877v38.5v40.5h1h3v-40.5v-38.5h-2h-2z" horiz-adv-x="1275" unicode="D"/><glyph d="M791 584q-4 -6 -10.5 -29t-28.5 -53q-115 -37 -173.5 -87t-91.5 -87q-14 -4 -58 -11.5t-50 -11.5q-23 -4 -44.5 16.5t-109.5 20.5q-6 10 -24.5 -7.5t-22.5 -4.5q-53 6 -75.5 38.5t-47.5 86.5q-2 0 -16 -2l-14 -2q-6 14 -4 46.5t-5 49.5q-16 70 -0.5 131t41.5 129 q31 29 51.5 47t51.5 49q10 10 -2.5 12.5t-18.5 18.5q-6 12 17.5 46t29.5 42q16 18 71.5 35.5t74.5 36.5q72 82 121 147.5t116 151.5q25 -4 49.5 4t53.5 8q14 12 35.5 -10.5t37.5 -8.5q37 2 68 -15t66 -32l79 -170l68 -198l-41 -135h-6l-49 -54h-164l-100 45l-185 37 l-135 -18q-55 -86 -93 -171t-15 -179q41 0 86 23.5t88 31.5q0 10 44 31.5t54 27.5q49 35 58.5 20.5t45.5 31.5l91 32h51l57 -41zM801 1141q-61 63 -72.5 92t-64.5 29q-61 -33 -64 -111q-8 -78 16.5 -78t65.5 -49q33 4 50.5 -8t41.5 4q39 25 45.5 42.5t-18.5 78.5z" horiz-adv-x="997" unicode="E"/><glyph d="M1114 2050h3h5q10 -68 20.5 -132.5t22.5 -129.5q-2 -10 -2 -29q-20 -49 -37.5 -104.5t-40.5 -100.5q-61 -6 -100 -24.5t-94 -48.5q-31 -12 -70 -25q2 53 17.5 79t50.5 71q0 37 -2 75.5t-2 79.5h-5h-6q-111 -117 -177 -258t-134 -284q2 -16 28.5 -23.5t39.5 4.5 q86 14 168 63.5t157 94.5q37 0 50.5 -4t50.5 2q0 -6 -3 -20.5t1 -24.5q-66 -61 -77 -71.5t-77 -8.5q-41 -27 -49 -34t-12 -7q-12 -45 -21.5 -62.5t-44.5 -44.5q-111 -25 -215 -62.5t-209 -74.5q-33 -86 -61.5 -175t-57.5 -175q-43 -41 -80.5 -80t-70.5 -88 q-8 -20 -17.5 -39.5t-15.5 -38.5q-8 -37 -15 -70.5t-14 -68.5q-8 -6 -43.5 -19.5t-78.5 -29.5q-20 -16 -31 -17q-2 6 -5 12.5t-7 12.5h-25.5h-28.5q-8 -18 -17 -34.5t-20 -33.5v20.5v20.5q18 129 82 247t101 241q74 160 153.5 308t153.5 306q33 10 80 39q86 74 135 168 t102 195q16 23 31.5 46t34.5 48q18 16 49 46t31 56q25 4 39 4q25 53 32 64.5t19 30.5q43 41 86 48t102 13q31 12 60.5 25.5t60.5 21.5z" horiz-adv-x="845" unicode="F"/><glyph d="M827 1151q18 8 43 21.5t101 7.5q12 -18 31.5 -48t33.5 -47q-25 -18 -31 -33.5t-28 -29.5q-10 -8 -40 -70.5t-32 -126.5q-33 -80 -56.5 -159.5t-43.5 -159.5q-106 -223 -191 -432q-35 -92 -63.5 -179.5t-61.5 -142.5q-53 -47 -98 -63.5t-174 -30.5q0 4 4 12 q-63 -20 -124.5 -42.5t-121.5 -47.5q-35 -16 -70.5 -31.5t-72.5 -33.5q-66 0 -130 13t-122 50q-10 12 -20.5 21.5t-22.5 19.5v4v2q-35 41 -37 94.5t11 102.5q-6 6 -15.5 13t-17.5 13q33 80 40 95.5t15 33.5q6 4 28.5 38t28.5 46q43 16 71 28.5t146 68.5q35 8 74 35.5 t45 27.5l58 10l16 -63l-18 -45l18 -33q-49 -18 -107.5 -76.5t-105.5 -91.5q-2 -2 -41 8q-20 -33 -51 -68.5t-45 -72.5q92 -61 218 -46t220 34q53 18 140 47t120 67q49 29 100.5 153t67.5 222q61 117 55 94.5t13 73.5q2 2 5 27.5t9 30.5q-12 6 -21.5 14t-17.5 14 q-47 -27 -100 -44t-99 -42q-8 12 -10 23q-12 0 -26 -6q-20 12 -74.5 95t-50.5 103q-18 25 -19.5 60.5t-9.5 66.5q-23 102 -15.5 113.5t17.5 105.5q-10 37 -7 93.5t-3 93.5q-6 72 19.5 135t49.5 131q12 25 56.5 46.5t56.5 47.5q55 37 96 32t109 -9q61 -29 96 -50.5t96 -101.5 q8 -63 28.5 -137t57.5 -125zM389 745q10 6 19.5 12.5t21.5 12.5q23 14 53 39q4 45 5 92t6 74q6 16 31.5 21t43.5 10q16 -12 27 -17q16 10 31.5 20.5t34.5 22.5q-8 29 -15.5 58.5t-7.5 60.5q6 35 -11.5 59.5t-35.5 55.5q0 4 -14.5 35.5t-12.5 35.5q-10 25 -22.5 39.5 t-48.5 36.5q-16 -10 -46 -28.5t-34 -36.5q-6 -4 -11.5 -12.5t-31.5 -55.5q-37 -88 -70 -281.5t78 -257.5q2 0 4 1zM662 1032q-18 -12 -34 -22.5t-32 -20.5q0 -2 1 -3l1 -1q16 10 31.5 20.5t34.5 22.5l-1 1t-1 3z" horiz-adv-x="909" unicode="G"/><glyph d="M801 2050q4 -4 8 -6q0 -4 -2 -6q8 -14 27 -35q-8 -16 -15 -39q14 -10 35 -27q18 -6 28.5 -8t16.5 -4q0 -47 -10 -82t-10 -57q-6 -14 -50.5 -81t-40.5 -81q-31 -53 -40 -99t-33 -100q0 -4 -10.5 -25.5t-10.5 -25.5q-18 -31 -66 -106.5t-85 -155.5q8 -4 88 51.5t92 48.5 q78 37 127 38t133 20q25 27 82 94.5t82 -6.5l35 -111q43 -45 -11.5 -141t-97.5 -223q-4 0 -52 -95.5t-24 -132.5q-25 -49 -57.5 -93t-67.5 -103l-122 4l-35 29q-35 30 -35 32q27 68 27 78t36 72q-2 12 21.5 50t36.5 56q-2 4 26.5 53.5t28.5 53.5q-6 31 51.5 93t28.5 85 q-37 16 -119 -20.5t-137 -45.5q-92 -20 -128 -50.5t-114 -76.5q-43 -49 -62.5 -74.5t-41.5 -92.5q-27 -18 -61.5 -104.5t-55.5 -127.5q-16 -33 -50 -41t-48 -18q-39 66 -75 72t-73 69q45 49 72 169t76 171q12 10 33 20q76 39 91 48.5t19 11.5q6 6 12.5 14t12.5 17q-2 2 1 17 t11 87q68 113 132.5 232.5t127.5 236.5q0 2 57.5 112.5t57.5 114.5q70 133 83 162t29 53q-4 4 0 9q13 18 15 20z" horiz-adv-x="1161" unicode="H"/><glyph d="M432 1556q-4 4 -6 9q6 16 16.5 31.5t14.5 33.5q-8 12 -15.5 24.5t-13.5 26.5q4 39 41 93q16 12 86 35.5t94 23.5l27 -14l35 -50l-25 -38l37 4l-20.5 -41t-34.5 -45q-2 -4 -4 -7.5t-5 -9.5q-2 -6 -5 -16t-5 -17q-2 -6 -27.5 -30.5t-27.5 -30.5q-4 -6 -42 -9t-38 -7z M424 668q-135 -4 -160.5 -62.5t-105.5 -109.5q-2 0 -33 -39l-31 -39q-14 12 -28.5 11t-16.5 32q-6 0 -15 6t-14 8q-4 25 4.5 40t8.5 40q-12 0 -23.5 7t-23.5 7l26 133l49 84l58 129l33 127q8 2 33.5 64.5t35.5 64.5q23 41 66 105.5t88 122.5q4 0 6 -2q49 -59 121 -74 q-2 -47 -8.5 -72.5t-28.5 -64.5q-25 -33 -34 -43t-34 -41q-6 -14 -19 -45t-13 -43q-25 -55 -35.5 -84t-48.5 -131q43 0 75.5 1t73.5 19q8 6 61.5 2t69.5 -8q25 -8 14.5 -15t-18.5 -24l-27 -55z" horiz-adv-x="479" unicode="I"/><glyph d="M819 1753q0 -2 2 -5t4 -3q-8 -14 -18 -27.5t-12 -27.5q6 -12 11 -23.5t11 -21.5q-8 -41 -41 -80q-16 -12 -78.5 -29.5t-81.5 -13.5l-20 14l-29 43l23 35l-33 -2q8 16 17.5 33.5t33.5 37.5q4 4 8 13q2 4 5.5 14t7.5 16q0 4 23.5 23.5t27.5 26.5q2 6 35 5t35 5zM610 1231 q2 -25 13 -35q-25 -45 -44.5 -95t-41.5 -93l-78 -183q-2 0 -29 -51q-25 -31 -64.5 -107.5t-80.5 -165.5t-75 -172t-48 -126q-16 -20 -40 -61.5t-22 -67.5q2 -55 -34.5 -72.5t-61.5 -73.5q-25 -10 -33 -27.5t-16 -33.5q-23 -4 -28 -4t-62 -10q-74 8 -74 6t-102 -64 q-35 -2 -71 -15t-73 -22q-4 -4 -103 0t-104 -2l-14 66q0 14 140.5 34.5t267.5 114.5q104 86 165.5 148.5t110.5 191.5q39 53 65.5 118t67.5 118q39 92 83 184t91 184l-1 1l-1 2l23 118q41 88 62.5 147.5t88.5 133.5l44 49t47 49q10 -12 22 -12t12 -27q4 -2 12.5 -8t14.5 -6 q0 -20 -1 -34.5t-1 -33.5q6 0 -8.5 -25.5t-18.5 -37.5z" horiz-adv-x="630" unicode="J"/><glyph d="M-205 -233q0 4 -2 12t-10 53q-47 0 -72 -2q0 14 -2 34.5t-8 29.5q43 72 87 140t87 138q166 299 237.5 464t106.5 245q14 18 37 57t23 68q-12 4 -23.5 9t-24.5 11q0 4 12.5 21.5t32.5 54.5q6 18 21.5 56t15.5 63q23 2 38.5 5t76.5 9q4 4 8 4q35 61 69 124.5t68 127.5 q33 27 62 53.5t49 63.5q6 0 15.5 1t17.5 3q20 66 48 132l56 132q8 4 35 2q12 -53 21 -139q6 -14 14 -27q29 25 41 27q12 -14 8 -19.5t-4 -19.5q-49 -98 -93 -200.5t-71 -207.5q-2 -8 -3 -17t-1 -18q37 0 76 10.5t76 16.5l16 16q72 45 151.5 63.5t163.5 31.5q2 2 73 12t75 12 q47 6 55 8.5t14 2.5q-104 -98 -122.5 -116t-22.5 -24q-49 0 -81 -3t-68 -30q-33 -39 -50 -71q-109 -47 -210 -100.5t-201 -110.5q-14 -41 26 -84q20 -4 29 -8q29 -68 60.5 -160t107.5 -121v-19.5v-17.5q33 -14 65.5 -28.5t57.5 -40.5q-4 -25 -4 -37q-43 4 -85 9t-85 11 q-10 4 -21.5 13.5t-68.5 58.5q-74 51 -176.5 113.5t-194.5 58.5q-47 -51 -92 -102.5t-90 -100.5q-100 -197 -215 -383t-232 -370z" horiz-adv-x="1224" unicode="K"/><glyph d="M915 2013q-92 -240 -182 -480.5t-201 -467.5q-16 -80 -31.5 -158t-29.5 -155q61 -49 74.5 -77t113.5 -59q86 -20 101.5 -36.5t27.5 -20.5q35 -37 69 -72.5t71 -70.5q-10 -8 -31 -29q-43 2 -89 23.5t-83 46.5q-8 -8 -101.5 6t-99.5 8q-25 2 -52.5 -12.5t-63.5 24.5 q-49 2 -76 -39q-6 -37 -40 -33.5t-89 -15.5q0 2 -89 -4t-89 -4q-37 59 -56.5 75.5t-34.5 41.5q23 16 46.5 56t37.5 63q18 43 25.5 65.5t11.5 28.5q12 -8 25.5 3t28.5 5q57 43 71 106q49 86 151.5 268.5t262.5 551.5q72 195 137 360q12 0 31.5 13.5t34.5 19.5 q12 -18 23 -33.5t24 -32.5q49 25 57 30t14 5z" horiz-adv-x="794" unicode="L"/><glyph d="M811 487q-39 -35 -84 -24q-4 -6 -18.5 6t-16.5 12q-39 -12 -37 26t-39 38q0 37 23 90t18 94q49 82 42 108.5t53 106.5q2 4 2 8q0 12 23.5 38t23.5 32q-2 6 -24.5 -10.5t-55.5 2.5q-6 0 -25.5 -18.5t-25.5 -16.5q-51 6 -95.5 -20.5t-62.5 -26.5q-51 -49 -126 -109.5 t-101 -117.5q-18 -12 -67.5 -108.5t-67.5 -107.5q-41 -12 -78 -22t-76 -10q0 37 -10.5 80t-16.5 84q119 197 266.5 384t241.5 402q18 2 54 -19.5t55 -27.5q0 -98 -46 -135t-71 -127q20 -8 82.5 37t99.5 69q43 74 166 112t193 111q27 20 57.5 18.5t67.5 -1.5q14 -37 14 -58.5 t-4 -46.5q-4 -33 -12 -57q-2 -2 -3 -8q-31 -92 -59 -164q31 16 73 46t66 48q182 129 237.5 168t121.5 55q29 20 59.5 18.5t67.5 -1.5q20 -55 11 -84t-15 -86q-25 -55 -43.5 -100.5t-38.5 -100.5q-4 -23 -14.5 -45t-10.5 -45q106 27 195 88q2 0 8 -4t10 -2l-74 -199 q-121 -53 -188.5 -107t-118.5 -247l-94 -66q-23 -16 -76 21t-63 43q35 90 62.5 162.5t37.5 144.5q10 10 13 35t8 41q0 57 -71 58t-163 -19q-37 -12 -67.5 -48t-63.5 -67q-27 -59 -59.5 -150.5t-69.5 -179.5z" horiz-adv-x="1642" unicode="M"/><glyph d="M1184 866q-123 -55 -207 -144t-152 -200q-18 -16 -51 -24.5t-55 6.5q-51 61 -22.5 149t40.5 162q10 10 15.5 34.5t9.5 41.5q6 18 18.5 33.5t12.5 27.5q-8 53 -111 49q-53 -4 -98 -35.5t-64 -31.5q-51 -51 -128 -112.5t-101 -119.5q-20 -12 -70.5 -110t-68.5 -111 q-41 -12 -79 -22t-77 -10q0 39 -11.5 81.5t-15.5 85.5q121 201 270.5 390.5t245.5 408.5q18 2 54 -19.5t55 -29.5q0 -98 -46 -136t-71 -130q20 -6 84 39t101 69q10 18 77.5 58.5t85.5 54.5q115 80 143.5 79t57.5 38q29 20 59.5 17t67.5 -3q23 -55 13.5 -84t-17.5 -86 q-25 -55 -42 -102t-42 -103q-2 -25 -12.5 -47t-10.5 -45q100 23 197 88q4 2 9 -3t9 -1z" horiz-adv-x="1136" unicode="N"/><glyph d="M553 1413l2 2l2 2q18 6 33.5 9.5t89.5 19.5q4 -10 8 -18.5t10 -16.5q43 4 91.5 -6t78.5 -47h1h3q10 -16 31 -45q25 -57 25 -116.5t-8 -119.5q-23 -29 -43.5 -57.5t-38.5 -56.5q-72 -115 -85.5 -205t-72.5 -209q-25 -2 -94.5 -26.5t-89.5 -28.5q-20 -27 -63.5 -44.5 t-45.5 -21.5q-63 -20 -145 -32.5t-127 46.5l-21 22l-22 23q-10 16 -31 45q-25 55 -26 115t12 121q0 80 128 256t205 330q23 0 44.5 -4t44.5 2q29 37 45 55q26 8 59 6zM223 709q29 -80 81 -79t128 3q29 20 57.5 42.5t71.5 61.5q16 18 43 72.5t41 81.5q20 51 35.5 101 t24.5 118l-52 6l-24 -69q-27 0 -45.5 -28t-48.5 -54q-14 0 -24.5 68.5t-31.5 68.5q-53 -41 -103 -67.5t-77 -80.5q-20 -53 -45 -117.5t-31 -127.5z" unicode="O"/><glyph d="M0 -217v11v11q0 2 4 7q0 27 6 55.5t27 163.5q2 2 19.5 116.5t21.5 116.5q14 121 31.5 246t29.5 248q31 55 37 68.5t10 17.5v17v18q-4 2 -10 17t-41 87q-6 12 -14 33q-8 63 -16.5 127.5t-14.5 128.5q16 6 33.5 38.5t34.5 39.5q49 18 96 12t96 16q12 -37 19.5 -58.5 t27.5 -70.5q14 0 39 13q55 86 128 157.5t157 132.5q25 16 47 17q57 -35 125 -45q43 25 78 20q31 -18 46 -28.5t77 -51.5q2 -18 5 -26t9 -37q4 -37 5 -44t5 -9q0 -35 4 -105q-68 -123 -126 -251t-119 -251q-35 -55 -79 -103t-91 -91q-76 -55 -147 -76.5t-157 31.5h-22h-21 q-16 -84 -20 -104.5t-8 -51.5q-4 -2 -8.5 -24.5t-4.5 -24.5q-10 -55 -23 -112.5t-20 -112.5q-10 -12 -14 -46l-6 -51q-12 -18 -51 -68t-64 -87q-6 2 -15 7t-26 9h-21h-20q-8 -25 -10 -37q-10 -2 -19.5 -5t-17.5 -7l-4 -4h-4h-4zM489 950q0 -18 7.5 -39.5t27.5 -27.5 q23 33 22 62.5t-1 72.5q6 -4 28 -29q31 -16 65 -12t69 6q-23 -25 -30 -35t-32 -43q-23 -47 -28 -77.5t-7 -84.5q57 0 90 19.5t70 68.5q23 49 27 57.5t4 14.5q0 2 4 16.5t8 18.5q0 18 7 66.5t18 56.5q4 66 5 92.5t7 120.5v23.5v23.5q-2 10 -3 19.5t-1 21.5 q-109 -18 -213.5 -73.5t-130.5 -172.5q-16 -16 -14.5 -60t1.5 -63v-22.5v-20.5zM489 993v-22v-21v5v38z" horiz-adv-x="1009" unicode="P"/><glyph d="M805 1163q45 -18 56 -16t85 -4q25 -35 33 -107q16 -31 -10.5 -48t-36.5 -60q-20 -35 -28.5 -49.5t-10.5 -77.5q-31 -76 -81 -186.5t-71 -190.5q-47 -96 -73.5 -199.5t-59.5 -204.5q10 2 32 4.5t24 2.5q29 -4 38 -6.5t39 -2.5q6 -16 21 -45q-25 -20 -39 -28 q10 -33 15 -58.5t-7 -56.5q-23 -25 -49.5 -29t-56.5 -6h-53.5t-49.5 -4q-12 -4 -16 -6q-10 -23 -21 -39q-53 -47 -56 -71.5t-21 -67.5q-61 -100 -151.5 -41t-88.5 59q37 55 68.5 103.5t58.5 87.5q-4 2 -12 10q-104 6 -205 17.5t-199 35.5q-2 2 -10 6q27 14 53.5 27.5 t50.5 26.5q23 8 31 14q41 16 80 21.5t84 7.5q4 6 8 18q10 4 14 2q45 6 91.5 3t93.5 3q33 55 79 112.5t58 135.5q25 66 27 93.5t2 80.5q2 2 5 27.5t9 29.5q-33 23 -39 29q-45 -27 -54 -50.5t-54 -47.5q-6 8 -33 11t-27 9q-12 2 -26 -4q-20 12 -73.5 94t-49.5 101 q-18 25 -18.5 59.5t-10.5 65.5q-23 100 -43.5 107t-9.5 100q-8 37 1 98t3 98q-6 70 40 130.5t70 127.5q12 25 55.5 45.5t55.5 46.5q55 37 95 32t108 -9q59 -29 93 -49.5t95 -100.5q8 -61 21.5 -113.5t50.5 -103.5zM414 723q10 6 19 1t22 1q12 8 -10.5 31.5t-8.5 34.5 q4 45 -8 58t-8 40q6 16 49 3t61 -9q6 -6 19.5 -32t58.5 -69q35 98 43 94t2 103q6 35 -22.5 130t-46.5 126q0 4 -13.5 36t-11.5 36q-10 25 -21.5 38t-48.5 35q-16 -8 -45.5 -27.5t-33.5 -37.5q-4 -4 -9.5 -12.5t-31.5 -53.5q-37 -86 -70 -277.5t78 -252.5l17 1q16 1 20 3z" horiz-adv-x="921" unicode="Q"/><glyph d="M799 1147q-8 4 -50 -45t-57 -49q-55 0 -98 -34t-62 -36q-45 -57 -115.5 -130t-88.5 -136q-18 -14 -56.5 -122t-56.5 -120q-39 -18 -77 -33.5t-81 -21.5q-6 41 -22.5 83t-26.5 85q98 221 227.5 435t198.5 450q18 6 58 -11.5t61 -23.5q12 -100 15 -61.5t-11 -59.5 q23 -4 58.5 8t78.5 25q8 20 63.5 45.5t73.5 44.5q57 12 72 -2.5t21 -14.5q25 4 110 -75q4 -4 -9 -81t-54 -79q-31 4 -66.5 -37t-105.5 -4z" horiz-adv-x="858" unicode="R"/><glyph d="M197 868q6 2 3 18.5t29 37.5q2 2 38 48t40 52q80 92 104.5 87t59.5 83q18 10 56 102.5t55 104.5q35 12 68.5 23.5t72.5 15.5q2 -37 35 -48.5t39 -48.5l8 -20l8 -20q6 -12 31.5 -53.5t32.5 -51.5q45 -72 33.5 -146.5t9.5 -123.5q6 -61 -2.5 -100.5t-34.5 -137.5l-4 4t-2 6 q-41 -119 -68 -213q-6 -33 -14.5 -65.5t-14.5 -63.5q-35 -45 -48 -82.5t-68 -56.5q-33 -4 -50 -8q0 4 -4 4q-45 -4 -83 22.5t-62 61.5q-14 -6 -35 -8q-37 59 -45 71.5t-14 30.5q2 6 -11.5 38t-15.5 44q10 37 9 14.5t24 88.5q10 27 12 65.5t6 44.5l23 45l51 -22l20 -35l33 -4 q-16 -43 1.5 -65.5t15.5 -71.5q0 -2 -27 -23q12 -31 19.5 -71t25.5 -66q88 29 114.5 121t63.5 170q16 43 -16.5 93t-22.5 93q8 51 -10 58.5t-43 84.5q-29 -29 -41 17.5t-20 29.5q-18 -6 -75.5 -59t-51.5 -29q-20 2 -52 -42t-63 -68q-8 -18 -81 -131t-87 -125 q-53 -12 -64.5 3t-15.5 15q4 0 -59 -123q-25 -20 -51.5 -20h-61.5q-25 45 -18.5 71.5t10.5 81.5q12 31 99.5 121t185.5 131z" horiz-adv-x="909" unicode="S"/><glyph d="M317 1536q-12 45 -20 66q12 6 26.5 15t28.5 17q-10 43 -13 77t17 75q33 29 70 29h80q51 -6 68.5 -7.5t66.5 -1.5q31 6 37 6t10 -2q20 12 31.5 51.5t28.5 61.5q18 4 35.5 9t35.5 12q31 -63 39 -77t14 -24q29 20 39 25q6 -25 11.5 -43.5t31.5 -102.5q135 -23 267.5 -51.5 t261.5 -77.5q2 -2 6 -5t8 -3q-37 -14 -74 -27.5t-73 -25.5q-12 -4 -22.5 -8t-20.5 -6q-59 -14 -110.5 -15.5t-111.5 2.5q-12 -10 -14 -24q-16 -6 -20 -4q-63 0 -124 11t-122 9q-16 -6 -49 -14q-23 -70 -70 -116t-100 -91q-18 -39 -24.5 -53.5t-24.5 -61.5q-10 -41 -21 -102 q-25 -12 -37 -17q-63 -182 -170.5 -340.5t-154.5 -345.5q-33 -14 -41 -16q2 -25 -5.5 -45.5t-13.5 -42.5q-18 -6 -33.5 -11t-29.5 -10q-10 0 -18.5 15.5t-12.5 21.5q-12 -12 -53 -52t-53 -40q49 123 106 244t115 242q57 133 112.5 267t91.5 275q72 37 107 127t47 164 q-2 6 0 14q-39 6 -78 13.5t-78 13.5z" horiz-adv-x="718" unicode="T"/><glyph d="M156 362q-33 23 -67 39.5t-52 53.5q-41 8 -57 18q8 63 24 104t64 85q20 12 38.5 34.5t43.5 38.5q43 168 115.5 335t207.5 284q37 23 59 28q2 -23 6.5 -44t4.5 -42q20 -12 30.5 -10t32.5 8q-4 -16 -7 -31.5t-5 -29.5q-12 -27 -30.5 -50.5t-35.5 -45.5q-20 -61 -52 -108.5 t-44 -110.5q-6 -6 -14 -57.5t-8 -57.5q2 -57 66.5 -34.5t131.5 52.5q51 25 81 48.5t75 64.5q49 86 88 139t82 121q57 57 89 85t67 64q2 -4 36.5 -7t42.5 -40q8 0 31 -1t33 -1q-4 -31 -17.5 -62.5t-23.5 -57.5q-86 -180 -198.5 -345t-207.5 -340q-98 -10 -115.5 -12t-19.5 -4 q-66 -20 -61 -20q4 51 1 52t15 50q12 12 20.5 47t8.5 47q-4 20 -64.5 3t-121.5 -60q-43 -37 -56.5 -55.5t-54.5 -53.5q-111 -82 -144.5 -101.5t-37.5 -19.5z" horiz-adv-x="1099" unicode="U"/><glyph d="M811 1077l-162 -317q-14 -31 -39.5 -55.5t-44.5 -67.5q-14 -16 -23.5 -37.5t-21.5 -36.5q-23 -53 -18.5 -42t-14.5 -40q-35 -43 -38 -44t-52 -19q-33 33 -68.5 51t-35.5 20q-4 2 -22.5 -1t-51.5 40q-2 20 -27.5 107.5t-19.5 107.5q-8 39 -19.5 110t-29.5 83 q-55 84 -55 135q-18 6 -8 57.5t-1 67.5q2 80 12.5 105.5t30.5 89.5q29 23 65 43t62 47q25 -29 44.5 -60.5t37.5 -64.5q4 -20 -28.5 -100t-26.5 -99q-23 -55 -8.5 -65.5t14.5 -75.5q10 -12 22.5 -59.5t51.5 -77.5q4 -6 4 -31t6 -27q33 -12 36 -37.5t9 -21.5t16.5 29.5 t16.5 35.5q20 31 31 56q6 10 13 30.5t19 38.5l-6 2q12 20 15 23q25 49 68.5 135t66.5 139q12 6 26.5 40t22.5 48q14 12 67.5 51.5t88.5 67.5q6 -4 12 -11t22 -17q10 -4 19.5 -6.5t21.5 -4.5q4 6 9.5 14.5t11.5 18.5h39q4 0 4 4q12 -6 10 -4q-2 -6 -4 -11t-2 -9l-4 -4l-2 -3 q-12 -25 -25.5 -51t-70.5 -149q-2 -18 -29 -69.5t-37 -78.5z" horiz-adv-x="845" unicode="V"/><glyph d="M831 1057q2 -12 16.5 -26.5t14.5 -45.5q10 -12 3 -57t30 -74q4 -6 4 -30.5t6 -24.5q33 -12 36 -38t9 -22t16.5 30t16.5 36q14 18 29 53q6 10 12 29.5t18 38.5h-4q14 25 13 22q25 49 54.5 100.5t51.5 102.5q12 6 43 83t37 91q16 12 67.5 50t86.5 65q4 -4 11 -11.5 t23 -15.5q8 -4 17.5 -7t19.5 -5q6 6 11.5 15t11.5 18h17h20l4 4q2 -2 5 -17.5t5 -15.5q-2 -6 -4 3t-2 5q-4 -4 -6 -4q-12 -25 -25.5 -50.5t-68.5 -146.5q-2 -18 -24 -82.5t-32 -89.5l-172 -303q-14 -29 -38.5 -54.5t-43.5 -64.5q-14 -16 -22 -37.5t-21 -35.5 q-25 -51 -19.5 -40t-13.5 -38q-33 -43 -35.5 -44t-52.5 -20q-33 31 -68 51l-34 19q-4 2 -21.5 -1t-50.5 40q-2 18 -26.5 104t-18.5 105q-6 27 -13 73t-15 80l-72 -122q-14 -31 -39 -55.5t-43 -65.5q-14 -16 -22.5 -37t-20.5 -35q-23 -51 -18.5 -41t-14.5 -39 q-33 -43 -36 -44t-50 -19q-35 33 -68.5 51t-33.5 20q-6 2 -23.5 -1t-48.5 40q-4 18 -28.5 103.5t-18.5 105.5q-8 37 -18.5 105.5t-28.5 81.5q-57 84 -53 131q-18 6 -9 57t0 66q0 78 10.5 107.5t30.5 90.5q29 20 64 41t61 45q25 -29 42.5 -59.5t35.5 -61.5q4 -20 -27.5 -101 t-25.5 -99q-20 -55 -7 -65.5t13 -74.5q10 -12 22.5 -58t49.5 -75q4 -4 4 -29.5t6 -25.5q31 -12 34 -37.5t9 -19.5q6 2 16.5 27.5t16.5 35.5q16 25 31 53q6 10 12 30t18 38l-6 2q12 20 14 21q25 49 53.5 100t51.5 104q8 4 19.5 28t21.5 42q2 41 11 73.5t26 77.5 q29 23 63.5 43.5t59.5 45.5q25 -29 43 -60t36 -63q0 -2 9.5 -39t-35.5 -135q-2 -18 -4.5 -57t-10.5 -64z" horiz-adv-x="1390" unicode="W"/><glyph d="M539 780q-14 -6 -35 -8q-31 -25 -57.5 -38t-94.5 -36q-27 -14 -64.5 -43.5t-68.5 -36.5q-4 -6 -7 -10t-5 -8q-70 -25 -122 -64.5t-85 -76.5q0 -4 -24.5 44t-26.5 48q25 57 33 55q49 61 19 25.5t32 23.5q12 18 88 82t84 84q84 45 72.5 55.5t68.5 67.5q2 18 4 33.5t6 32.5 q-8 20 -18 32q-16 4 -23 9q-25 70 -36 159.5t-72 120.5v18.5v20.5q-23 57 -18.5 80t59.5 10q6 -6 14 -15t57 -61q49 -43 107.5 -99t116.5 -107q6 2 31.5 -9.5t33.5 -9.5q43 31 77 40t56 46q31 0 62 10.5t61 16.5q8 12 15 18q57 47 122.5 65.5t133.5 33.5l58 11t60 13 q37 8 44.5 9t13.5 1q-86 -100 -100.5 -118.5t-18.5 -24.5q-39 0 -64.5 -4t-56.5 -31q-12 -18 -22.5 -36.5t-16.5 -39.5q-86 -47 -145.5 -102t-138.5 -111q-4 -18 8 -27t10 -26q4 -18 18 -33q12 -2 5 -9t-1 -9q23 -72 26 -168t65 -127v-19.5v-17.5q27 -16 52 -30.5t46 -43.5 q0 -10 -1 -19t-1 -19q-37 6 -71 11t-66 11q-8 4 -63.5 63.5t-102.5 112.5q-49 43 -63.5 82t-69.5 92z" horiz-adv-x="960" unicode="X"/><glyph d="M299 485q33 80 0 95.5t-57 46.5q-2 20 -28 109t-19 110q-8 41 -20.5 112.5t-31.5 83.5q-27 41 -42 72t-13 68q-18 6 -8 58t0 69q0 82 -5 74.5t17 56.5q31 25 67 45t62 47q27 -31 46.5 -62.5t37.5 -64.5q4 -23 -13.5 -69t-10.5 -66q-23 -57 -9.5 -67.5t15.5 -78.5 q10 -12 14 -61t29 -86q2 -6 11 -46t11 -44q18 -37 27.5 -78t15.5 -37q10 6 45 67.5t52 94.5q6 12 29.5 60t35.5 67h-4q10 23 12 22q25 51 9.5 58.5t7.5 62.5q12 6 27.5 41t23.5 49q16 12 70.5 52t89.5 69q6 -4 12 -11t24 -18q31 -10 41 -10q4 6 10.5 14.5t12.5 18.5h17.5 h21.5l4 4q12 -6 10 -4q-2 -6 -6 -23q-2 0 -6 -4q-12 -25 -25.5 -51t-72.5 -153q-4 -31 -23 -91l-151 -208q-16 -31 -31 -65t-33 -77q-16 -16 -24.5 -37.5t-20.5 -37.5q-25 -53 -20.5 -42t-14.5 -40q-8 -10 -20 -27v1v1q-45 -96 -88 -194.5t-82 -194.5q-31 -84 -56.5 -160 t-54.5 -125q-27 -47 -67 -51q-39 10 -35 14q-18 12 -49 12.5t-19 47.5q16 25 15 45t30 55q43 23 89 134.5t61 199.5q53 104 48 83.5t9 63.5z" horiz-adv-x="770" unicode="Y"/><glyph d="M862 1358q18 -12 38 -20.5t20 -14.5q-18 -123 -73.5 -118t-98.5 -77q-98 -135 -189.5 -186t-191.5 -166q-6 -74 131 -99.5t254 -29.5q14 -14 63 -43q39 -10 66.5 -2t68.5 25q6 -6 26.5 -14.5t141.5 -51.5q-6 -4 -13 -6t-50 -10q-2 0 -64.5 -15.5t-64.5 -13.5 q-74 -18 -146.5 -29.5t-148.5 2.5q-6 4 -19 9q-33 -8 -68.5 -11.5t-66.5 -15.5q-92 -4 -95 -6t-89 -8q-10 -4 -39 -8q-47 0 -115.5 46t-138.5 74q-2 23 -2 35q-20 12 -37 17q8 37 45 43t41 47q25 27 117 104.5t192.5 165.5t179 165t78.5 103q-8 2 -18 2t-16 4q-37 6 -116 2 t-114 3q-4 0 -12 4q0 8 -6 14q-37 2 -66.5 6t-60.5 16q-6 2 -12.5 4.5t-12.5 6.5q-27 14 -80 39q4 4 9 6q76 18 197.5 26.5t201.5 12.5q25 27 61.5 21.5t98.5 13.5q2 2 26 -7q37 -4 78 -4q25 -2 45.5 -5t38.5 -21q6 -19 6 -35z" horiz-adv-x="1009" unicode="Z"/><glyph d="M420 1198q-80 -221 -135.5 -380t-157.5 -398q-49 -123 -98 -294t-82 -288q68 -16 120 -49t156 -57q0 -55 1 -50t-1 -38q-10 -6 -157.5 -16.5t-208.5 -20.5q0 4 -69 20.5t-101 53.5q10 20 14 45.5t14 54.5q12 33 65.5 126t59.5 128q31 57 64 157.5t102 264.5 q68 156 93.5 235.5t62.5 157.5q61 147 104 270q20 59 45 133l1 1t3 1q61 178 105.5 296t68.5 182q12 31 36 125t36 127q4 25 27.5 44t19.5 48q70 14 132.5 -13.5t64.5 -25.5q82 -2 176 -19.5t96 -29.5q0 -29 -3 -41.5t-13 -55.5q-55 -18 -158.5 -24t-187.5 -17 q-29 -53 -60.5 -84.5t-56.5 -99.5q-45 -68 -96 -228.5t-82 -240.5z" horiz-adv-x="821" unicode="["/><glyph d="M45 504q78 217 131 378.5t156 401.5q47 121 110.5 298t94.5 294q-68 16 -132.5 32.5t-166.5 41.5q-2 55 -3.5 50t3.5 38q6 6 155.5 4t210.5 8q0 -4 68.5 -8t99.5 -41q-10 -20 -13 -46t-14 -54q-14 -33 -67 -126.5t-57 -127.5q-31 -59 -64 -160t-104 -262 q-68 -158 -94.5 -237t-61.5 -152q-31 -76 -56.5 -143.5t-47.5 -127.5q-12 -35 -22.5 -68.5t-23.5 -66.5h-1h-1q-63 -180 -106 -296t-68 -177q-12 -33 -34.5 -126t-34.5 -126q-4 -25 -28 -44t-19 -48q-70 -14 -128.5 5.5t-60.5 16.5q-82 2 -168 12.5t-88 20.5q0 31 3 43.5 t16 55.5q55 18 153.5 38.5t181.5 30.5q29 55 52.5 90t46.5 101q47 66 98 230.5t84 246.5z" horiz-adv-x="567" unicode="]"/><glyph d="M1020 365q-6 -2 -19 -3h-2t-2 3q-23 -2 -46 -2.5t-134 -0.5q-2 0 -94 -1t-94 1q-29 -2 -57.5 -3t-57.5 -1q-139 -16 -175 -8t-173 10q-18 4 -67.5 9.5t-80.5 15.5q-4 4 -5 16.5t-7 24.5q4 6 4 8t6 8h-8h-6q12 12 27 19q-2 0 -15 -1l-12 -1l-1 8t-1 10q12 4 20 0 q158 6 192 10.5t194 4.5q27 0 44 -1.5t29 -1.5q6 0 14.5 1.5t16.5 1.5q2 0 4 -1.5t4 -1.5h5h7q2 -2 19.5 -2h21.5q43 0 91.5 -2t93.5 0q8 -6 36.5 -4t41.5 2q14 -6 60 -21.5t77 -25.5q0 14 -6 -22q0 -6 2 -11.5t4 -11.5q6 0 14 -1t14 -1q6 -6 15 -18q4 0 6 -2v-3v-1z" horiz-adv-x="997" unicode="_"/><glyph d="M1192 598q-86 37 -213 -102.5t-213 -194.5q-2 0 -5 1l-3 1q6 31 16 60.5t10 64.5q-10 4 -22 8q-2 25 -4 50.5t-2 52.5h-30.5h-29.5q-6 -12 -11 -20.5t-34 -47.5q-98 -94 -120.5 -115.5t-55.5 -56.5q-14 -2 -56 -9t-48 -14q-23 -2 -40.5 -2h-103.5q-4 8 -8 18.5t-6 22.5 q-51 6 -102.5 29t-75.5 72q-2 0 -3 1l-1 1q-6 12 -12.5 27.5t-12.5 29.5q-12 68 -1 135.5t38 130.5q29 27 57.5 54.5t59.5 56.5q104 111 200.5 230.5t192.5 240.5q25 -4 48.5 -14.5t49.5 -8.5q14 12 29.5 25.5t32.5 26.5q61 4 137 -29q68 -53 68 -119q29 8 45 13 q68 41 101.5 111.5t80.5 131.5h4h4q49 -61 129 -80q0 -82 -39 -147q-27 -37 -36 -48l-36 -44q-6 -14 -21 -47t-15 -47q-25 -59 -36.5 -90t-54.5 -142q106 2 177 37q18 10 53 7t51 -7zM492 786v20.5v22.5q68 51 127 109.5t59 151.5q-55 16 -111 16q-43 -55 -87 -109.5 t-87 -107.5q-59 -86 -120.5 -202t-36.5 -226q39 0 85 15.5t87 23.5q2 25 8 41q78 39 152.5 88t84.5 149q-16 -10 -34.5 -21.5t-34.5 -11.5q-16 23 -27 41h-32.5h-32.5z" horiz-adv-x="1161" unicode="a"/><glyph d="M868 2146q0 -2 3 -4t8 -4q-2 -2 -2 -6q16 -25 26 -35q-4 -8 -14 -41q25 -20 37 -28q18 -8 29.5 -9.5t19.5 -3.5q-2 -49 -12.5 -87t-10.5 -62q-8 -14 -54 -85t-42 -85q-33 -55 -42 -105.5t-36 -105.5q0 -6 -11 -28.5t-11 -24.5q-18 -33 -41 -73t-64 -126q10 -6 66.5 13.5 t68.5 13.5q82 41 75 29.5t83 8.5q37 -49 38 -49t54 -75q33 -49 55.5 -92.5t67.5 -172.5q-6 0 -15 -146.5t-87 -277.5q-31 -63 -138.5 -101t-236.5 -69q-78 37 -125 51.5t-113 143.5q-6 18 -57 75.5t-76 76.5q-51 -31 -106 -116t-92 -110q-41 68 -60.5 64t-62.5 63 q49 53 77.5 179t79.5 182q8 6 16.5 11t18.5 11q80 41 96.5 50.5t20.5 11.5q6 6 12 15t13 17q0 4 3 19.5t13 91.5q72 119 139.5 246t134.5 250q-2 2 59.5 119.5t61.5 121.5q74 141 88.5 171t28.5 57v4v6q4 4 16 20zM594 997q-8 -10 8 -95t10 -93q-47 -49 -93 -56.5t67 -136.5 q43 -20 70.5 -44.5t117.5 -24.5q70 43 88.5 57t61.5 80q-4 12 0 51t16 60q0 2 5 54t5 56q18 25 -12.5 126.5t-60.5 125.5q-39 18 -71 0t-99 -59q-37 -14 -69 -50.5t-44 -50.5z" horiz-adv-x="1138" unicode="b"/><glyph d="M731 643q-4 -6 -43 -31.5t-59 -52.5q-96 -92 -118 -112.5t-52 -53.5q-14 -4 -55.5 -10t-45.5 -12q-23 -2 -40 -3t-99 -1q-8 29 -12 41q-51 6 -100.5 26.5t-71.5 69.5q-2 2 -6 2q-6 18 -23 55q-20 115 35 258q29 25 56.5 52.5t56.5 54.5q102 106 195 222l186 232 q25 -4 47 -13t47 -9q14 12 28.5 25.5t30.5 25.5q53 2 133 -29q23 -20 71 -105t54 -116l-12 -37l-53 -59l-60 20l15 -47q-29 6 -58.5 14.5t-66.5 34.5q-31 10 -81 20.5t-81 10.5q-43 -55 -85 -79.5t-85 -75.5q-55 -84 -115.5 -196t-36.5 -218q37 0 82 15.5t84 23.5q6 37 8 39 q45 31 122 62.5t114 74.5l22 -31h50l51 -37z" unicode="c"/><glyph d="M823 371q-57 57 -71.5 112.5t-22.5 134.5q-68 0 -120 -25.5t-109 -51.5q-109 -12 -219.5 10t-190.5 98q-86 109 -82 234q14 25 29.5 51.5t32.5 52.5q78 111 202 178q37 12 74 26.5t74 29.5q51 94 112.5 147t161.5 94q31 6 65 18.5t68 12.5q12 12 114.5 14t125.5 -8 q4 -16 12 -26q8 4 23 4q6 -55 20.5 -110.5t20.5 -109.5q14 -6 47 -18q0 14 2 21q123 203 270 413q57 92 114.5 185.5t115.5 185.5q18 -6 31.5 -12.5t72.5 -36.5q6 -29 10 -59.5t9 -59.5l36 -6q-147 -201 -287.5 -402.5t-269.5 -414.5q-55 -66 -111.5 -131.5t-103.5 -137.5 q-18 -31 -38.5 -66.5t-26.5 -72.5q-16 -14 -22.5 -69.5t-6.5 -67.5v-58.5v-58.5q-57 4 -88 4q-4 -4 -23.5 -8t-50.5 -16zM854 1274q-4 8 -4 10q-59 29 -130 1t-137.5 -81t-120.5 -115.5t-81 -103.5q-25 -51 -29 -60.5t-4 -15.5q-14 -14 -13 -51t3 -55q2 -4 4 -9.5t14 -33.5 q16 -4 43 7t43 17q2 2 38 8.5t38 10.5q37 0 68.5 -1t58.5 27q27 14 56.5 24.5t60.5 23.5v38.5v40.5q-10 6 -31 15q-8 16 -18.5 40.5t2.5 43.5q20 16 59 43.5t78 58.5q0 16 1 32.5t1 35.5v24.5v24.5zM762 877v38.5v40.5h1h3v-40.5v-38.5h-2h-2z" horiz-adv-x="1275" unicode="d"/><glyph d="M791 584q-4 -6 -10.5 -29t-28.5 -53q-115 -37 -173.5 -87t-91.5 -87q-14 -4 -58 -11.5t-50 -11.5q-23 -4 -44.5 16.5t-109.5 20.5q-6 10 -24.5 -7.5t-22.5 -4.5q-53 6 -75.5 38.5t-47.5 86.5q-2 0 -16 -2l-14 -2q-6 14 -4 46.5t-5 49.5q-16 70 -0.5 131t41.5 129 q31 29 51.5 47t51.5 49q10 10 -2.5 12.5t-18.5 18.5q-6 12 17.5 46t29.5 42q16 18 71.5 35.5t74.5 36.5q72 82 121 147.5t116 151.5q25 -4 49.5 4t53.5 8q14 12 35.5 -10.5t37.5 -8.5q37 2 68 -15t66 -32l79 -170l68 -198l-41 -135h-6l-49 -54h-164l-100 45l-185 37 l-135 -18q-55 -86 -93 -171t-15 -179q41 0 86 23.5t88 31.5q0 10 44 31.5t54 27.5q49 35 58.5 20.5t45.5 31.5l91 32h51l57 -41zM801 1141q-61 63 -72.5 92t-64.5 29q-61 -33 -64 -111q-8 -78 16.5 -78t65.5 -49q33 4 50.5 -8t41.5 4q39 25 45.5 42.5t-18.5 78.5z" horiz-adv-x="997" unicode="e"/><glyph d="M1114 2050h3h5q10 -68 20.5 -132.5t22.5 -129.5q-2 -10 -2 -29q-20 -49 -37.5 -104.5t-40.5 -100.5q-61 -6 -100 -24.5t-94 -48.5q-31 -12 -70 -25q2 53 17.5 79t50.5 71q0 37 -2 75.5t-2 79.5h-5h-6q-111 -117 -177 -258t-134 -284q2 -16 28.5 -23.5t39.5 4.5 q86 14 168 63.5t157 94.5q37 0 50.5 -4t50.5 2q0 -6 -3 -20.5t1 -24.5q-66 -61 -77 -71.5t-77 -8.5q-41 -27 -49 -34t-12 -7q-12 -45 -21.5 -62.5t-44.5 -44.5q-111 -25 -215 -62.5t-209 -74.5q-33 -86 -61.5 -175t-57.5 -175q-43 -41 -80.5 -80t-70.5 -88 q-8 -20 -17.5 -39.5t-15.5 -38.5q-8 -37 -15 -70.5t-14 -68.5q-8 -6 -43.5 -19.5t-78.5 -29.5q-20 -16 -31 -17q-2 6 -5 12.5t-7 12.5h-25.5h-28.5q-8 -18 -17 -34.5t-20 -33.5v20.5v20.5q18 129 82 247t101 241q74 160 153.5 308t153.5 306q33 10 80 39q86 74 135 168 t102 195q16 23 31.5 46t34.5 48q18 16 49 46t31 56q25 4 39 4q25 53 32 64.5t19 30.5q43 41 86 48t102 13q31 12 60.5 25.5t60.5 21.5z" horiz-adv-x="845" unicode="f"/><glyph d="M827 1151q18 8 43 21.5t101 7.5q12 -18 31.5 -48t33.5 -47q-25 -18 -31 -33.5t-28 -29.5q-10 -8 -40 -70.5t-32 -126.5q-33 -80 -56.5 -159.5t-43.5 -159.5q-106 -223 -191 -432q-35 -92 -63.5 -179.5t-61.5 -142.5q-53 -47 -98 -63.5t-174 -30.5q0 4 4 12 q-63 -20 -124.5 -42.5t-121.5 -47.5q-35 -16 -70.5 -31.5t-72.5 -33.5q-66 0 -130 13t-122 50q-10 12 -20.5 21.5t-22.5 19.5v4v2q-35 41 -37 94.5t11 102.5q-6 6 -15.5 13t-17.5 13q33 80 40 95.5t15 33.5q6 4 28.5 38t28.5 46q43 16 71 28.5t146 68.5q35 8 74 35.5 t45 27.5l58 10l16 -63l-18 -45l18 -33q-49 -18 -107.5 -76.5t-105.5 -91.5q-2 -2 -41 8q-20 -33 -51 -68.5t-45 -72.5q92 -61 218 -46t220 34q53 18 140 47t120 67q49 29 100.5 153t67.5 222q61 117 55 94.5t13 73.5q2 2 5 27.5t9 30.5q-12 6 -21.5 14t-17.5 14 q-47 -27 -100 -44t-99 -42q-8 12 -10 23q-12 0 -26 -6q-20 12 -74.5 95t-50.5 103q-18 25 -19.5 60.5t-9.5 66.5q-23 102 -15.5 113.5t17.5 105.5q-10 37 -7 93.5t-3 93.5q-6 72 19.5 135t49.5 131q12 25 56.5 46.5t56.5 47.5q55 37 96 32t109 -9q61 -29 96 -50.5t96 -101.5 q8 -63 28.5 -137t57.5 -125zM389 745q10 6 19.5 12.5t21.5 12.5q23 14 53 39q4 45 5 92t6 74q6 16 31.5 21t43.5 10q16 -12 27 -17q16 10 31.5 20.5t34.5 22.5q-8 29 -15.5 58.5t-7.5 60.5q6 35 -11.5 59.5t-35.5 55.5q0 4 -14.5 35.5t-12.5 35.5q-10 25 -22.5 39.5 t-48.5 36.5q-16 -10 -46 -28.5t-34 -36.5q-6 -4 -11.5 -12.5t-31.5 -55.5q-37 -88 -70 -281.5t78 -257.5q2 0 4 1zM662 1032q-18 -12 -34 -22.5t-32 -20.5q0 -2 1 -3l1 -1q16 10 31.5 20.5t34.5 22.5l-1 1t-1 3z" horiz-adv-x="909" unicode="g"/><glyph d="M801 2050q4 -4 8 -6q0 -4 -2 -6q8 -14 27 -35q-8 -16 -15 -39q14 -10 35 -27q18 -6 28.5 -8t16.5 -4q0 -47 -10 -82t-10 -57q-6 -14 -50.5 -81t-40.5 -81q-31 -53 -40 -99t-33 -100q0 -4 -10.5 -25.5t-10.5 -25.5q-18 -31 -66 -106.5t-85 -155.5q8 -4 88 51.5t92 48.5 q78 37 127 38t133 20q25 27 82 94.5t82 -6.5l35 -111q43 -45 -11.5 -141t-97.5 -223q-4 0 -52 -95.5t-24 -132.5q-25 -49 -57.5 -93t-67.5 -103l-122 4l-35 29q-35 30 -35 32q27 68 27 78t36 72q-2 12 21.5 50t36.5 56q-2 4 26.5 53.5t28.5 53.5q-6 31 51.5 93t28.5 85 q-37 16 -119 -20.5t-137 -45.5q-92 -20 -128 -50.5t-114 -76.5q-43 -49 -62.5 -74.5t-41.5 -92.5q-27 -18 -61.5 -104.5t-55.5 -127.5q-16 -33 -50 -41t-48 -18q-39 66 -75 72t-73 69q45 49 72 169t76 171q12 10 33 20q76 39 91 48.5t19 11.5q6 6 12.5 14t12.5 17q-2 2 1 17 t11 87q68 113 132.5 232.5t127.5 236.5q0 2 57.5 112.5t57.5 114.5q70 133 83 162t29 53q-4 4 0 9q13 18 15 20z" horiz-adv-x="1161" unicode="h"/><glyph d="M432 1556q-4 4 -6 9q6 16 16.5 31.5t14.5 33.5q-8 12 -15.5 24.5t-13.5 26.5q4 39 41 93q16 12 86 35.5t94 23.5l27 -14l35 -50l-25 -38l37 4l-20.5 -41t-34.5 -45q-2 -4 -4 -7.5t-5 -9.5q-2 -6 -5 -16t-5 -17q-2 -6 -27.5 -30.5t-27.5 -30.5q-4 -6 -42 -9t-38 -7z M424 668q-135 -4 -160.5 -62.5t-105.5 -109.5q-2 0 -33 -39l-31 -39q-14 12 -28.5 11t-16.5 32q-6 0 -15 6t-14 8q-4 25 4.5 40t8.5 40q-12 0 -23.5 7t-23.5 7l26 133l49 84l58 129l33 127q8 2 33.5 64.5t35.5 64.5q23 41 66 105.5t88 122.5q4 0 6 -2q49 -59 121 -74 q-2 -47 -8.5 -72.5t-28.5 -64.5q-25 -33 -34 -43t-34 -41q-6 -14 -19 -45t-13 -43q-25 -55 -35.5 -84t-48.5 -131q43 0 75.5 1t73.5 19q8 6 61.5 2t69.5 -8q25 -8 14.5 -15t-18.5 -24l-27 -55z" horiz-adv-x="479" unicode="i"/><glyph d="M819 1753q0 -2 2 -5t4 -3q-8 -14 -18 -27.5t-12 -27.5q6 -12 11 -23.5t11 -21.5q-8 -41 -41 -80q-16 -12 -78.5 -29.5t-81.5 -13.5l-20 14l-29 43l23 35l-33 -2q8 16 17.5 33.5t33.5 37.5q4 4 8 13q2 4 5.5 14t7.5 16q0 4 23.5 23.5t27.5 26.5q2 6 35 5t35 5zM610 1231 q2 -25 13 -35q-25 -45 -44.5 -95t-41.5 -93l-78 -183q-2 0 -29 -51q-25 -31 -64.5 -107.5t-80.5 -165.5t-75 -172t-48 -126q-16 -20 -40 -61.5t-22 -67.5q2 -55 -34.5 -72.5t-61.5 -73.5q-25 -10 -33 -27.5t-16 -33.5q-23 -4 -28 -4t-62 -10q-74 8 -74 6t-102 -64 q-35 -2 -71 -15t-73 -22q-4 -4 -103 0t-104 -2l-14 66q0 14 140.5 34.5t267.5 114.5q104 86 165.5 148.5t110.5 191.5q39 53 65.5 118t67.5 118q39 92 83 184t91 184l-1 1l-1 2l23 118q41 88 62.5 147.5t88.5 133.5l44 49t47 49q10 -12 22 -12t12 -27q4 -2 12.5 -8t14.5 -6 q0 -20 -1 -34.5t-1 -33.5q6 0 -8.5 -25.5t-18.5 -37.5z" horiz-adv-x="630" unicode="j"/><glyph d="M-205 -233q0 4 -2 12t-10 53q-47 0 -72 -2q0 14 -2 34.5t-8 29.5q43 72 87 140t87 138q166 299 237.5 464t106.5 245q14 18 37 57t23 68q-12 4 -23.5 9t-24.5 11q0 4 12.5 21.5t32.5 54.5q6 18 21.5 56t15.5 63q23 2 38.5 5t76.5 9q4 4 8 4q35 61 69 124.5t68 127.5 q33 27 62 53.5t49 63.5q6 0 15.5 1t17.5 3q20 66 48 132l56 132q8 4 35 2q12 -53 21 -139q6 -14 14 -27q29 25 41 27q12 -14 8 -19.5t-4 -19.5q-49 -98 -93 -200.5t-71 -207.5q-2 -8 -3 -17t-1 -18q37 0 76 10.5t76 16.5l16 16q72 45 151.5 63.5t163.5 31.5q2 2 73 12t75 12 q47 6 55 8.5t14 2.5q-104 -98 -122.5 -116t-22.5 -24q-49 0 -81 -3t-68 -30q-33 -39 -50 -71q-109 -47 -210 -100.5t-201 -110.5q-14 -41 26 -84q20 -4 29 -8q29 -68 60.5 -160t107.5 -121v-19.5v-17.5q33 -14 65.5 -28.5t57.5 -40.5q-4 -25 -4 -37q-43 4 -85 9t-85 11 q-10 4 -21.5 13.5t-68.5 58.5q-74 51 -176.5 113.5t-194.5 58.5q-47 -51 -92 -102.5t-90 -100.5q-100 -197 -215 -383t-232 -370z" horiz-adv-x="1224" unicode="k"/><glyph d="M915 2013q-92 -240 -182 -480.5t-201 -467.5q-16 -80 -31.5 -158t-29.5 -155q61 -49 74.5 -77t113.5 -59q86 -20 101.5 -36.5t27.5 -20.5q35 -37 69 -72.5t71 -70.5q-10 -8 -31 -29q-43 2 -89 23.5t-83 46.5q-8 -8 -101.5 6t-99.5 8q-25 2 -52.5 -12.5t-63.5 24.5 q-49 2 -76 -39q-6 -37 -40 -33.5t-89 -15.5q0 2 -89 -4t-89 -4q-37 59 -56.5 75.5t-34.5 41.5q23 16 46.5 56t37.5 63q18 43 25.5 65.5t11.5 28.5q12 -8 25.5 3t28.5 5q57 43 71 106q49 86 151.5 268.5t262.5 551.5q72 195 137 360q12 0 31.5 13.5t34.5 19.5 q12 -18 23 -33.5t24 -32.5q49 25 57 30t14 5z" horiz-adv-x="794" unicode="l"/><glyph d="M811 487q-39 -35 -84 -24q-4 -6 -18.5 6t-16.5 12q-39 -12 -37 26t-39 38q0 37 23 90t18 94q49 82 42 108.5t53 106.5q2 4 2 8q0 12 23.5 38t23.5 32q-2 6 -24.5 -10.5t-55.5 2.5q-6 0 -25.5 -18.5t-25.5 -16.5q-51 6 -95.5 -20.5t-62.5 -26.5q-51 -49 -126 -109.5 t-101 -117.5q-18 -12 -67.5 -108.5t-67.5 -107.5q-41 -12 -78 -22t-76 -10q0 37 -10.5 80t-16.5 84q119 197 266.5 384t241.5 402q18 2 54 -19.5t55 -27.5q0 -98 -46 -135t-71 -127q20 -8 82.5 37t99.5 69q43 74 166 112t193 111q27 20 57.5 18.5t67.5 -1.5q14 -37 14 -58.5 t-4 -46.5q-4 -33 -12 -57q-2 -2 -3 -8q-31 -92 -59 -164q31 16 73 46t66 48q182 129 237.5 168t121.5 55q29 20 59.5 18.5t67.5 -1.5q20 -55 11 -84t-15 -86q-25 -55 -43.5 -100.5t-38.5 -100.5q-4 -23 -14.5 -45t-10.5 -45q106 27 195 88q2 0 8 -4t10 -2l-74 -199 q-121 -53 -188.5 -107t-118.5 -247l-94 -66q-23 -16 -76 21t-63 43q35 90 62.5 162.5t37.5 144.5q10 10 13 35t8 41q0 57 -71 58t-163 -19q-37 -12 -67.5 -48t-63.5 -67q-27 -59 -59.5 -150.5t-69.5 -179.5z" horiz-adv-x="1642" unicode="m"/><glyph d="M1184 866q-123 -55 -207 -144t-152 -200q-18 -16 -51 -24.5t-55 6.5q-51 61 -22.5 149t40.5 162q10 10 15.5 34.5t9.5 41.5q6 18 18.5 33.5t12.5 27.5q-8 53 -111 49q-53 -4 -98 -35.5t-64 -31.5q-51 -51 -128 -112.5t-101 -119.5q-20 -12 -70.5 -110t-68.5 -111 q-41 -12 -79 -22t-77 -10q0 39 -11.5 81.5t-15.5 85.5q121 201 270.5 390.5t245.5 408.5q18 2 54 -19.5t55 -29.5q0 -98 -46 -136t-71 -130q20 -6 84 39t101 69q10 18 77.5 58.5t85.5 54.5q115 80 143.5 79t57.5 38q29 20 59.5 17t67.5 -3q23 -55 13.5 -84t-17.5 -86 q-25 -55 -42 -102t-42 -103q-2 -25 -12.5 -47t-10.5 -45q100 23 197 88q4 2 9 -3t9 -1z" horiz-adv-x="1136" unicode="n"/><glyph d="M553 1413l2 2l2 2q18 6 33.5 9.5t89.5 19.5q4 -10 8 -18.5t10 -16.5q43 4 91.5 -6t78.5 -47h1h3q10 -16 31 -45q25 -57 25 -116.5t-8 -119.5q-23 -29 -43.5 -57.5t-38.5 -56.5q-72 -115 -85.5 -205t-72.5 -209q-25 -2 -94.5 -26.5t-89.5 -28.5q-20 -27 -63.5 -44.5 t-45.5 -21.5q-63 -20 -145 -32.5t-127 46.5l-21 22l-22 23q-10 16 -31 45q-25 55 -26 115t12 121q0 80 128 256t205 330q23 0 44.5 -4t44.5 2q29 37 45 55q26 8 59 6zM223 709q29 -80 81 -79t128 3q29 20 57.5 42.5t71.5 61.5q16 18 43 72.5t41 81.5q20 51 35.5 101 t24.5 118l-52 6l-24 -69q-27 0 -45.5 -28t-48.5 -54q-14 0 -24.5 68.5t-31.5 68.5q-53 -41 -103 -67.5t-77 -80.5q-20 -53 -45 -117.5t-31 -127.5z" unicode="o"/><glyph d="M0 -217v11v11q0 2 4 7q0 27 6 55.5t27 163.5q2 2 19.5 116.5t21.5 116.5q14 121 31.5 246t29.5 248q31 55 37 68.5t10 17.5v17v18q-4 2 -10 17t-41 87q-6 12 -14 33q-8 63 -16.5 127.5t-14.5 128.5q16 6 33.5 38.5t34.5 39.5q49 18 96 12t96 16q12 -37 19.5 -58.5 t27.5 -70.5q14 0 39 13q55 86 128 157.5t157 132.5q25 16 47 17q57 -35 125 -45q43 25 78 20q31 -18 46 -28.5t77 -51.5q2 -18 5 -26t9 -37q4 -37 5 -44t5 -9q0 -35 4 -105q-68 -123 -126 -251t-119 -251q-35 -55 -79 -103t-91 -91q-76 -55 -147 -76.5t-157 31.5h-22h-21 q-16 -84 -20 -104.5t-8 -51.5q-4 -2 -8.5 -24.5t-4.5 -24.5q-10 -55 -23 -112.5t-20 -112.5q-10 -12 -14 -46l-6 -51q-12 -18 -51 -68t-64 -87q-6 2 -15 7t-26 9h-21h-20q-8 -25 -10 -37q-10 -2 -19.5 -5t-17.5 -7l-4 -4h-4h-4zM489 950q0 -18 7.5 -39.5t27.5 -27.5 q23 33 22 62.5t-1 72.5q6 -4 28 -29q31 -16 65 -12t69 6q-23 -25 -30 -35t-32 -43q-23 -47 -28 -77.5t-7 -84.5q57 0 90 19.5t70 68.5q23 49 27 57.5t4 14.5q0 2 4 16.5t8 18.5q0 18 7 66.5t18 56.5q4 66 5 92.5t7 120.5v23.5v23.5q-2 10 -3 19.5t-1 21.5 q-109 -18 -213.5 -73.5t-130.5 -172.5q-16 -16 -14.5 -60t1.5 -63v-22.5v-20.5zM489 993v-22v-21v5v38z" horiz-adv-x="1009" unicode="p"/><glyph d="M805 1163q45 -18 56 -16t85 -4q25 -35 33 -107q16 -31 -10.5 -48t-36.5 -60q-20 -35 -28.5 -49.5t-10.5 -77.5q-31 -76 -81 -186.5t-71 -190.5q-47 -96 -73.5 -199.5t-59.5 -204.5q10 2 32 4.5t24 2.5q29 -4 38 -6.5t39 -2.5q6 -16 21 -45q-25 -20 -39 -28 q10 -33 15 -58.5t-7 -56.5q-23 -25 -49.5 -29t-56.5 -6h-53.5t-49.5 -4q-12 -4 -16 -6q-10 -23 -21 -39q-53 -47 -56 -71.5t-21 -67.5q-61 -100 -151.5 -41t-88.5 59q37 55 68.5 103.5t58.5 87.5q-4 2 -12 10q-104 6 -205 17.5t-199 35.5q-2 2 -10 6q27 14 53.5 27.5 t50.5 26.5q23 8 31 14q41 16 80 21.5t84 7.5q4 6 8 18q10 4 14 2q45 6 91.5 3t93.5 3q33 55 79 112.5t58 135.5q25 66 27 93.5t2 80.5q2 2 5 27.5t9 29.5q-33 23 -39 29q-45 -27 -54 -50.5t-54 -47.5q-6 8 -33 11t-27 9q-12 2 -26 -4q-20 12 -73.5 94t-49.5 101 q-18 25 -18.5 59.5t-10.5 65.5q-23 100 -43.5 107t-9.5 100q-8 37 1 98t3 98q-6 70 40 130.5t70 127.5q12 25 55.5 45.5t55.5 46.5q55 37 95 32t108 -9q59 -29 93 -49.5t95 -100.5q8 -61 21.5 -113.5t50.5 -103.5zM414 723q10 6 19 1t22 1q12 8 -10.5 31.5t-8.5 34.5 q4 45 -8 58t-8 40q6 16 49 3t61 -9q6 -6 19.5 -32t58.5 -69q35 98 43 94t2 103q6 35 -22.5 130t-46.5 126q0 4 -13.5 36t-11.5 36q-10 25 -21.5 38t-48.5 35q-16 -8 -45.5 -27.5t-33.5 -37.5q-4 -4 -9.5 -12.5t-31.5 -53.5q-37 -86 -70 -277.5t78 -252.5l17 1q16 1 20 3z" horiz-adv-x="921" unicode="q"/><glyph d="M799 1147q-8 4 -50 -45t-57 -49q-55 0 -98 -34t-62 -36q-45 -57 -115.5 -130t-88.5 -136q-18 -14 -56.5 -122t-56.5 -120q-39 -18 -77 -33.5t-81 -21.5q-6 41 -22.5 83t-26.5 85q98 221 227.5 435t198.5 450q18 6 58 -11.5t61 -23.5q12 -100 15 -61.5t-11 -59.5 q23 -4 58.5 8t78.5 25q8 20 63.5 45.5t73.5 44.5q57 12 72 -2.5t21 -14.5q25 4 110 -75q4 -4 -9 -81t-54 -79q-31 4 -66.5 -37t-105.5 -4z" horiz-adv-x="858" unicode="r"/><glyph d="M197 868q6 2 3 18.5t29 37.5q2 2 38 48t40 52q80 92 104.5 87t59.5 83q18 10 56 102.5t55 104.5q35 12 68.5 23.5t72.5 15.5q2 -37 35 -48.5t39 -48.5l8 -20l8 -20q6 -12 31.5 -53.5t32.5 -51.5q45 -72 33.5 -146.5t9.5 -123.5q6 -61 -2.5 -100.5t-34.5 -137.5l-4 4t-2 6 q-41 -119 -68 -213q-6 -33 -14.5 -65.5t-14.5 -63.5q-35 -45 -48 -82.5t-68 -56.5q-33 -4 -50 -8q0 4 -4 4q-45 -4 -83 22.5t-62 61.5q-14 -6 -35 -8q-37 59 -45 71.5t-14 30.5q2 6 -11.5 38t-15.5 44q10 37 9 14.5t24 88.5q10 27 12 65.5t6 44.5l23 45l51 -22l20 -35l33 -4 q-16 -43 1.5 -65.5t15.5 -71.5q0 -2 -27 -23q12 -31 19.5 -71t25.5 -66q88 29 114.5 121t63.5 170q16 43 -16.5 93t-22.5 93q8 51 -10 58.5t-43 84.5q-29 -29 -41 17.5t-20 29.5q-18 -6 -75.5 -59t-51.5 -29q-20 2 -52 -42t-63 -68q-8 -18 -81 -131t-87 -125 q-53 -12 -64.5 3t-15.5 15q4 0 -59 -123q-25 -20 -51.5 -20h-61.5q-25 45 -18.5 71.5t10.5 81.5q12 31 99.5 121t185.5 131z" horiz-adv-x="909" unicode="s"/><glyph d="M317 1536q-12 45 -20 66q12 6 26.5 15t28.5 17q-10 43 -13 77t17 75q33 29 70 29h80q51 -6 68.5 -7.5t66.5 -1.5q31 6 37 6t10 -2q20 12 31.5 51.5t28.5 61.5q18 4 35.5 9t35.5 12q31 -63 39 -77t14 -24q29 20 39 25q6 -25 11.5 -43.5t31.5 -102.5q135 -23 267.5 -51.5 t261.5 -77.5q2 -2 6 -5t8 -3q-37 -14 -74 -27.5t-73 -25.5q-12 -4 -22.5 -8t-20.5 -6q-59 -14 -110.5 -15.5t-111.5 2.5q-12 -10 -14 -24q-16 -6 -20 -4q-63 0 -124 11t-122 9q-16 -6 -49 -14q-23 -70 -70 -116t-100 -91q-18 -39 -24.5 -53.5t-24.5 -61.5q-10 -41 -21 -102 q-25 -12 -37 -17q-63 -182 -170.5 -340.5t-154.5 -345.5q-33 -14 -41 -16q2 -25 -5.5 -45.5t-13.5 -42.5q-18 -6 -33.5 -11t-29.5 -10q-10 0 -18.5 15.5t-12.5 21.5q-12 -12 -53 -52t-53 -40q49 123 106 244t115 242q57 133 112.5 267t91.5 275q72 37 107 127t47 164 q-2 6 0 14q-39 6 -78 13.5t-78 13.5z" horiz-adv-x="718" unicode="t"/><glyph d="M156 362q-33 23 -67 39.5t-52 53.5q-41 8 -57 18q8 63 24 104t64 85q20 12 38.5 34.5t43.5 38.5q43 168 115.5 335t207.5 284q37 23 59 28q2 -23 6.5 -44t4.5 -42q20 -12 30.5 -10t32.5 8q-4 -16 -7 -31.5t-5 -29.5q-12 -27 -30.5 -50.5t-35.5 -45.5q-20 -61 -52 -108.5 t-44 -110.5q-6 -6 -14 -57.5t-8 -57.5q2 -57 66.5 -34.5t131.5 52.5q51 25 81 48.5t75 64.5q49 86 88 139t82 121q57 57 89 85t67 64q2 -4 36.5 -7t42.5 -40q8 0 31 -1t33 -1q-4 -31 -17.5 -62.5t-23.5 -57.5q-86 -180 -198.5 -345t-207.5 -340q-98 -10 -115.5 -12t-19.5 -4 q-66 -20 -61 -20q4 51 1 52t15 50q12 12 20.5 47t8.5 47q-4 20 -64.5 3t-121.5 -60q-43 -37 -56.5 -55.5t-54.5 -53.5q-111 -82 -144.5 -101.5t-37.5 -19.5z" horiz-adv-x="1099" unicode="u"/><glyph d="M811 1077l-162 -317q-14 -31 -39.5 -55.5t-44.5 -67.5q-14 -16 -23.5 -37.5t-21.5 -36.5q-23 -53 -18.5 -42t-14.5 -40q-35 -43 -38 -44t-52 -19q-33 33 -68.5 51t-35.5 20q-4 2 -22.5 -1t-51.5 40q-2 20 -27.5 107.5t-19.5 107.5q-8 39 -19.5 110t-29.5 83 q-55 84 -55 135q-18 6 -8 57.5t-1 67.5q2 80 12.5 105.5t30.5 89.5q29 23 65 43t62 47q25 -29 44.5 -60.5t37.5 -64.5q4 -20 -28.5 -100t-26.5 -99q-23 -55 -8.5 -65.5t14.5 -75.5q10 -12 22.5 -59.5t51.5 -77.5q4 -6 4 -31t6 -27q33 -12 36 -37.5t9 -21.5t16.5 29.5 t16.5 35.5q20 31 31 56q6 10 13 30.5t19 38.5l-6 2q12 20 15 23q25 49 68.5 135t66.5 139q12 6 26.5 40t22.5 48q14 12 67.5 51.5t88.5 67.5q6 -4 12 -11t22 -17q10 -4 19.5 -6.5t21.5 -4.5q4 6 9.5 14.5t11.5 18.5h39q4 0 4 4q12 -6 10 -4q-2 -6 -4 -11t-2 -9l-4 -4l-2 -3 q-12 -25 -25.5 -51t-70.5 -149q-2 -18 -29 -69.5t-37 -78.5z" horiz-adv-x="845" unicode="v"/><glyph d="M831 1057q2 -12 16.5 -26.5t14.5 -45.5q10 -12 3 -57t30 -74q4 -6 4 -30.5t6 -24.5q33 -12 36 -38t9 -22t16.5 30t16.5 36q14 18 29 53q6 10 12 29.5t18 38.5h-4q14 25 13 22q25 49 54.5 100.5t51.5 102.5q12 6 43 83t37 91q16 12 67.5 50t86.5 65q4 -4 11 -11.5 t23 -15.5q8 -4 17.5 -7t19.5 -5q6 6 11.5 15t11.5 18h17h20l4 4q2 -2 5 -17.5t5 -15.5q-2 -6 -4 3t-2 5q-4 -4 -6 -4q-12 -25 -25.5 -50.5t-68.5 -146.5q-2 -18 -24 -82.5t-32 -89.5l-172 -303q-14 -29 -38.5 -54.5t-43.5 -64.5q-14 -16 -22 -37.5t-21 -35.5 q-25 -51 -19.5 -40t-13.5 -38q-33 -43 -35.5 -44t-52.5 -20q-33 31 -68 51l-34 19q-4 2 -21.5 -1t-50.5 40q-2 18 -26.5 104t-18.5 105q-6 27 -13 73t-15 80l-72 -122q-14 -31 -39 -55.5t-43 -65.5q-14 -16 -22.5 -37t-20.5 -35q-23 -51 -18.5 -41t-14.5 -39 q-33 -43 -36 -44t-50 -19q-35 33 -68.5 51t-33.5 20q-6 2 -23.5 -1t-48.5 40q-4 18 -28.5 103.5t-18.5 105.5q-8 37 -18.5 105.5t-28.5 81.5q-57 84 -53 131q-18 6 -9 57t0 66q0 78 10.5 107.5t30.5 90.5q29 20 64 41t61 45q25 -29 42.5 -59.5t35.5 -61.5q4 -20 -27.5 -101 t-25.5 -99q-20 -55 -7 -65.5t13 -74.5q10 -12 22.5 -58t49.5 -75q4 -4 4 -29.5t6 -25.5q31 -12 34 -37.5t9 -19.5q6 2 16.5 27.5t16.5 35.5q16 25 31 53q6 10 12 30t18 38l-6 2q12 20 14 21q25 49 53.5 100t51.5 104q8 4 19.5 28t21.5 42q2 41 11 73.5t26 77.5 q29 23 63.5 43.5t59.5 45.5q25 -29 43 -60t36 -63q0 -2 9.5 -39t-35.5 -135q-2 -18 -4.5 -57t-10.5 -64z" horiz-adv-x="1390" unicode="w"/><glyph d="M539 780q-14 -6 -35 -8q-31 -25 -57.5 -38t-94.5 -36q-27 -14 -64.5 -43.5t-68.5 -36.5q-4 -6 -7 -10t-5 -8q-70 -25 -122 -64.5t-85 -76.5q0 -4 -24.5 44t-26.5 48q25 57 33 55q49 61 19 25.5t32 23.5q12 18 88 82t84 84q84 45 72.5 55.5t68.5 67.5q2 18 4 33.5t6 32.5 q-8 20 -18 32q-16 4 -23 9q-25 70 -36 159.5t-72 120.5v18.5v20.5q-23 57 -18.5 80t59.5 10q6 -6 14 -15t57 -61q49 -43 107.5 -99t116.5 -107q6 2 31.5 -9.5t33.5 -9.5q43 31 77 40t56 46q31 0 62 10.5t61 16.5q8 12 15 18q57 47 122.5 65.5t133.5 33.5l58 11t60 13 q37 8 44.5 9t13.5 1q-86 -100 -100.5 -118.5t-18.5 -24.5q-39 0 -64.5 -4t-56.5 -31q-12 -18 -22.5 -36.5t-16.5 -39.5q-86 -47 -145.5 -102t-138.5 -111q-4 -18 8 -27t10 -26q4 -18 18 -33q12 -2 5 -9t-1 -9q23 -72 26 -168t65 -127v-19.5v-17.5q27 -16 52 -30.5t46 -43.5 q0 -10 -1 -19t-1 -19q-37 6 -71 11t-66 11q-8 4 -63.5 63.5t-102.5 112.5q-49 43 -63.5 82t-69.5 92z" horiz-adv-x="960" unicode="x"/><glyph d="M299 485q33 80 0 95.5t-57 46.5q-2 20 -28 109t-19 110q-8 41 -20.5 112.5t-31.5 83.5q-27 41 -42 72t-13 68q-18 6 -8 58t0 69q0 82 -5 74.5t17 56.5q31 25 67 45t62 47q27 -31 46.5 -62.5t37.5 -64.5q4 -23 -13.5 -69t-10.5 -66q-23 -57 -9.5 -67.5t15.5 -78.5 q10 -12 14 -61t29 -86q2 -6 11 -46t11 -44q18 -37 27.5 -78t15.5 -37q10 6 45 67.5t52 94.5q6 12 29.5 60t35.5 67h-4q10 23 12 22q25 51 9.5 58.5t7.5 62.5q12 6 27.5 41t23.5 49q16 12 70.5 52t89.5 69q6 -4 12 -11t24 -18q31 -10 41 -10q4 6 10.5 14.5t12.5 18.5h17.5 h21.5l4 4q12 -6 10 -4q-2 -6 -6 -23q-2 0 -6 -4q-12 -25 -25.5 -51t-72.5 -153q-4 -31 -23 -91l-151 -208q-16 -31 -31 -65t-33 -77q-16 -16 -24.5 -37.5t-20.5 -37.5q-25 -53 -20.5 -42t-14.5 -40q-8 -10 -20 -27v1v1q-45 -96 -88 -194.5t-82 -194.5q-31 -84 -56.5 -160 t-54.5 -125q-27 -47 -67 -51q-39 10 -35 14q-18 12 -49 12.5t-19 47.5q16 25 15 45t30 55q43 23 89 134.5t61 199.5q53 104 48 83.5t9 63.5z" horiz-adv-x="770" unicode="y"/><glyph d="M862 1358q18 -12 38 -20.5t20 -14.5q-18 -123 -73.5 -118t-98.5 -77q-98 -135 -189.5 -186t-191.5 -166q-6 -74 131 -99.5t254 -29.5q14 -14 63 -43q39 -10 66.5 -2t68.5 25q6 -6 26.5 -14.5t141.5 -51.5q-6 -4 -13 -6t-50 -10q-2 0 -64.5 -15.5t-64.5 -13.5 q-74 -18 -146.5 -29.5t-148.5 2.5q-6 4 -19 9q-33 -8 -68.5 -11.5t-66.5 -15.5q-92 -4 -95 -6t-89 -8q-10 -4 -39 -8q-47 0 -115.5 46t-138.5 74q-2 23 -2 35q-20 12 -37 17q8 37 45 43t41 47q25 27 117 104.5t192.5 165.5t179 165t78.5 103q-8 2 -18 2t-16 4q-37 6 -116 2 t-114 3q-4 0 -12 4q0 8 -6 14q-37 2 -66.5 6t-60.5 16q-6 2 -12.5 4.5t-12.5 6.5q-27 14 -80 39q4 4 9 6q76 18 197.5 26.5t201.5 12.5q25 27 61.5 21.5t98.5 13.5q2 2 26 -7q37 -4 78 -4q25 -2 45.5 -5t38.5 -21q6 -19 6 -35z" horiz-adv-x="1009" unicode="z"/><glyph d="M186 1538h508q57 0 58 -80v-907q0 -80 -58 -80h-508q-57 0 -57 80v907q0 80 57 80zM197 1524q-53 0 -54 -78v-883q0 -78 54 -78h487q53 0 53 78v883q0 78 -53 78h-487zM248 563v24.5t10 24.5q0 -8 -7 -34.5t13 -20.5q2 4 6 7t9 9v0v2q6 4 10 21.5t6 28.5v47v20l1 1t3 1 q10 -29 12 -32q10 4 23 45h1h3v-1v-1q-6 -29 -10 -56.5t12 -52.5h-1h-1q-12 14 -12 49q2 31 2 33q-2 -4 -3 -7t-1 -5h-1h-1v-3v-1q-2 0 -7 -5q-10 4 -16 27q0 -31 -2 -62.5t-21 -56.5v-1v-1q-18 -16 -28 0zM348 616q0 29 12 31q10 -2 9.5 -12t3.5 -17q2 10 0 21h1h3v-2v-2 q2 0 4 2q0 -4 1 -7l1 -3q8 0 8 8h1h1q2 8 7.5 23.5t0.5 25.5q-12 -6 -14 -8q-2 2 -2 4q4 0 8 3t10 5q2 4 3 14h1h3v-7v-5q18 8 47 19l1 -2l1 -2q-12 -6 -24.5 -10.5t-24.5 -8.5q-2 -12 -5.5 -30.5t7.5 -26.5q8 0 8 16.5v22.5q4 2 8 -4q10 2 16 14h1h1v-6v-4h-1h-1 q0 -33 5 -35q14 2 12 29q2 6 2 18q10 2 12 2q2 -12 -2 -22.5t-2 -16.5q6 -2 14 6v1v1h1h1v35q18 0 15 -2q12 4 14 12h2h2q0 -6 -4 -14q0 -18 6 -27q10 4 10 11q2 0 3 2q0 4 -3 20q8 18 23 6q18 18 25 19l1 -1l1 -1q-16 -12 -23 -17v-3v-1h-1h-1v-24q-8 -6 -18 0 q-10 -25 -23 -9q-2 6 -4 12.5t-2 12.5q-12 -4 -16 -2q0 -43 -27 -39l-4 -4v-3v-1q-20 -16 -27 10q2 6 2 19h-7h-5q0 -8 -2 -26t-16 -9q-4 6 -7 12q-4 -4 -6 -8t-8 -8h-8q-6 -12 -19 -19q-6 2 -12 12zM354 614l1 -2l1 -2q23 2 6 33h-2h-2l-1 -2l-1 -2q0 -6 -1 -12.5t-1 -12.5 zM465 653l1 -1l1 -1q6 14 4 27h-1h-1q-2 -6 -3 -12.5t-1 -12.5zM541 670q2 -2 2 -4q12 2 10 22h-3h-1v-2v0q-4 -4 -6 -4q0 -8 -2 -12zM541 694q6 6 10 0q-4 -4 -8 -6l-1 2t-1 4zM602 612q0 6 1 10.5t1 10.5q4 14 29 39q0 23 1 26l1 4q-20 -14 -17 -8q-6 -4 -8 -5t-4 -1 q-18 6 -14 35t10 41q2 0 2 2q8 20 23 20q14 -20 12 -57v-5v-3q-2 -45 -3 -60.5t-1 -58.5q-23 -23 -33 10zM606 614q2 -12 12 -18l13 6q0 6 1 14.5t1 47.5q-18 -14 -23 -25h-1h-1q0 -6 -1 -12.5t-1 -12.5zM596 709q4 -12 8 -17q14 6 14 10q-18 14 -14 56h-1h-1 q-2 -12 -4 -24.5t-2 -24.5zM606 727q4 -14 15 -22h1t3 2q6 14 12 38.5t-12 38.5q-18 -4 -18.5 -24.5t-0.5 -32.5zM627 705v-3v0q8 6 8 21q-6 -18 -8 -18zM475 733q-18 0 -33 4q-4 16 9 49h-3h-2q-12 -6 -40.5 -17t-28.5 15q6 6 18.5 16.5t18.5 18.5q0 2 -6 43q-4 14 -9 47 q-6 18 -12 30.5t-10 25.5q-6 55 -6 112q4 39 4 43q-14 -25 -19 -43q0 -25 2 -38t-26 -11q-10 20 -8 14q0 8 8 59.5t14 67.5q-2 4 -1 10.5t1 12.5q0 31 3 68.5t36 56.5q-12 16 -12 31q0 14 -2 20q-16 6 -29 10l1 3q1 3 1 5q23 10 27 15q4 14 10 29q27 18 61 -9q6 -18 35 -32 v-5v-2q-14 -8 -22 -10q0 -10 2 -19.5t4 -17.5q23 -6 28 -16q14 -6 27.5 -25.5t22.5 -31.5v-11.5v-11.5q12 -37 20 -86q4 -12 2 -22.5t2 -20.5q0 -18 -3 -33.5t3 -29.5q0 -45 -33 -37q-12 8 -12 32q-4 -27 -8 -43q0 -12 1 -23t1 -24q-6 -12 -3 -29.5t5 -29.5q0 -57 -18 -113 q-2 -31 -4 -35q-5 -4 -17 -12zM471 741q6 2 14 11q0 18 5.5 38.5t5.5 40.5q-20 -4 -35 3q0 -39 -2 -58q-10 -18 -10 -33q4 0 10 -1t12 -1zM406 774q4 2 17 7t15 12q2 2 15 8q0 29 -2 43q-2 6 -2 12q-18 -2 -25 -1l-6 1q0 -12 3 -28.5t-11 -22.5q-4 -8 -15 -14v-1v-2 q-8 -4 -10 -12q6 0 10.5 -1t10.5 -1zM487 836q2 0 5.5 1t7.5 3q0 4 1 10t3 12q-2 20 -5 45t3 45v19.5v19.5q6 47 18 90q0 20 -6 39q6 0 -39 -12q-2 -14 7.5 -29.5t9.5 -31.5q-12 0 -26.5 22.5t-19.5 34.5q-37 0 -57 6h-3h-1q-12 -53 -4 -100t27 -97q-2 0 -2 -2 q2 -12 5 -26.5t13 -20.5q6 0 10 -1t10 -1q-2 12 -3 34t-3 71q-10 31 -21 63.5t-14 67.5h3h4q14 -74 49 -142v-3v-1q0 -2 -1 -2h-1q-4 0 -6 2t-5 4q0 -31 4.5 -67.5t8.5 -42.5q-1 -4 28 -10zM547 1014q14 10 6 41q-16 2 -25 2v-11.5v-11.5q4 -8 4 -16q2 -2 6.5 -3t8.5 -1z M338 1036v11.5v11.5q2 -2 6 -2q0 -6 1 -10.5t3 -8.5h1h1v17.5v19.5q-12 4 -14 4q-6 -25 -2 -43h1h3zM553 1063q2 94 -21 170h-2v0q-2 31 -4 37q-37 41 -63 57v1v3h-5h-3q-16 -27 -25 -31q18 -23 23 -30q0 -10 -4 -35q-6 -2 -13 -2q0 -2 -18 31q-8 25 -15 24q-2 -10 -6 -38.5 t-20 -22.5q-2 6 -5 12t-3 12q-4 -23 0 -45t10 -41q8 -10 45 -16q-6 10 -12 20.5t-6 22.5q16 4 20 4q18 -35 21.5 -41t5.5 -6q31 8 41 10v1v3h1h1q0 8 -11 35q-8 57 -4 88q6 2 11 2q-12 -41 2 -85t28 -79q6 -20 10 -51l-1 -1l-1 -1v-3v-3q15 0 23 -2zM479 1067q-2 6 -14 39 q-4 -2 -12 -2q4 -10 12 -18.5t10 -16.5h1h3v-2v0zM350 1085q8 25 10 37q10 4 11 33q-8 23 -9.5 49.5t-1.5 50.5q4 6 13.5 23.5t15.5 19.5v4v7q-12 -4 -16 -13h-1h-1q-10 -16 -11.5 -22t-5.5 -17q-4 -66 0 -59q0 -25 -12 -65q-2 -12 -3 -22.5t-1 -20.5q10 -3 12 -5zM451 1112 q33 6 40 8t19 8q0 6 -4 13.5t-4 13.5q-63 -23 -121 -2q0 -29 4 -31t31 -6q8 -2 17.5 -3t17.5 -1zM444 1149q-10 23 -20 39q-6 0 -10 -2q12 -25 18 -35q2 0 5 -1t7 -1zM383 1241q12 23 10 49q-26 -16 -10 -49zM442 1243q2 41 -22 51q0 -8 16 -45h1h1q0 -2 1 -4t3 -2z M410 1298q27 16 34 35q-2 0 -4 -1l-2 -1q-8 -29 -41 -22q2 -4 2 -11h4.5h6.5zM412 1315q6 6 16 18.5t23 9.5q-6 25 -7 25q-14 -4 -65 0q-4 -20 3 -39.5t30 -13.5zM436 1374q20 8 27 12v0v3q-6 0 -11.5 3t-9.5 5q-12 31 -55 28q-2 -6 -4 -14t-2 -14q-16 -8 -23 -11v-3v-1 q18 -6 38 -7t40 -1zM379 555h-1h-1h-1t-1 2v0v2q0 2 2 4v1v3l-1 1l-1 1h-1h-1h-1t-1 2l1 1l1 1h1h1q0 4 2 5q2 2 4 2h1h3t2 -2v-2q0 -1 2 -1l-1 -1l-1 -1l-1 1l-1 1h-3h-1v0v0h-1h-1v-2v0h1h1h1h1v0h2v-2v0v0v0v-1v-1h-1h-1h-1h-1h-1h-1v-1v-1v0h2v-1v-1h-1h-1v-1v-1v-3v-1 v0v0v-1v-1q2 0 2 -2h-1h-1zM399 555q-6 0 -6 4v2v4v2v2q2 0 2 -2v-1v-1v0v0v-3v-1v-1v-1v0v0v-1v-1h1h1q0 2 2 2v-2v2h1h1v1v1v1v1v1v1v1v3h1h4v-1v-1v-3v-1v-2v-2v-1v-1v0v0q0 -2 -3 -2v0v0h-3h-1zM420 555h-2v0q-2 0 -4 2h-1t-1 2v1v1q2 2 0 6q0 4 4 4h1h1v0h2v0v0v0h2h1 h1v0h2q-2 -2 0 -2v-1v-1v0v0l1 -1l1 -1v-1v-1l-1 -1l-1 -1v0v0h-2v0h-2v0h-2v0q0 2 -2 0v0v2v1v1v0h2v0h2h1h1v0v0v0v2v0v0h-3h-1h-1h-1h-2v0v0h-1h-1v-2v0h1h1v0v0v-1t2 -1q0 -2 -1 -2h-1l-1 -1l-1 -1v0h2v-3v-1v2h1h1h1h1l1 1t3 1v0h2v0h2v-1v-1h-1h-1q0 -2 -2 -2h-2h-2z M436 555q-2 0 -2 4v4v4v1v1q0 2 2 2h1h1q0 4 4 0v0h2v0v0q2 0 5 -2q0 -2 2 -4v0v0h-1h-1v-1v-1v0h2v-2v0h-1h-1v0v0v-1t2 -1v-1v-1h-1h-1v-2v0q-2 0 -3 2v1v1v1v3v0v2l-1 1l-1 1v0v0q-2 0 -3 1l-1 1l-1 -1l-1 -1v0v0v0v0q-2 0 -2 -1v-1v-3v-1v-3v-1v-2v0zM465 555v1v1h-2v0 q-2 0 -2 1v1q-2 0 -2 4h-2v0l1 1l1 1v0v2v1v1v1v1h-1h-1q-4 0 -4 2l4 5q0 -2 1 -2.5t1 2.5v1v1v1v1q0 2 4 2v-1v-1v-2v0v-2v0q0 -2 2 0l1 -2l1 -1h1h1v-1v-1q0 -2 -2 0v-2v0h-2v0v0v0q-2 0 -2 -1v-1v-2v-2q-2 -2 -1 -2h1v-3v-1l1 1t3 1l1 1l1 1q2 2 2 0v-2v-2q0 -2 -1 -2h-1 q0 2 -2 0l-1 -1zM469 559l1 1l1 1h-2v0v-1v-1zM483 555h-1h-1q-2 0 -4 2h-1t-1 2v1v1q2 2 2 6q-4 4 2 4h1h1v0h2v0v0v0h2h1h1v0h2v-2v0v-1v-1h1h2v-1v-1v-1v-1v-1v-1h-2h-1h-2v0h-1h-1h-2v0v0v0q-2 0 -2 2v1v1h1h1h1h1h1h1v0v0v0v2v0v0h-1h-1h-2v0h-2v0h-2v0v0v0q-2 -2 0 -2 v0v0v0v0l1 -1l1 -1q0 -2 -2 -2v-1v-1q-2 0 -1 0h1v-3v-1l1 1l1 1v0v0h1h1l2 1l2 1v0h2h1h2v-1v-1v0v0q0 -2 -5 -2h-3h-1zM506 557h-1h-1h-3h-1l-1 1t-1 3v1v1l1 -1l1 -1h1h3h1h3q0 2 -2 4h-3h-1q-4 0 -4 2v2l1 2l1 2h2h4q4 0 4 -2h1h1q-2 -2 0 -2v0v0l-1 -1l-1 -1v-1v-1 l1 -1l1 -1v0v0q0 -2 -2 -2v-2v0q0 -2 -4 -2v0v0zM506 567q2 0 2 2h-1h-1q-2 0 -4 2v-1v-1h-2h2v-1v-1v0h2v0h2v0v0z" unicode="{"/><glyph d="M186 1538h508q57 0 58 -80v-907q0 -80 -58 -80h-508q-57 0 -57 80v907q0 80 57 80zM197 1524q-53 0 -54 -78v-883q0 -78 54 -78h487q53 0 53 78v883q0 78 -53 78h-487zM248 563v24.5t10 24.5q0 -8 -7 -34.5t13 -20.5q2 4 6 7t9 9v0v2q6 4 10 21.5t6 28.5v47v20l1 1t3 1 q10 -29 12 -32q10 4 23 45h1h3v-1v-1q-6 -29 -10 -56.5t12 -52.5h-1h-1q-12 14 -12 49q2 31 2 33q-2 -4 -3 -7t-1 -5h-1h-1v-3v-1q-2 0 -7 -5q-10 4 -16 27q0 -31 -2 -62.5t-21 -56.5v-1v-1q-18 -16 -28 0zM348 616q0 29 12 31q10 -2 9.5 -12t3.5 -17q2 10 0 21h1h3v-2v-2 q2 0 4 2q0 -4 1 -7l1 -3q8 0 8 8h1h1q2 8 7.5 23.5t0.5 25.5q-12 -6 -14 -8q-2 2 -2 4q4 0 8 3t10 5q2 4 3 14h1h3v-7v-5q18 8 47 19l1 -2l1 -2q-12 -6 -24.5 -10.5t-24.5 -8.5q-2 -12 -5.5 -30.5t7.5 -26.5q8 0 8 16.5v22.5q4 2 8 -4q10 2 16 14h1h1v-6v-4h-1h-1 q0 -33 5 -35q14 2 12 29q2 6 2 18q10 2 12 2q2 -12 -2 -22.5t-2 -16.5q6 -2 14 6v1v1h1h1v35q18 0 15 -2q12 4 14 12h2h2q0 -6 -4 -14q0 -18 6 -27q10 4 10 11q2 0 3 2q0 4 -3 20q8 18 23 6q18 18 25 19l1 -1l1 -1q-16 -12 -23 -17v-3v-1h-1h-1v-24q-8 -6 -18 0 q-10 -25 -23 -9q-2 6 -4 12.5t-2 12.5q-12 -4 -16 -2q0 -43 -27 -39l-4 -4v-3v-1q-20 -16 -27 10q2 6 2 19h-7h-5q0 -8 -2 -26t-16 -9q-4 6 -7 12q-4 -4 -6 -8t-8 -8h-8q-6 -12 -19 -19q-6 2 -12 12zM354 614l1 -2l1 -2q23 2 6 33h-2h-2l-1 -2l-1 -2q0 -6 -1 -12.5t-1 -12.5 zM465 653l1 -1l1 -1q6 14 4 27h-1h-1q-2 -6 -3 -12.5t-1 -12.5zM541 670q2 -2 2 -4q12 2 10 22h-3h-1v-2v0q-4 -4 -6 -4q0 -8 -2 -12zM541 694q6 6 10 0q-4 -4 -8 -6l-1 2t-1 4zM602 612q0 6 1 10.5t1 10.5q4 14 29 39q0 23 1 26l1 4q-20 -14 -17 -8q-6 -4 -8 -5t-4 -1 q-18 6 -14 35t10 41q2 0 2 2q8 20 23 20q14 -20 12 -57v-5v-3q-2 -45 -3 -60.5t-1 -58.5q-23 -23 -33 10zM606 614q2 -12 12 -18l13 6q0 6 1 14.5t1 47.5q-18 -14 -23 -25h-1h-1q0 -6 -1 -12.5t-1 -12.5zM596 709q4 -12 8 -17q14 6 14 10q-18 14 -14 56h-1h-1 q-2 -12 -4 -24.5t-2 -24.5zM606 727q4 -14 15 -22h1t3 2q6 14 12 38.5t-12 38.5q-18 -4 -18.5 -24.5t-0.5 -32.5zM627 705v-3v0q8 6 8 21q-6 -18 -8 -18zM475 733q-18 0 -33 4q-4 16 9 49h-3h-2q-12 -6 -40.5 -17t-28.5 15q6 6 18.5 16.5t18.5 18.5q0 2 -6 43q-4 14 -9 47 q-6 18 -12 30.5t-10 25.5q-6 55 -6 112q4 39 4 43q-14 -25 -19 -43q0 -25 2 -38t-26 -11q-10 20 -8 14q0 8 8 59.5t14 67.5q-2 4 -1 10.5t1 12.5q0 31 3 68.5t36 56.5q-12 16 -12 31q0 14 -2 20q-16 6 -29 10l1 3q1 3 1 5q23 10 27 15q4 14 10 29q27 18 61 -9q6 -18 35 -32 v-5v-2q-14 -8 -22 -10q0 -10 2 -19.5t4 -17.5q23 -6 28 -16q14 -6 27.5 -25.5t22.5 -31.5v-11.5v-11.5q12 -37 20 -86q4 -12 2 -22.5t2 -20.5q0 -18 -3 -33.5t3 -29.5q0 -45 -33 -37q-12 8 -12 32q-4 -27 -8 -43q0 -12 1 -23t1 -24q-6 -12 -3 -29.5t5 -29.5q0 -57 -18 -113 q-2 -31 -4 -35q-5 -4 -17 -12zM471 741q6 2 14 11q0 18 5.5 38.5t5.5 40.5q-20 -4 -35 3q0 -39 -2 -58q-10 -18 -10 -33q4 0 10 -1t12 -1zM406 774q4 2 17 7t15 12q2 2 15 8q0 29 -2 43q-2 6 -2 12q-18 -2 -25 -1l-6 1q0 -12 3 -28.5t-11 -22.5q-4 -8 -15 -14v-1v-2 q-8 -4 -10 -12q6 0 10.5 -1t10.5 -1zM487 836q2 0 5.5 1t7.5 3q0 4 1 10t3 12q-2 20 -5 45t3 45v19.5v19.5q6 47 18 90q0 20 -6 39q6 0 -39 -12q-2 -14 7.5 -29.5t9.5 -31.5q-12 0 -26.5 22.5t-19.5 34.5q-37 0 -57 6h-3h-1q-12 -53 -4 -100t27 -97q-2 0 -2 -2 q2 -12 5 -26.5t13 -20.5q6 0 10 -1t10 -1q-2 12 -3 34t-3 71q-10 31 -21 63.5t-14 67.5h3h4q14 -74 49 -142v-3v-1q0 -2 -1 -2h-1q-4 0 -6 2t-5 4q0 -31 4.5 -67.5t8.5 -42.5q-1 -4 28 -10zM547 1014q14 10 6 41q-16 2 -25 2v-11.5v-11.5q4 -8 4 -16q2 -2 6.5 -3t8.5 -1z M338 1036v11.5v11.5q2 -2 6 -2q0 -6 1 -10.5t3 -8.5h1h1v17.5v19.5q-12 4 -14 4q-6 -25 -2 -43h1h3zM553 1063q2 94 -21 170h-2v0q-2 31 -4 37q-37 41 -63 57v1v3h-5h-3q-16 -27 -25 -31q18 -23 23 -30q0 -10 -4 -35q-6 -2 -13 -2q0 -2 -18 31q-8 25 -15 24q-2 -10 -6 -38.5 t-20 -22.5q-2 6 -5 12t-3 12q-4 -23 0 -45t10 -41q8 -10 45 -16q-6 10 -12 20.5t-6 22.5q16 4 20 4q18 -35 21.5 -41t5.5 -6q31 8 41 10v1v3h1h1q0 8 -11 35q-8 57 -4 88q6 2 11 2q-12 -41 2 -85t28 -79q6 -20 10 -51l-1 -1l-1 -1v-3v-3q15 0 23 -2zM479 1067q-2 6 -14 39 q-4 -2 -12 -2q4 -10 12 -18.5t10 -16.5h1h3v-2v0zM350 1085q8 25 10 37q10 4 11 33q-8 23 -9.5 49.5t-1.5 50.5q4 6 13.5 23.5t15.5 19.5v4v7q-12 -4 -16 -13h-1h-1q-10 -16 -11.5 -22t-5.5 -17q-4 -66 0 -59q0 -25 -12 -65q-2 -12 -3 -22.5t-1 -20.5q10 -3 12 -5zM451 1112 q33 6 40 8t19 8q0 6 -4 13.5t-4 13.5q-63 -23 -121 -2q0 -29 4 -31t31 -6q8 -2 17.5 -3t17.5 -1zM444 1149q-10 23 -20 39q-6 0 -10 -2q12 -25 18 -35q2 0 5 -1t7 -1zM383 1241q12 23 10 49q-26 -16 -10 -49zM442 1243q2 41 -22 51q0 -8 16 -45h1h1q0 -2 1 -4t3 -2z M410 1298q27 16 34 35q-2 0 -4 -1l-2 -1q-8 -29 -41 -22q2 -4 2 -11h4.5h6.5zM412 1315q6 6 16 18.5t23 9.5q-6 25 -7 25q-14 -4 -65 0q-4 -20 3 -39.5t30 -13.5zM436 1374q20 8 27 12v0v3q-6 0 -11.5 3t-9.5 5q-12 31 -55 28q-2 -6 -4 -14t-2 -14q-16 -8 -23 -11v-3v-1 q18 -6 38 -7t40 -1zM379 555h-1h-1h-1t-1 2v0v2q0 2 2 4v1v3l-1 1l-1 1h-1h-1h-1t-1 2l1 1l1 1h1h1q0 4 2 5q2 2 4 2h1h3t2 -2v-2q0 -1 2 -1l-1 -1l-1 -1l-1 1l-1 1h-3h-1v0v0h-1h-1v-2v0h1h1h1h1v0h2v-2v0v0v0v-1v-1h-1h-1h-1h-1h-1h-1v-1v-1v0h2v-1v-1h-1h-1v-1v-1v-3v-1 v0v0v-1v-1q2 0 2 -2h-1h-1zM399 555q-6 0 -6 4v2v4v2v2q2 0 2 -2v-1v-1v0v0v-3v-1v-1v-1v0v0v-1v-1h1h1q0 2 2 2v-2v2h1h1v1v1v1v1v1v1v1v3h1h4v-1v-1v-3v-1v-2v-2v-1v-1v0v0q0 -2 -3 -2v0v0h-3h-1zM420 555h-2v0q-2 0 -4 2h-1t-1 2v1v1q2 2 0 6q0 4 4 4h1h1v0h2v0v0v0h2h1 h1v0h2q-2 -2 0 -2v-1v-1v0v0l1 -1l1 -1v-1v-1l-1 -1l-1 -1v0v0h-2v0h-2v0h-2v0q0 2 -2 0v0v2v1v1v0h2v0h2h1h1v0v0v0v2v0v0h-3h-1h-1h-1h-2v0v0h-1h-1v-2v0h1h1v0v0v-1t2 -1q0 -2 -1 -2h-1l-1 -1l-1 -1v0h2v-3v-1v2h1h1h1h1l1 1t3 1v0h2v0h2v-1v-1h-1h-1q0 -2 -2 -2h-2h-2z M436 555q-2 0 -2 4v4v4v1v1q0 2 2 2h1h1q0 4 4 0v0h2v0v0q2 0 5 -2q0 -2 2 -4v0v0h-1h-1v-1v-1v0h2v-2v0h-1h-1v0v0v-1t2 -1v-1v-1h-1h-1v-2v0q-2 0 -3 2v1v1v1v3v0v2l-1 1l-1 1v0v0q-2 0 -3 1l-1 1l-1 -1l-1 -1v0v0v0v0q-2 0 -2 -1v-1v-3v-1v-3v-1v-2v0zM465 555v1v1h-2v0 q-2 0 -2 1v1q-2 0 -2 4h-2v0l1 1l1 1v0v2v1v1v1v1h-1h-1q-4 0 -4 2l4 5q0 -2 1 -2.5t1 2.5v1v1v1v1q0 2 4 2v-1v-1v-2v0v-2v0q0 -2 2 0l1 -2l1 -1h1h1v-1v-1q0 -2 -2 0v-2v0h-2v0v0v0q-2 0 -2 -1v-1v-2v-2q-2 -2 -1 -2h1v-3v-1l1 1t3 1l1 1l1 1q2 2 2 0v-2v-2q0 -2 -1 -2h-1 q0 2 -2 0l-1 -1zM469 559l1 1l1 1h-2v0v-1v-1zM483 555h-1h-1q-2 0 -4 2h-1t-1 2v1v1q2 2 2 6q-4 4 2 4h1h1v0h2v0v0v0h2h1h1v0h2v-2v0v-1v-1h1h2v-1v-1v-1v-1v-1v-1h-2h-1h-2v0h-1h-1h-2v0v0v0q-2 0 -2 2v1v1h1h1h1h1h1h1v0v0v0v2v0v0h-1h-1h-2v0h-2v0h-2v0v0v0q-2 -2 0 -2 v0v0v0v0l1 -1l1 -1q0 -2 -2 -2v-1v-1q-2 0 -1 0h1v-3v-1l1 1l1 1v0v0h1h1l2 1l2 1v0h2h1h2v-1v-1v0v0q0 -2 -5 -2h-3h-1zM506 557h-1h-1h-3h-1l-1 1t-1 3v1v1l1 -1l1 -1h1h3h1h3q0 2 -2 4h-3h-1q-4 0 -4 2v2l1 2l1 2h2h4q4 0 4 -2h1h1q-2 -2 0 -2v0v0l-1 -1l-1 -1v-1v-1 l1 -1l1 -1v0v0q0 -2 -2 -2v-2v0q0 -2 -4 -2v0v0zM506 567q2 0 2 2h-1h-1q-2 0 -4 2v-1v-1h-2h2v-1v-1v0h2v0h2v0v0z" unicode="}"/><glyph d="M717 1661q2 -4 6 -8q-8 -18 -19.5 -32.5t-15.5 -33.5q6 -14 13.5 -27.5t13.5 -25.5q-8 -39 -47 -94q-18 -12 -91 -33t-96 -16l-26 16l-33 51l27 39l-37 -2q10 18 21 38.5t38 45.5q-2 -2 10 16q2 4 5 15.5t8 17.5q2 6 29.5 29.5t31.5 30.5q2 6 41 6t41 6zM475 1053 q0 -12 -18.5 -42t-12.5 -36q-29 -53 -42 -117.5t-40 -116.5l-40 -174q0 4 -13 -14q-6 -10 -24 -51q-10 -18 -35 -87t-33 -93q-12 -27 -36.5 -56.5t-33.5 -62.5q-12 -31 -29.5 -28t-35.5 1l-84 -18q-18 -6 -32.5 16.5t-20.5 48.5q-6 25 7 71t25 83q43 109 39 101.5t50 80.5 l30 63l31 64l88 150q49 104 51 164.5t82 146.5l26 57q27 58 29 58q12 -12 43 -10.5t31 -28.5q4 -4 13.5 -11.5t15.5 -7.5v-39v-39q6 0 -10.5 -29.5t-20.5 -43.5z" horiz-adv-x="593" unicode=""/><glyph d="M338 1358q-12 23 -34.5 49.5t-35.5 42.5l-1 35l-1 35q6 0 14.5 -4.5t16.5 -2.5q4 -6 -3 17.5t-1 19.5q6 0 25.5 15.5t27.5 17.5q27 -27 29 -24q27 -20 35 -50t22 -41q0 -2 8 -18q16 -14 31 -37q6 -29 16.5 -20.5t10.5 -34.5q12 -14 54 -81t48 -60q43 59 65.5 103 t59.5 132q12 6 35.5 38t32.5 46q18 14 31.5 17t49.5 34q47 -25 101 -35q6 -25 -16.5 -55.5t-49.5 -97.5q-49 -70 -52 -69t-73 -95q23 -2 63 -3t58.5 -3t-3 -2t-120.5 2l1 1t1 3q18 -2 70.5 -4t146.5 -6h23q0 -2 -2 -11l-2 -8q-2 0 -14 1l-11 1q4 -4 25 -16l-8 -2h-6 q4 -6 4 -8t6 -9q-6 -12 -8 -23t-2 -15q-31 -10 -80 -15.5t-64 -9.5q-43 0 -78.5 -1t-66.5 -1q-6 -8 -6 -9t-15 -38q-12 -18 -20 -27q0 -2 0 -1v1q-6 -10 -10 -19t-9 -18q12 0 24.5 1t18.5 1q12 -6 80 -9t92 -11q0 -25 6.5 -45.5t-8.5 -20.5q-2 0 -32 -7l-29 -7 q-16 0 -25.5 -8t-95.5 -8h-26h-56q-31 -66 -44 -93.5t-38 -89.5q-25 -72 -31 -86t-18 -37l-3 -6l-1 -2q-10 -25 -36.5 -98.5t-31.5 -91.5l-14 -2q-14 -2 -14 0q-6 6 -31 -1t-29 -1q0 6 -1 29.5t1 31.5q-6 2 8.5 14.5t8.5 18.5q-14 2 -24.5 1t-14.5 1q-2 31 15.5 56.5 t17.5 43.5q4 10 29.5 58.5t25.5 60.5q12 33 16 55q0 8 2 22.5t7 37.5q2 6 5 12t7 12l1 2q1 2 1 5q0 2 6 17t6 19l1 2q1 2 1 5q-182 -6 -244 4q-12 0 -51 6t-61 16q-2 4 -3 15.5t-5 23.5q12 18 8 14q-8 2 -12 2q12 12 20 19q-2 0 -11 -1l-9 -1q0 12 -5 16q12 2 19 0 q111 8 216 9t185 1q8 49 -20.5 63.5t-50.5 41.5q-45 0 -63.5 1t-113.5 3h-129.5t-42.5 2q-2 -2 -3 -2h-1q-12 0 -18 2l1 1q1 1 1 3q2 2 4 2q8 12 14 19q18 0 29 2q0 4 2 9t4 11q-2 10 -5 14.5t-3 10.5q31 8 74 23.5t59 21.5q10 0 38 -2t38 4q16 -2 51 0t60 4q-20 35 -44 78 t-24 45z" horiz-adv-x="997" unicode=""/><glyph d="M651 944q-12 -6 -10 -4q-2 0 -3 1t-1 3q-12 -2 -27.5 -2t-85.5 -2l-58 -1t-58 1q-18 0 -37 -1t-37 -1q-92 -25 -110.5 -13.5t-104.5 15.5q-10 6 -40 12t-44 19q0 6 3 20.5t5 32.5l12 20q-6 0 -5 0t-3 3q6 6 11 12t12 12l-8 -2l-9 -2q0 2 2 11t2 14h15q100 6 122.5 11 t122.5 5h26.5h18.5q12 0 19 2q0 -2 2 -3t4 -1h2h4q23 0 25 -2q27 0 55.5 -3t58.5 1q4 -6 22.5 -5t25.5 1q8 -6 30.5 -26.5t38.5 -33.5q-2 -6 -6 -12t-8 -18q0 -8 -4 -29q4 0 8 -1t10 -1q0 -16 2 -25l1 -1l1 -1q0 -4 -2 -6z" horiz-adv-x="706" unicode=""/><glyph d="M760 1661q0 -2 2 -5t4 -3q-8 -18 -19.5 -31.5t-15.5 -32.5q10 -27 27 -53q-8 -39 -47 -90q-18 -14 -89 -33.5t-94 -15.5l-26 16l-31 49l25 39l-37 -2q10 18 21.5 37.5t37.5 44.5q0 2 3 6t7 10q2 4 5.5 15.5t7.5 17.5q2 6 28.5 28.5t30.5 29.5q2 6 40 6t40 6zM240 827 q-14 -57 -29.5 -91t-3.5 -56q0 -96 69 -188q61 -72 71.5 -103t117.5 -33q0 4 17.5 28t39.5 54q20 27 39 51.5t19 30.5l53 12l4 -79l57 -9q-18 -45 -38.5 -121.5t-69.5 -86.5q-2 -2 -5 -29t-69 -41q-20 -2 -57 -6q-68 0 -56.5 -5t-40.5 31q-18 33 -67 64t-68 63 q-35 53 -45 58.5t-47 56.5q-2 -4 -32.5 49t-30.5 51q-39 80 -27 96.5t0 84.5q6 59 19.5 67t39.5 101q8 27 21 84q0 14 45 63t47 68q6 14 49 7t51 9q41 8 68 12q2 8 6 16.5t8 20.5q2 -2 28 54.5t28 56.5q12 -12 41.5 -9t29.5 -28q12 -6 31 -19q0 -25 -1 -39t-1 -36 q8 0 -8.5 -30t-22.5 -44q2 -12 -16.5 -41t-11.5 -35q-14 -68 -78 -55q-47 -29 -89 -51.5t-85 -53.5z" horiz-adv-x="706" unicode=""/><glyph d="M186 1538h508q57 0 58 -80v-907q0 -80 -58 -80h-508q-57 0 -57 80v907q0 80 57 80zM197 1524q-53 0 -54 -78v-883q0 -78 54 -78h487q53 0 53 78v883q0 78 -53 78h-487zM248 563v24.5t10 24.5q0 -8 -7 -34.5t13 -20.5q2 4 6 7t9 9v0v2q6 4 10 21.5t6 28.5v47v20l1 1t3 1 q10 -29 12 -32q10 4 23 45h1h3v-1v-1q-6 -29 -10 -56.5t12 -52.5h-1h-1q-12 14 -12 49q2 31 2 33q-2 -4 -3 -7t-1 -5h-1h-1v-3v-1q-2 0 -7 -5q-10 4 -16 27q0 -31 -2 -62.5t-21 -56.5v-1v-1q-18 -16 -28 0zM348 616q0 29 12 31q10 -2 9.5 -12t3.5 -17q2 10 0 21h1h3v-2v-2 q2 0 4 2q0 -4 1 -7l1 -3q8 0 8 8h1h1q2 8 7.5 23.5t0.5 25.5q-12 -6 -14 -8q-2 2 -2 4q4 0 8 3t10 5q2 4 3 14h1h3v-7v-5q18 8 47 19l1 -2l1 -2q-12 -6 -24.5 -10.5t-24.5 -8.5q-2 -12 -5.5 -30.5t7.5 -26.5q8 0 8 16.5v22.5q4 2 8 -4q10 2 16 14h1h1v-6v-4h-1h-1 q0 -33 5 -35q14 2 12 29q2 6 2 18q10 2 12 2q2 -12 -2 -22.5t-2 -16.5q6 -2 14 6v1v1h1h1v35q18 0 15 -2q12 4 14 12h2h2q0 -6 -4 -14q0 -18 6 -27q10 4 10 11q2 0 3 2q0 4 -3 20q8 18 23 6q18 18 25 19l1 -1l1 -1q-16 -12 -23 -17v-3v-1h-1h-1v-24q-8 -6 -18 0 q-10 -25 -23 -9q-2 6 -4 12.5t-2 12.5q-12 -4 -16 -2q0 -43 -27 -39l-4 -4v-3v-1q-20 -16 -27 10q2 6 2 19h-7h-5q0 -8 -2 -26t-16 -9q-4 6 -7 12q-4 -4 -6 -8t-8 -8h-8q-6 -12 -19 -19q-6 2 -12 12zM354 614l1 -2l1 -2q23 2 6 33h-2h-2l-1 -2l-1 -2q0 -6 -1 -12.5t-1 -12.5 zM465 653l1 -1l1 -1q6 14 4 27h-1h-1q-2 -6 -3 -12.5t-1 -12.5zM541 670q2 -2 2 -4q12 2 10 22h-3h-1v-2v0q-4 -4 -6 -4q0 -8 -2 -12zM541 694q6 6 10 0q-4 -4 -8 -6l-1 2t-1 4zM602 612q0 6 1 10.5t1 10.5q4 14 29 39q0 23 1 26l1 4q-20 -14 -17 -8q-6 -4 -8 -5t-4 -1 q-18 6 -14 35t10 41q2 0 2 2q8 20 23 20q14 -20 12 -57v-5v-3q-2 -45 -3 -60.5t-1 -58.5q-23 -23 -33 10zM606 614q2 -12 12 -18l13 6q0 6 1 14.5t1 47.5q-18 -14 -23 -25h-1h-1q0 -6 -1 -12.5t-1 -12.5zM596 709q4 -12 8 -17q14 6 14 10q-18 14 -14 56h-1h-1 q-2 -12 -4 -24.5t-2 -24.5zM606 727q4 -14 15 -22h1t3 2q6 14 12 38.5t-12 38.5q-18 -4 -18.5 -24.5t-0.5 -32.5zM627 705v-3v0q8 6 8 21q-6 -18 -8 -18zM475 733q-18 0 -33 4q-4 16 9 49h-3h-2q-12 -6 -40.5 -17t-28.5 15q6 6 18.5 16.5t18.5 18.5q0 2 -6 43q-4 14 -9 47 q-6 18 -12 30.5t-10 25.5q-6 55 -6 112q4 39 4 43q-14 -25 -19 -43q0 -25 2 -38t-26 -11q-10 20 -8 14q0 8 8 59.5t14 67.5q-2 4 -1 10.5t1 12.5q0 31 3 68.5t36 56.5q-12 16 -12 31q0 14 -2 20q-16 6 -29 10l1 3q1 3 1 5q23 10 27 15q4 14 10 29q27 18 61 -9q6 -18 35 -32 v-5v-2q-14 -8 -22 -10q0 -10 2 -19.5t4 -17.5q23 -6 28 -16q14 -6 27.5 -25.5t22.5 -31.5v-11.5v-11.5q12 -37 20 -86q4 -12 2 -22.5t2 -20.5q0 -18 -3 -33.5t3 -29.5q0 -45 -33 -37q-12 8 -12 32q-4 -27 -8 -43q0 -12 1 -23t1 -24q-6 -12 -3 -29.5t5 -29.5q0 -57 -18 -113 q-2 -31 -4 -35q-5 -4 -17 -12zM471 741q6 2 14 11q0 18 5.5 38.5t5.5 40.5q-20 -4 -35 3q0 -39 -2 -58q-10 -18 -10 -33q4 0 10 -1t12 -1zM406 774q4 2 17 7t15 12q2 2 15 8q0 29 -2 43q-2 6 -2 12q-18 -2 -25 -1l-6 1q0 -12 3 -28.5t-11 -22.5q-4 -8 -15 -14v-1v-2 q-8 -4 -10 -12q6 0 10.5 -1t10.5 -1zM487 836q2 0 5.5 1t7.5 3q0 4 1 10t3 12q-2 20 -5 45t3 45v19.5v19.5q6 47 18 90q0 20 -6 39q6 0 -39 -12q-2 -14 7.5 -29.5t9.5 -31.5q-12 0 -26.5 22.5t-19.5 34.5q-37 0 -57 6h-3h-1q-12 -53 -4 -100t27 -97q-2 0 -2 -2 q2 -12 5 -26.5t13 -20.5q6 0 10 -1t10 -1q-2 12 -3 34t-3 71q-10 31 -21 63.5t-14 67.5h3h4q14 -74 49 -142v-3v-1q0 -2 -1 -2h-1q-4 0 -6 2t-5 4q0 -31 4.5 -67.5t8.5 -42.5q-1 -4 28 -10zM547 1014q14 10 6 41q-16 2 -25 2v-11.5v-11.5q4 -8 4 -16q2 -2 6.5 -3t8.5 -1z M338 1036v11.5v11.5q2 -2 6 -2q0 -6 1 -10.5t3 -8.5h1h1v17.5v19.5q-12 4 -14 4q-6 -25 -2 -43h1h3zM553 1063q2 94 -21 170h-2v0q-2 31 -4 37q-37 41 -63 57v1v3h-5h-3q-16 -27 -25 -31q18 -23 23 -30q0 -10 -4 -35q-6 -2 -13 -2q0 -2 -18 31q-8 25 -15 24q-2 -10 -6 -38.5 t-20 -22.5q-2 6 -5 12t-3 12q-4 -23 0 -45t10 -41q8 -10 45 -16q-6 10 -12 20.5t-6 22.5q16 4 20 4q18 -35 21.5 -41t5.5 -6q31 8 41 10v1v3h1h1q0 8 -11 35q-8 57 -4 88q6 2 11 2q-12 -41 2 -85t28 -79q6 -20 10 -51l-1 -1l-1 -1v-3v-3q15 0 23 -2zM479 1067q-2 6 -14 39 q-4 -2 -12 -2q4 -10 12 -18.5t10 -16.5h1h3v-2v0zM350 1085q8 25 10 37q10 4 11 33q-8 23 -9.5 49.5t-1.5 50.5q4 6 13.5 23.5t15.5 19.5v4v7q-12 -4 -16 -13h-1h-1q-10 -16 -11.5 -22t-5.5 -17q-4 -66 0 -59q0 -25 -12 -65q-2 -12 -3 -22.5t-1 -20.5q10 -3 12 -5zM451 1112 q33 6 40 8t19 8q0 6 -4 13.5t-4 13.5q-63 -23 -121 -2q0 -29 4 -31t31 -6q8 -2 17.5 -3t17.5 -1zM444 1149q-10 23 -20 39q-6 0 -10 -2q12 -25 18 -35q2 0 5 -1t7 -1zM383 1241q12 23 10 49q-26 -16 -10 -49zM442 1243q2 41 -22 51q0 -8 16 -45h1h1q0 -2 1 -4t3 -2z M410 1298q27 16 34 35q-2 0 -4 -1l-2 -1q-8 -29 -41 -22q2 -4 2 -11h4.5h6.5zM412 1315q6 6 16 18.5t23 9.5q-6 25 -7 25q-14 -4 -65 0q-4 -20 3 -39.5t30 -13.5zM436 1374q20 8 27 12v0v3q-6 0 -11.5 3t-9.5 5q-12 31 -55 28q-2 -6 -4 -14t-2 -14q-16 -8 -23 -11v-3v-1 q18 -6 38 -7t40 -1zM379 555h-1h-1h-1t-1 2v0v2q0 2 2 4v1v3l-1 1l-1 1h-1h-1h-1t-1 2l1 1l1 1h1h1q0 4 2 5q2 2 4 2h1h3t2 -2v-2q0 -1 2 -1l-1 -1l-1 -1l-1 1l-1 1h-3h-1v0v0h-1h-1v-2v0h1h1h1h1v0h2v-2v0v0v0v-1v-1h-1h-1h-1h-1h-1h-1v-1v-1v0h2v-1v-1h-1h-1v-1v-1v-3v-1 v0v0v-1v-1q2 0 2 -2h-1h-1zM399 555q-6 0 -6 4v2v4v2v2q2 0 2 -2v-1v-1v0v0v-3v-1v-1v-1v0v0v-1v-1h1h1q0 2 2 2v-2v2h1h1v1v1v1v1v1v1v1v3h1h4v-1v-1v-3v-1v-2v-2v-1v-1v0v0q0 -2 -3 -2v0v0h-3h-1zM420 555h-2v0q-2 0 -4 2h-1t-1 2v1v1q2 2 0 6q0 4 4 4h1h1v0h2v0v0v0h2h1 h1v0h2q-2 -2 0 -2v-1v-1v0v0l1 -1l1 -1v-1v-1l-1 -1l-1 -1v0v0h-2v0h-2v0h-2v0q0 2 -2 0v0v2v1v1v0h2v0h2h1h1v0v0v0v2v0v0h-3h-1h-1h-1h-2v0v0h-1h-1v-2v0h1h1v0v0v-1t2 -1q0 -2 -1 -2h-1l-1 -1l-1 -1v0h2v-3v-1v2h1h1h1h1l1 1t3 1v0h2v0h2v-1v-1h-1h-1q0 -2 -2 -2h-2h-2z M436 555q-2 0 -2 4v4v4v1v1q0 2 2 2h1h1q0 4 4 0v0h2v0v0q2 0 5 -2q0 -2 2 -4v0v0h-1h-1v-1v-1v0h2v-2v0h-1h-1v0v0v-1t2 -1v-1v-1h-1h-1v-2v0q-2 0 -3 2v1v1v1v3v0v2l-1 1l-1 1v0v0q-2 0 -3 1l-1 1l-1 -1l-1 -1v0v0v0v0q-2 0 -2 -1v-1v-3v-1v-3v-1v-2v0zM465 555v1v1h-2v0 q-2 0 -2 1v1q-2 0 -2 4h-2v0l1 1l1 1v0v2v1v1v1v1h-1h-1q-4 0 -4 2l4 5q0 -2 1 -2.5t1 2.5v1v1v1v1q0 2 4 2v-1v-1v-2v0v-2v0q0 -2 2 0l1 -2l1 -1h1h1v-1v-1q0 -2 -2 0v-2v0h-2v0v0v0q-2 0 -2 -1v-1v-2v-2q-2 -2 -1 -2h1v-3v-1l1 1t3 1l1 1l1 1q2 2 2 0v-2v-2q0 -2 -1 -2h-1 q0 2 -2 0l-1 -1zM469 559l1 1l1 1h-2v0v-1v-1zM483 555h-1h-1q-2 0 -4 2h-1t-1 2v1v1q2 2 2 6q-4 4 2 4h1h1v0h2v0v0v0h2h1h1v0h2v-2v0v-1v-1h1h2v-1v-1v-1v-1v-1v-1h-2h-1h-2v0h-1h-1h-2v0v0v0q-2 0 -2 2v1v1h1h1h1h1h1h1v0v0v0v2v0v0h-1h-1h-2v0h-2v0h-2v0v0v0q-2 -2 0 -2 v0v0v0v0l1 -1l1 -1q0 -2 -2 -2v-1v-1q-2 0 -1 0h1v-3v-1l1 1l1 1v0v0h1h1l2 1l2 1v0h2h1h2v-1v-1v0v0q0 -2 -5 -2h-3h-1zM506 557h-1h-1h-3h-1l-1 1t-1 3v1v1l1 -1l1 -1h1h3h1h3q0 2 -2 4h-3h-1q-4 0 -4 2v2l1 2l1 2h2h4q4 0 4 -2h1h1q-2 -2 0 -2v0v0l-1 -1l-1 -1v-1v-1 l1 -1l1 -1v0v0q0 -2 -2 -2v-2v0q0 -2 -4 -2v0v0zM506 567q2 0 2 2h-1h-1q-2 0 -4 2v-1v-1h-2h2v-1v-1v0h2v0h2v0v0z" unicode=""/><glyph d="M1163 594q-84 37 -208 -99.5t-210 -191.5q-2 2 -8 2q6 31 16.5 60.5t10.5 62.5q-10 4 -23 8q-2 25 -4 49.5t-2 49.5h-30.5h-26.5q-6 -10 -11 -18.5t-34 -45.5q-98 -92 -119.5 -113.5t-52.5 -54.5q-14 -4 -55 -11t-48 -11q-20 -2 -37.5 -3.5t-101.5 -1.5q-4 6 -14 41 q-51 6 -100.5 28t-73.5 71q-2 2 -6 2q-6 18 -23 55q-12 68 -1 133.5t36 128.5q57 51 115 109q104 109 198 225.5t189 235.5q25 -4 47 -13.5t47 -9.5q14 12 29.5 25.5t31.5 25.5q33 2 68 -7t67 -21q66 -55 66 -117q10 2 20.5 5t22.5 7q66 39 99.5 108.5t80.5 131.5h2h6 q47 -61 125 -80q0 -49 -7 -76t-32 -70q-25 -35 -34 -46t-35 -42q-6 -14 -21.5 -46.5t-15.5 -45.5q-25 -57 -35 -88t-51 -139q100 2 172 35q18 10 52 7t50 -7zM477 778v20.5v22.5q68 49 125 105.5t57 148.5q-47 16 -108 17q-43 -53 -85 -106.5t-85 -106.5 q-57 -86 -117.5 -199t-36.5 -221q37 0 82 15t86 24q0 10 2 19t4 22q78 37 151 85t83 146q-16 -10 -33.5 -21.5t-34.5 -11.5q-14 18 -24 41h-34h-32zM805 1579q-10 6 -18.5 13t-16.5 16q4 8 8 17t10 20q-23 20 -37 36.5t-16 44.5q6 27 25.5 41.5t44.5 28.5q29 16 38 21.5 t36 23.5q20 20 24 21q68 12 100.5 36.5t73.5 12.5q80 37 162 69.5t168 53.5h4h6q-16 -20 -30.5 -41t-28.5 -41q-6 -6 -19 -23q-27 -31 -54.5 -50t-57.5 -38q-2 -8 0 -16q-6 -10 -8 -10q-35 -25 -72 -40.5t-68 -37.5q-6 -8 -15 -13.5t-15 -11.5q-43 -14 -46.5 -27.5 t-58.5 -25.5q-4 0 -24.5 -20.5t-20.5 -16.5q-33 -14 -94 -43z" horiz-adv-x="1161" unicode=""/><glyph d="M186 1538h508q57 0 58 -80v-907q0 -80 -58 -80h-508q-57 0 -57 80v907q0 80 57 80zM197 1524q-53 0 -54 -78v-883q0 -78 54 -78h487q53 0 53 78v883q0 78 -53 78h-487zM248 563v24.5t10 24.5q0 -8 -7 -34.5t13 -20.5q2 4 6 7t9 9v0v2q6 4 10 21.5t6 28.5v47v20l1 1t3 1 q10 -29 12 -32q10 4 23 45h1h3v-1v-1q-6 -29 -10 -56.5t12 -52.5h-1h-1q-12 14 -12 49q2 31 2 33q-2 -4 -3 -7t-1 -5h-1h-1v-3v-1q-2 0 -7 -5q-10 4 -16 27q0 -31 -2 -62.5t-21 -56.5v-1v-1q-18 -16 -28 0zM348 616q0 29 12 31q10 -2 9.5 -12t3.5 -17q2 10 0 21h1h3v-2v-2 q2 0 4 2q0 -4 1 -7l1 -3q8 0 8 8h1h1q2 8 7.5 23.5t0.5 25.5q-12 -6 -14 -8q-2 2 -2 4q4 0 8 3t10 5q2 4 3 14h1h3v-7v-5q18 8 47 19l1 -2l1 -2q-12 -6 -24.5 -10.5t-24.5 -8.5q-2 -12 -5.5 -30.5t7.5 -26.5q8 0 8 16.5v22.5q4 2 8 -4q10 2 16 14h1h1v-6v-4h-1h-1 q0 -33 5 -35q14 2 12 29q2 6 2 18q10 2 12 2q2 -12 -2 -22.5t-2 -16.5q6 -2 14 6v1v1h1h1v35q18 0 15 -2q12 4 14 12h2h2q0 -6 -4 -14q0 -18 6 -27q10 4 10 11q2 0 3 2q0 4 -3 20q8 18 23 6q18 18 25 19l1 -1l1 -1q-16 -12 -23 -17v-3v-1h-1h-1v-24q-8 -6 -18 0 q-10 -25 -23 -9q-2 6 -4 12.5t-2 12.5q-12 -4 -16 -2q0 -43 -27 -39l-4 -4v-3v-1q-20 -16 -27 10q2 6 2 19h-7h-5q0 -8 -2 -26t-16 -9q-4 6 -7 12q-4 -4 -6 -8t-8 -8h-8q-6 -12 -19 -19q-6 2 -12 12zM354 614l1 -2l1 -2q23 2 6 33h-2h-2l-1 -2l-1 -2q0 -6 -1 -12.5t-1 -12.5 zM465 653l1 -1l1 -1q6 14 4 27h-1h-1q-2 -6 -3 -12.5t-1 -12.5zM541 670q2 -2 2 -4q12 2 10 22h-3h-1v-2v0q-4 -4 -6 -4q0 -8 -2 -12zM541 694q6 6 10 0q-4 -4 -8 -6l-1 2t-1 4zM602 612q0 6 1 10.5t1 10.5q4 14 29 39q0 23 1 26l1 4q-20 -14 -17 -8q-6 -4 -8 -5t-4 -1 q-18 6 -14 35t10 41q2 0 2 2q8 20 23 20q14 -20 12 -57v-5v-3q-2 -45 -3 -60.5t-1 -58.5q-23 -23 -33 10zM606 614q2 -12 12 -18l13 6q0 6 1 14.5t1 47.5q-18 -14 -23 -25h-1h-1q0 -6 -1 -12.5t-1 -12.5zM596 709q4 -12 8 -17q14 6 14 10q-18 14 -14 56h-1h-1 q-2 -12 -4 -24.5t-2 -24.5zM606 727q4 -14 15 -22h1t3 2q6 14 12 38.5t-12 38.5q-18 -4 -18.5 -24.5t-0.5 -32.5zM627 705v-3v0q8 6 8 21q-6 -18 -8 -18zM475 733q-18 0 -33 4q-4 16 9 49h-3h-2q-12 -6 -40.5 -17t-28.5 15q6 6 18.5 16.5t18.5 18.5q0 2 -6 43q-4 14 -9 47 q-6 18 -12 30.5t-10 25.5q-6 55 -6 112q4 39 4 43q-14 -25 -19 -43q0 -25 2 -38t-26 -11q-10 20 -8 14q0 8 8 59.5t14 67.5q-2 4 -1 10.5t1 12.5q0 31 3 68.5t36 56.5q-12 16 -12 31q0 14 -2 20q-16 6 -29 10l1 3q1 3 1 5q23 10 27 15q4 14 10 29q27 18 61 -9q6 -18 35 -32 v-5v-2q-14 -8 -22 -10q0 -10 2 -19.5t4 -17.5q23 -6 28 -16q14 -6 27.5 -25.5t22.5 -31.5v-11.5v-11.5q12 -37 20 -86q4 -12 2 -22.5t2 -20.5q0 -18 -3 -33.5t3 -29.5q0 -45 -33 -37q-12 8 -12 32q-4 -27 -8 -43q0 -12 1 -23t1 -24q-6 -12 -3 -29.5t5 -29.5q0 -57 -18 -113 q-2 -31 -4 -35q-5 -4 -17 -12zM471 741q6 2 14 11q0 18 5.5 38.5t5.5 40.5q-20 -4 -35 3q0 -39 -2 -58q-10 -18 -10 -33q4 0 10 -1t12 -1zM406 774q4 2 17 7t15 12q2 2 15 8q0 29 -2 43q-2 6 -2 12q-18 -2 -25 -1l-6 1q0 -12 3 -28.5t-11 -22.5q-4 -8 -15 -14v-1v-2 q-8 -4 -10 -12q6 0 10.5 -1t10.5 -1zM487 836q2 0 5.5 1t7.5 3q0 4 1 10t3 12q-2 20 -5 45t3 45v19.5v19.5q6 47 18 90q0 20 -6 39q6 0 -39 -12q-2 -14 7.5 -29.5t9.5 -31.5q-12 0 -26.5 22.5t-19.5 34.5q-37 0 -57 6h-3h-1q-12 -53 -4 -100t27 -97q-2 0 -2 -2 q2 -12 5 -26.5t13 -20.5q6 0 10 -1t10 -1q-2 12 -3 34t-3 71q-10 31 -21 63.5t-14 67.5h3h4q14 -74 49 -142v-3v-1q0 -2 -1 -2h-1q-4 0 -6 2t-5 4q0 -31 4.5 -67.5t8.5 -42.5q-1 -4 28 -10zM547 1014q14 10 6 41q-16 2 -25 2v-11.5v-11.5q4 -8 4 -16q2 -2 6.5 -3t8.5 -1z M338 1036v11.5v11.5q2 -2 6 -2q0 -6 1 -10.5t3 -8.5h1h1v17.5v19.5q-12 4 -14 4q-6 -25 -2 -43h1h3zM553 1063q2 94 -21 170h-2v0q-2 31 -4 37q-37 41 -63 57v1v3h-5h-3q-16 -27 -25 -31q18 -23 23 -30q0 -10 -4 -35q-6 -2 -13 -2q0 -2 -18 31q-8 25 -15 24q-2 -10 -6 -38.5 t-20 -22.5q-2 6 -5 12t-3 12q-4 -23 0 -45t10 -41q8 -10 45 -16q-6 10 -12 20.5t-6 22.5q16 4 20 4q18 -35 21.5 -41t5.5 -6q31 8 41 10v1v3h1h1q0 8 -11 35q-8 57 -4 88q6 2 11 2q-12 -41 2 -85t28 -79q6 -20 10 -51l-1 -1l-1 -1v-3v-3q15 0 23 -2zM479 1067q-2 6 -14 39 q-4 -2 -12 -2q4 -10 12 -18.5t10 -16.5h1h3v-2v0zM350 1085q8 25 10 37q10 4 11 33q-8 23 -9.5 49.5t-1.5 50.5q4 6 13.5 23.5t15.5 19.5v4v7q-12 -4 -16 -13h-1h-1q-10 -16 -11.5 -22t-5.5 -17q-4 -66 0 -59q0 -25 -12 -65q-2 -12 -3 -22.5t-1 -20.5q10 -3 12 -5zM451 1112 q33 6 40 8t19 8q0 6 -4 13.5t-4 13.5q-63 -23 -121 -2q0 -29 4 -31t31 -6q8 -2 17.5 -3t17.5 -1zM444 1149q-10 23 -20 39q-6 0 -10 -2q12 -25 18 -35q2 0 5 -1t7 -1zM383 1241q12 23 10 49q-26 -16 -10 -49zM442 1243q2 41 -22 51q0 -8 16 -45h1h1q0 -2 1 -4t3 -2z M410 1298q27 16 34 35q-2 0 -4 -1l-2 -1q-8 -29 -41 -22q2 -4 2 -11h4.5h6.5zM412 1315q6 6 16 18.5t23 9.5q-6 25 -7 25q-14 -4 -65 0q-4 -20 3 -39.5t30 -13.5zM436 1374q20 8 27 12v0v3q-6 0 -11.5 3t-9.5 5q-12 31 -55 28q-2 -6 -4 -14t-2 -14q-16 -8 -23 -11v-3v-1 q18 -6 38 -7t40 -1zM379 555h-1h-1h-1t-1 2v0v2q0 2 2 4v1v3l-1 1l-1 1h-1h-1h-1t-1 2l1 1l1 1h1h1q0 4 2 5q2 2 4 2h1h3t2 -2v-2q0 -1 2 -1l-1 -1l-1 -1l-1 1l-1 1h-3h-1v0v0h-1h-1v-2v0h1h1h1h1v0h2v-2v0v0v0v-1v-1h-1h-1h-1h-1h-1h-1v-1v-1v0h2v-1v-1h-1h-1v-1v-1v-3v-1 v0v0v-1v-1q2 0 2 -2h-1h-1zM399 555q-6 0 -6 4v2v4v2v2q2 0 2 -2v-1v-1v0v0v-3v-1v-1v-1v0v0v-1v-1h1h1q0 2 2 2v-2v2h1h1v1v1v1v1v1v1v1v3h1h4v-1v-1v-3v-1v-2v-2v-1v-1v0v0q0 -2 -3 -2v0v0h-3h-1zM420 555h-2v0q-2 0 -4 2h-1t-1 2v1v1q2 2 0 6q0 4 4 4h1h1v0h2v0v0v0h2h1 h1v0h2q-2 -2 0 -2v-1v-1v0v0l1 -1l1 -1v-1v-1l-1 -1l-1 -1v0v0h-2v0h-2v0h-2v0q0 2 -2 0v0v2v1v1v0h2v0h2h1h1v0v0v0v2v0v0h-3h-1h-1h-1h-2v0v0h-1h-1v-2v0h1h1v0v0v-1t2 -1q0 -2 -1 -2h-1l-1 -1l-1 -1v0h2v-3v-1v2h1h1h1h1l1 1t3 1v0h2v0h2v-1v-1h-1h-1q0 -2 -2 -2h-2h-2z M436 555q-2 0 -2 4v4v4v1v1q0 2 2 2h1h1q0 4 4 0v0h2v0v0q2 0 5 -2q0 -2 2 -4v0v0h-1h-1v-1v-1v0h2v-2v0h-1h-1v0v0v-1t2 -1v-1v-1h-1h-1v-2v0q-2 0 -3 2v1v1v1v3v0v2l-1 1l-1 1v0v0q-2 0 -3 1l-1 1l-1 -1l-1 -1v0v0v0v0q-2 0 -2 -1v-1v-3v-1v-3v-1v-2v0zM465 555v1v1h-2v0 q-2 0 -2 1v1q-2 0 -2 4h-2v0l1 1l1 1v0v2v1v1v1v1h-1h-1q-4 0 -4 2l4 5q0 -2 1 -2.5t1 2.5v1v1v1v1q0 2 4 2v-1v-1v-2v0v-2v0q0 -2 2 0l1 -2l1 -1h1h1v-1v-1q0 -2 -2 0v-2v0h-2v0v0v0q-2 0 -2 -1v-1v-2v-2q-2 -2 -1 -2h1v-3v-1l1 1t3 1l1 1l1 1q2 2 2 0v-2v-2q0 -2 -1 -2h-1 q0 2 -2 0l-1 -1zM469 559l1 1l1 1h-2v0v-1v-1zM483 555h-1h-1q-2 0 -4 2h-1t-1 2v1v1q2 2 2 6q-4 4 2 4h1h1v0h2v0v0v0h2h1h1v0h2v-2v0v-1v-1h1h2v-1v-1v-1v-1v-1v-1h-2h-1h-2v0h-1h-1h-2v0v0v0q-2 0 -2 2v1v1h1h1h1h1h1h1v0v0v0v2v0v0h-1h-1h-2v0h-2v0h-2v0v0v0q-2 -2 0 -2 v0v0v0v0l1 -1l1 -1q0 -2 -2 -2v-1v-1q-2 0 -1 0h1v-3v-1l1 1l1 1v0v0h1h1l2 1l2 1v0h2h1h2v-1v-1v0v0q0 -2 -5 -2h-3h-1zM506 557h-1h-1h-3h-1l-1 1t-1 3v1v1l1 -1l1 -1h1h3h1h3q0 2 -2 4h-3h-1q-4 0 -4 2v2l1 2l1 2h2h4q4 0 4 -2h1h1q-2 -2 0 -2v0v0l-1 -1l-1 -1v-1v-1 l1 -1l1 -1v0v0q0 -2 -2 -2v-2v0q0 -2 -4 -2v0v0zM506 567q2 0 2 2h-1h-1q-2 0 -4 2v-1v-1h-2h2v-1v-1v0h2v0h2v0v0z" unicode=""/><glyph d="M186 1538h508q57 0 58 -80v-907q0 -80 -58 -80h-508q-57 0 -57 80v907q0 80 57 80zM197 1524q-53 0 -54 -78v-883q0 -78 54 -78h487q53 0 53 78v883q0 78 -53 78h-487zM248 563v24.5t10 24.5q0 -8 -7 -34.5t13 -20.5q2 4 6 7t9 9v0v2q6 4 10 21.5t6 28.5v47v20l1 1t3 1 q10 -29 12 -32q10 4 23 45h1h3v-1v-1q-6 -29 -10 -56.5t12 -52.5h-1h-1q-12 14 -12 49q2 31 2 33q-2 -4 -3 -7t-1 -5h-1h-1v-3v-1q-2 0 -7 -5q-10 4 -16 27q0 -31 -2 -62.5t-21 -56.5v-1v-1q-18 -16 -28 0zM348 616q0 29 12 31q10 -2 9.5 -12t3.5 -17q2 10 0 21h1h3v-2v-2 q2 0 4 2q0 -4 1 -7l1 -3q8 0 8 8h1h1q2 8 7.5 23.5t0.5 25.5q-12 -6 -14 -8q-2 2 -2 4q4 0 8 3t10 5q2 4 3 14h1h3v-7v-5q18 8 47 19l1 -2l1 -2q-12 -6 -24.5 -10.5t-24.5 -8.5q-2 -12 -5.5 -30.5t7.5 -26.5q8 0 8 16.5v22.5q4 2 8 -4q10 2 16 14h1h1v-6v-4h-1h-1 q0 -33 5 -35q14 2 12 29q2 6 2 18q10 2 12 2q2 -12 -2 -22.5t-2 -16.5q6 -2 14 6v1v1h1h1v35q18 0 15 -2q12 4 14 12h2h2q0 -6 -4 -14q0 -18 6 -27q10 4 10 11q2 0 3 2q0 4 -3 20q8 18 23 6q18 18 25 19l1 -1l1 -1q-16 -12 -23 -17v-3v-1h-1h-1v-24q-8 -6 -18 0 q-10 -25 -23 -9q-2 6 -4 12.5t-2 12.5q-12 -4 -16 -2q0 -43 -27 -39l-4 -4v-3v-1q-20 -16 -27 10q2 6 2 19h-7h-5q0 -8 -2 -26t-16 -9q-4 6 -7 12q-4 -4 -6 -8t-8 -8h-8q-6 -12 -19 -19q-6 2 -12 12zM354 614l1 -2l1 -2q23 2 6 33h-2h-2l-1 -2l-1 -2q0 -6 -1 -12.5t-1 -12.5 zM465 653l1 -1l1 -1q6 14 4 27h-1h-1q-2 -6 -3 -12.5t-1 -12.5zM541 670q2 -2 2 -4q12 2 10 22h-3h-1v-2v0q-4 -4 -6 -4q0 -8 -2 -12zM541 694q6 6 10 0q-4 -4 -8 -6l-1 2t-1 4zM602 612q0 6 1 10.5t1 10.5q4 14 29 39q0 23 1 26l1 4q-20 -14 -17 -8q-6 -4 -8 -5t-4 -1 q-18 6 -14 35t10 41q2 0 2 2q8 20 23 20q14 -20 12 -57v-5v-3q-2 -45 -3 -60.5t-1 -58.5q-23 -23 -33 10zM606 614q2 -12 12 -18l13 6q0 6 1 14.5t1 47.5q-18 -14 -23 -25h-1h-1q0 -6 -1 -12.5t-1 -12.5zM596 709q4 -12 8 -17q14 6 14 10q-18 14 -14 56h-1h-1 q-2 -12 -4 -24.5t-2 -24.5zM606 727q4 -14 15 -22h1t3 2q6 14 12 38.5t-12 38.5q-18 -4 -18.5 -24.5t-0.5 -32.5zM627 705v-3v0q8 6 8 21q-6 -18 -8 -18zM475 733q-18 0 -33 4q-4 16 9 49h-3h-2q-12 -6 -40.5 -17t-28.5 15q6 6 18.5 16.5t18.5 18.5q0 2 -6 43q-4 14 -9 47 q-6 18 -12 30.5t-10 25.5q-6 55 -6 112q4 39 4 43q-14 -25 -19 -43q0 -25 2 -38t-26 -11q-10 20 -8 14q0 8 8 59.5t14 67.5q-2 4 -1 10.5t1 12.5q0 31 3 68.5t36 56.5q-12 16 -12 31q0 14 -2 20q-16 6 -29 10l1 3q1 3 1 5q23 10 27 15q4 14 10 29q27 18 61 -9q6 -18 35 -32 v-5v-2q-14 -8 -22 -10q0 -10 2 -19.5t4 -17.5q23 -6 28 -16q14 -6 27.5 -25.5t22.5 -31.5v-11.5v-11.5q12 -37 20 -86q4 -12 2 -22.5t2 -20.5q0 -18 -3 -33.5t3 -29.5q0 -45 -33 -37q-12 8 -12 32q-4 -27 -8 -43q0 -12 1 -23t1 -24q-6 -12 -3 -29.5t5 -29.5q0 -57 -18 -113 q-2 -31 -4 -35q-5 -4 -17 -12zM471 741q6 2 14 11q0 18 5.5 38.5t5.5 40.5q-20 -4 -35 3q0 -39 -2 -58q-10 -18 -10 -33q4 0 10 -1t12 -1zM406 774q4 2 17 7t15 12q2 2 15 8q0 29 -2 43q-2 6 -2 12q-18 -2 -25 -1l-6 1q0 -12 3 -28.5t-11 -22.5q-4 -8 -15 -14v-1v-2 q-8 -4 -10 -12q6 0 10.5 -1t10.5 -1zM487 836q2 0 5.5 1t7.5 3q0 4 1 10t3 12q-2 20 -5 45t3 45v19.5v19.5q6 47 18 90q0 20 -6 39q6 0 -39 -12q-2 -14 7.5 -29.5t9.5 -31.5q-12 0 -26.5 22.5t-19.5 34.5q-37 0 -57 6h-3h-1q-12 -53 -4 -100t27 -97q-2 0 -2 -2 q2 -12 5 -26.5t13 -20.5q6 0 10 -1t10 -1q-2 12 -3 34t-3 71q-10 31 -21 63.5t-14 67.5h3h4q14 -74 49 -142v-3v-1q0 -2 -1 -2h-1q-4 0 -6 2t-5 4q0 -31 4.5 -67.5t8.5 -42.5q-1 -4 28 -10zM547 1014q14 10 6 41q-16 2 -25 2v-11.5v-11.5q4 -8 4 -16q2 -2 6.5 -3t8.5 -1z M338 1036v11.5v11.5q2 -2 6 -2q0 -6 1 -10.5t3 -8.5h1h1v17.5v19.5q-12 4 -14 4q-6 -25 -2 -43h1h3zM553 1063q2 94 -21 170h-2v0q-2 31 -4 37q-37 41 -63 57v1v3h-5h-3q-16 -27 -25 -31q18 -23 23 -30q0 -10 -4 -35q-6 -2 -13 -2q0 -2 -18 31q-8 25 -15 24q-2 -10 -6 -38.5 t-20 -22.5q-2 6 -5 12t-3 12q-4 -23 0 -45t10 -41q8 -10 45 -16q-6 10 -12 20.5t-6 22.5q16 4 20 4q18 -35 21.5 -41t5.5 -6q31 8 41 10v1v3h1h1q0 8 -11 35q-8 57 -4 88q6 2 11 2q-12 -41 2 -85t28 -79q6 -20 10 -51l-1 -1l-1 -1v-3v-3q15 0 23 -2zM479 1067q-2 6 -14 39 q-4 -2 -12 -2q4 -10 12 -18.5t10 -16.5h1h3v-2v0zM350 1085q8 25 10 37q10 4 11 33q-8 23 -9.5 49.5t-1.5 50.5q4 6 13.5 23.5t15.5 19.5v4v7q-12 -4 -16 -13h-1h-1q-10 -16 -11.5 -22t-5.5 -17q-4 -66 0 -59q0 -25 -12 -65q-2 -12 -3 -22.5t-1 -20.5q10 -3 12 -5zM451 1112 q33 6 40 8t19 8q0 6 -4 13.5t-4 13.5q-63 -23 -121 -2q0 -29 4 -31t31 -6q8 -2 17.5 -3t17.5 -1zM444 1149q-10 23 -20 39q-6 0 -10 -2q12 -25 18 -35q2 0 5 -1t7 -1zM383 1241q12 23 10 49q-26 -16 -10 -49zM442 1243q2 41 -22 51q0 -8 16 -45h1h1q0 -2 1 -4t3 -2z M410 1298q27 16 34 35q-2 0 -4 -1l-2 -1q-8 -29 -41 -22q2 -4 2 -11h4.5h6.5zM412 1315q6 6 16 18.5t23 9.5q-6 25 -7 25q-14 -4 -65 0q-4 -20 3 -39.5t30 -13.5zM436 1374q20 8 27 12v0v3q-6 0 -11.5 3t-9.5 5q-12 31 -55 28q-2 -6 -4 -14t-2 -14q-16 -8 -23 -11v-3v-1 q18 -6 38 -7t40 -1zM379 555h-1h-1h-1t-1 2v0v2q0 2 2 4v1v3l-1 1l-1 1h-1h-1h-1t-1 2l1 1l1 1h1h1q0 4 2 5q2 2 4 2h1h3t2 -2v-2q0 -1 2 -1l-1 -1l-1 -1l-1 1l-1 1h-3h-1v0v0h-1h-1v-2v0h1h1h1h1v0h2v-2v0v0v0v-1v-1h-1h-1h-1h-1h-1h-1v-1v-1v0h2v-1v-1h-1h-1v-1v-1v-3v-1 v0v0v-1v-1q2 0 2 -2h-1h-1zM399 555q-6 0 -6 4v2v4v2v2q2 0 2 -2v-1v-1v0v0v-3v-1v-1v-1v0v0v-1v-1h1h1q0 2 2 2v-2v2h1h1v1v1v1v1v1v1v1v3h1h4v-1v-1v-3v-1v-2v-2v-1v-1v0v0q0 -2 -3 -2v0v0h-3h-1zM420 555h-2v0q-2 0 -4 2h-1t-1 2v1v1q2 2 0 6q0 4 4 4h1h1v0h2v0v0v0h2h1 h1v0h2q-2 -2 0 -2v-1v-1v0v0l1 -1l1 -1v-1v-1l-1 -1l-1 -1v0v0h-2v0h-2v0h-2v0q0 2 -2 0v0v2v1v1v0h2v0h2h1h1v0v0v0v2v0v0h-3h-1h-1h-1h-2v0v0h-1h-1v-2v0h1h1v0v0v-1t2 -1q0 -2 -1 -2h-1l-1 -1l-1 -1v0h2v-3v-1v2h1h1h1h1l1 1t3 1v0h2v0h2v-1v-1h-1h-1q0 -2 -2 -2h-2h-2z M436 555q-2 0 -2 4v4v4v1v1q0 2 2 2h1h1q0 4 4 0v0h2v0v0q2 0 5 -2q0 -2 2 -4v0v0h-1h-1v-1v-1v0h2v-2v0h-1h-1v0v0v-1t2 -1v-1v-1h-1h-1v-2v0q-2 0 -3 2v1v1v1v3v0v2l-1 1l-1 1v0v0q-2 0 -3 1l-1 1l-1 -1l-1 -1v0v0v0v0q-2 0 -2 -1v-1v-3v-1v-3v-1v-2v0zM465 555v1v1h-2v0 q-2 0 -2 1v1q-2 0 -2 4h-2v0l1 1l1 1v0v2v1v1v1v1h-1h-1q-4 0 -4 2l4 5q0 -2 1 -2.5t1 2.5v1v1v1v1q0 2 4 2v-1v-1v-2v0v-2v0q0 -2 2 0l1 -2l1 -1h1h1v-1v-1q0 -2 -2 0v-2v0h-2v0v0v0q-2 0 -2 -1v-1v-2v-2q-2 -2 -1 -2h1v-3v-1l1 1t3 1l1 1l1 1q2 2 2 0v-2v-2q0 -2 -1 -2h-1 q0 2 -2 0l-1 -1zM469 559l1 1l1 1h-2v0v-1v-1zM483 555h-1h-1q-2 0 -4 2h-1t-1 2v1v1q2 2 2 6q-4 4 2 4h1h1v0h2v0v0v0h2h1h1v0h2v-2v0v-1v-1h1h2v-1v-1v-1v-1v-1v-1h-2h-1h-2v0h-1h-1h-2v0v0v0q-2 0 -2 2v1v1h1h1h1h1h1h1v0v0v0v2v0v0h-1h-1h-2v0h-2v0h-2v0v0v0q-2 -2 0 -2 v0v0v0v0l1 -1l1 -1q0 -2 -2 -2v-1v-1q-2 0 -1 0h1v-3v-1l1 1l1 1v0v0h1h1l2 1l2 1v0h2h1h2v-1v-1v0v0q0 -2 -5 -2h-3h-1zM506 557h-1h-1h-3h-1l-1 1t-1 3v1v1l1 -1l1 -1h1h3h1h3q0 2 -2 4h-3h-1q-4 0 -4 2v2l1 2l1 2h2h4q4 0 4 -2h1h1q-2 -2 0 -2v0v0l-1 -1l-1 -1v-1v-1 l1 -1l1 -1v0v0q0 -2 -2 -2v-2v0q0 -2 -4 -2v0v0zM506 567q2 0 2 2h-1h-1q-2 0 -4 2v-1v-1h-2h2v-1v-1v0h2v0h2v0v0z" unicode=""/><glyph horiz-adv-x="2048" unicode=""/><glyph d="M186 1538h508q57 0 58 -80v-907q0 -80 -58 -80h-508q-57 0 -57 80v907q0 80 57 80zM197 1524q-53 0 -54 -78v-883q0 -78 54 -78h487q53 0 53 78v883q0 78 -53 78h-487zM248 563v24.5t10 24.5q0 -8 -7 -34.5t13 -20.5q2 4 6 7t9 9v0v2q6 4 10 21.5t6 28.5v47v20l1 1t3 1 q10 -29 12 -32q10 4 23 45h1h3v-1v-1q-6 -29 -10 -56.5t12 -52.5h-1h-1q-12 14 -12 49q2 31 2 33q-2 -4 -3 -7t-1 -5h-1h-1v-3v-1q-2 0 -7 -5q-10 4 -16 27q0 -31 -2 -62.5t-21 -56.5v-1v-1q-18 -16 -28 0zM348 616q0 29 12 31q10 -2 9.5 -12t3.5 -17q2 10 0 21h1h3v-2v-2 q2 0 4 2q0 -4 1 -7l1 -3q8 0 8 8h1h1q2 8 7.5 23.5t0.5 25.5q-12 -6 -14 -8q-2 2 -2 4q4 0 8 3t10 5q2 4 3 14h1h3v-7v-5q18 8 47 19l1 -2l1 -2q-12 -6 -24.5 -10.5t-24.5 -8.5q-2 -12 -5.5 -30.5t7.5 -26.5q8 0 8 16.5v22.5q4 2 8 -4q10 2 16 14h1h1v-6v-4h-1h-1 q0 -33 5 -35q14 2 12 29q2 6 2 18q10 2 12 2q2 -12 -2 -22.5t-2 -16.5q6 -2 14 6v1v1h1h1v35q18 0 15 -2q12 4 14 12h2h2q0 -6 -4 -14q0 -18 6 -27q10 4 10 11q2 0 3 2q0 4 -3 20q8 18 23 6q18 18 25 19l1 -1l1 -1q-16 -12 -23 -17v-3v-1h-1h-1v-24q-8 -6 -18 0 q-10 -25 -23 -9q-2 6 -4 12.5t-2 12.5q-12 -4 -16 -2q0 -43 -27 -39l-4 -4v-3v-1q-20 -16 -27 10q2 6 2 19h-7h-5q0 -8 -2 -26t-16 -9q-4 6 -7 12q-4 -4 -6 -8t-8 -8h-8q-6 -12 -19 -19q-6 2 -12 12zM354 614l1 -2l1 -2q23 2 6 33h-2h-2l-1 -2l-1 -2q0 -6 -1 -12.5t-1 -12.5 zM465 653l1 -1l1 -1q6 14 4 27h-1h-1q-2 -6 -3 -12.5t-1 -12.5zM541 670q2 -2 2 -4q12 2 10 22h-3h-1v-2v0q-4 -4 -6 -4q0 -8 -2 -12zM541 694q6 6 10 0q-4 -4 -8 -6l-1 2t-1 4zM602 612q0 6 1 10.5t1 10.5q4 14 29 39q0 23 1 26l1 4q-20 -14 -17 -8q-6 -4 -8 -5t-4 -1 q-18 6 -14 35t10 41q2 0 2 2q8 20 23 20q14 -20 12 -57v-5v-3q-2 -45 -3 -60.5t-1 -58.5q-23 -23 -33 10zM606 614q2 -12 12 -18l13 6q0 6 1 14.5t1 47.5q-18 -14 -23 -25h-1h-1q0 -6 -1 -12.5t-1 -12.5zM596 709q4 -12 8 -17q14 6 14 10q-18 14 -14 56h-1h-1 q-2 -12 -4 -24.5t-2 -24.5zM606 727q4 -14 15 -22h1t3 2q6 14 12 38.5t-12 38.5q-18 -4 -18.5 -24.5t-0.5 -32.5zM627 705v-3v0q8 6 8 21q-6 -18 -8 -18zM475 733q-18 0 -33 4q-4 16 9 49h-3h-2q-12 -6 -40.5 -17t-28.5 15q6 6 18.5 16.5t18.5 18.5q0 2 -6 43q-4 14 -9 47 q-6 18 -12 30.5t-10 25.5q-6 55 -6 112q4 39 4 43q-14 -25 -19 -43q0 -25 2 -38t-26 -11q-10 20 -8 14q0 8 8 59.5t14 67.5q-2 4 -1 10.5t1 12.5q0 31 3 68.5t36 56.5q-12 16 -12 31q0 14 -2 20q-16 6 -29 10l1 3q1 3 1 5q23 10 27 15q4 14 10 29q27 18 61 -9q6 -18 35 -32 v-5v-2q-14 -8 -22 -10q0 -10 2 -19.5t4 -17.5q23 -6 28 -16q14 -6 27.5 -25.5t22.5 -31.5v-11.5v-11.5q12 -37 20 -86q4 -12 2 -22.5t2 -20.5q0 -18 -3 -33.5t3 -29.5q0 -45 -33 -37q-12 8 -12 32q-4 -27 -8 -43q0 -12 1 -23t1 -24q-6 -12 -3 -29.5t5 -29.5q0 -57 -18 -113 q-2 -31 -4 -35q-5 -4 -17 -12zM471 741q6 2 14 11q0 18 5.5 38.5t5.5 40.5q-20 -4 -35 3q0 -39 -2 -58q-10 -18 -10 -33q4 0 10 -1t12 -1zM406 774q4 2 17 7t15 12q2 2 15 8q0 29 -2 43q-2 6 -2 12q-18 -2 -25 -1l-6 1q0 -12 3 -28.5t-11 -22.5q-4 -8 -15 -14v-1v-2 q-8 -4 -10 -12q6 0 10.5 -1t10.5 -1zM487 836q2 0 5.5 1t7.5 3q0 4 1 10t3 12q-2 20 -5 45t3 45v19.5v19.5q6 47 18 90q0 20 -6 39q6 0 -39 -12q-2 -14 7.5 -29.5t9.5 -31.5q-12 0 -26.5 22.5t-19.5 34.5q-37 0 -57 6h-3h-1q-12 -53 -4 -100t27 -97q-2 0 -2 -2 q2 -12 5 -26.5t13 -20.5q6 0 10 -1t10 -1q-2 12 -3 34t-3 71q-10 31 -21 63.5t-14 67.5h3h4q14 -74 49 -142v-3v-1q0 -2 -1 -2h-1q-4 0 -6 2t-5 4q0 -31 4.5 -67.5t8.5 -42.5q-1 -4 28 -10zM547 1014q14 10 6 41q-16 2 -25 2v-11.5v-11.5q4 -8 4 -16q2 -2 6.5 -3t8.5 -1z M338 1036v11.5v11.5q2 -2 6 -2q0 -6 1 -10.5t3 -8.5h1h1v17.5v19.5q-12 4 -14 4q-6 -25 -2 -43h1h3zM553 1063q2 94 -21 170h-2v0q-2 31 -4 37q-37 41 -63 57v1v3h-5h-3q-16 -27 -25 -31q18 -23 23 -30q0 -10 -4 -35q-6 -2 -13 -2q0 -2 -18 31q-8 25 -15 24q-2 -10 -6 -38.5 t-20 -22.5q-2 6 -5 12t-3 12q-4 -23 0 -45t10 -41q8 -10 45 -16q-6 10 -12 20.5t-6 22.5q16 4 20 4q18 -35 21.5 -41t5.5 -6q31 8 41 10v1v3h1h1q0 8 -11 35q-8 57 -4 88q6 2 11 2q-12 -41 2 -85t28 -79q6 -20 10 -51l-1 -1l-1 -1v-3v-3q15 0 23 -2zM479 1067q-2 6 -14 39 q-4 -2 -12 -2q4 -10 12 -18.5t10 -16.5h1h3v-2v0zM350 1085q8 25 10 37q10 4 11 33q-8 23 -9.5 49.5t-1.5 50.5q4 6 13.5 23.5t15.5 19.5v4v7q-12 -4 -16 -13h-1h-1q-10 -16 -11.5 -22t-5.5 -17q-4 -66 0 -59q0 -25 -12 -65q-2 -12 -3 -22.5t-1 -20.5q10 -3 12 -5zM451 1112 q33 6 40 8t19 8q0 6 -4 13.5t-4 13.5q-63 -23 -121 -2q0 -29 4 -31t31 -6q8 -2 17.5 -3t17.5 -1zM444 1149q-10 23 -20 39q-6 0 -10 -2q12 -25 18 -35q2 0 5 -1t7 -1zM383 1241q12 23 10 49q-26 -16 -10 -49zM442 1243q2 41 -22 51q0 -8 16 -45h1h1q0 -2 1 -4t3 -2z M410 1298q27 16 34 35q-2 0 -4 -1l-2 -1q-8 -29 -41 -22q2 -4 2 -11h4.5h6.5zM412 1315q6 6 16 18.5t23 9.5q-6 25 -7 25q-14 -4 -65 0q-4 -20 3 -39.5t30 -13.5zM436 1374q20 8 27 12v0v3q-6 0 -11.5 3t-9.5 5q-12 31 -55 28q-2 -6 -4 -14t-2 -14q-16 -8 -23 -11v-3v-1 q18 -6 38 -7t40 -1zM379 555h-1h-1h-1t-1 2v0v2q0 2 2 4v1v3l-1 1l-1 1h-1h-1h-1t-1 2l1 1l1 1h1h1q0 4 2 5q2 2 4 2h1h3t2 -2v-2q0 -1 2 -1l-1 -1l-1 -1l-1 1l-1 1h-3h-1v0v0h-1h-1v-2v0h1h1h1h1v0h2v-2v0v0v0v-1v-1h-1h-1h-1h-1h-1h-1v-1v-1v0h2v-1v-1h-1h-1v-1v-1v-3v-1 v0v0v-1v-1q2 0 2 -2h-1h-1zM399 555q-6 0 -6 4v2v4v2v2q2 0 2 -2v-1v-1v0v0v-3v-1v-1v-1v0v0v-1v-1h1h1q0 2 2 2v-2v2h1h1v1v1v1v1v1v1v1v3h1h4v-1v-1v-3v-1v-2v-2v-1v-1v0v0q0 -2 -3 -2v0v0h-3h-1zM420 555h-2v0q-2 0 -4 2h-1t-1 2v1v1q2 2 0 6q0 4 4 4h1h1v0h2v0v0v0h2h1 h1v0h2q-2 -2 0 -2v-1v-1v0v0l1 -1l1 -1v-1v-1l-1 -1l-1 -1v0v0h-2v0h-2v0h-2v0q0 2 -2 0v0v2v1v1v0h2v0h2h1h1v0v0v0v2v0v0h-3h-1h-1h-1h-2v0v0h-1h-1v-2v0h1h1v0v0v-1t2 -1q0 -2 -1 -2h-1l-1 -1l-1 -1v0h2v-3v-1v2h1h1h1h1l1 1t3 1v0h2v0h2v-1v-1h-1h-1q0 -2 -2 -2h-2h-2z M436 555q-2 0 -2 4v4v4v1v1q0 2 2 2h1h1q0 4 4 0v0h2v0v0q2 0 5 -2q0 -2 2 -4v0v0h-1h-1v-1v-1v0h2v-2v0h-1h-1v0v0v-1t2 -1v-1v-1h-1h-1v-2v0q-2 0 -3 2v1v1v1v3v0v2l-1 1l-1 1v0v0q-2 0 -3 1l-1 1l-1 -1l-1 -1v0v0v0v0q-2 0 -2 -1v-1v-3v-1v-3v-1v-2v0zM465 555v1v1h-2v0 q-2 0 -2 1v1q-2 0 -2 4h-2v0l1 1l1 1v0v2v1v1v1v1h-1h-1q-4 0 -4 2l4 5q0 -2 1 -2.5t1 2.5v1v1v1v1q0 2 4 2v-1v-1v-2v0v-2v0q0 -2 2 0l1 -2l1 -1h1h1v-1v-1q0 -2 -2 0v-2v0h-2v0v0v0q-2 0 -2 -1v-1v-2v-2q-2 -2 -1 -2h1v-3v-1l1 1t3 1l1 1l1 1q2 2 2 0v-2v-2q0 -2 -1 -2h-1 q0 2 -2 0l-1 -1zM469 559l1 1l1 1h-2v0v-1v-1zM483 555h-1h-1q-2 0 -4 2h-1t-1 2v1v1q2 2 2 6q-4 4 2 4h1h1v0h2v0v0v0h2h1h1v0h2v-2v0v-1v-1h1h2v-1v-1v-1v-1v-1v-1h-2h-1h-2v0h-1h-1h-2v0v0v0q-2 0 -2 2v1v1h1h1h1h1h1h1v0v0v0v2v0v0h-1h-1h-2v0h-2v0h-2v0v0v0q-2 -2 0 -2 v0v0v0v0l1 -1l1 -1q0 -2 -2 -2v-1v-1q-2 0 -1 0h1v-3v-1l1 1l1 1v0v0h1h1l2 1l2 1v0h2h1h2v-1v-1v0v0q0 -2 -5 -2h-3h-1zM506 557h-1h-1h-3h-1l-1 1t-1 3v1v1l1 -1l1 -1h1h3h1h3q0 2 -2 4h-3h-1q-4 0 -4 2v2l1 2l1 2h2h4q4 0 4 -2h1h1q-2 -2 0 -2v0v0l-1 -1l-1 -1v-1v-1 l1 -1l1 -1v0v0q0 -2 -2 -2v-2v0q0 -2 -4 -2v0v0zM506 567q2 0 2 2h-1h-1q-2 0 -4 2v-1v-1h-2h2v-1v-1v0h2v0h2v0v0z" unicode=""/><glyph d="M186 1538h508q57 0 58 -80v-907q0 -80 -58 -80h-508q-57 0 -57 80v907q0 80 57 80zM197 1524q-53 0 -54 -78v-883q0 -78 54 -78h487q53 0 53 78v883q0 78 -53 78h-487zM248 563v24.5t10 24.5q0 -8 -7 -34.5t13 -20.5q2 4 6 7t9 9v0v2q6 4 10 21.5t6 28.5v47v20l1 1t3 1 q10 -29 12 -32q10 4 23 45h1h3v-1v-1q-6 -29 -10 -56.5t12 -52.5h-1h-1q-12 14 -12 49q2 31 2 33q-2 -4 -3 -7t-1 -5h-1h-1v-3v-1q-2 0 -7 -5q-10 4 -16 27q0 -31 -2 -62.5t-21 -56.5v-1v-1q-18 -16 -28 0zM348 616q0 29 12 31q10 -2 9.5 -12t3.5 -17q2 10 0 21h1h3v-2v-2 q2 0 4 2q0 -4 1 -7l1 -3q8 0 8 8h1h1q2 8 7.5 23.5t0.5 25.5q-12 -6 -14 -8q-2 2 -2 4q4 0 8 3t10 5q2 4 3 14h1h3v-7v-5q18 8 47 19l1 -2l1 -2q-12 -6 -24.5 -10.5t-24.5 -8.5q-2 -12 -5.5 -30.5t7.5 -26.5q8 0 8 16.5v22.5q4 2 8 -4q10 2 16 14h1h1v-6v-4h-1h-1 q0 -33 5 -35q14 2 12 29q2 6 2 18q10 2 12 2q2 -12 -2 -22.5t-2 -16.5q6 -2 14 6v1v1h1h1v35q18 0 15 -2q12 4 14 12h2h2q0 -6 -4 -14q0 -18 6 -27q10 4 10 11q2 0 3 2q0 4 -3 20q8 18 23 6q18 18 25 19l1 -1l1 -1q-16 -12 -23 -17v-3v-1h-1h-1v-24q-8 -6 -18 0 q-10 -25 -23 -9q-2 6 -4 12.5t-2 12.5q-12 -4 -16 -2q0 -43 -27 -39l-4 -4v-3v-1q-20 -16 -27 10q2 6 2 19h-7h-5q0 -8 -2 -26t-16 -9q-4 6 -7 12q-4 -4 -6 -8t-8 -8h-8q-6 -12 -19 -19q-6 2 -12 12zM354 614l1 -2l1 -2q23 2 6 33h-2h-2l-1 -2l-1 -2q0 -6 -1 -12.5t-1 -12.5 zM465 653l1 -1l1 -1q6 14 4 27h-1h-1q-2 -6 -3 -12.5t-1 -12.5zM541 670q2 -2 2 -4q12 2 10 22h-3h-1v-2v0q-4 -4 -6 -4q0 -8 -2 -12zM541 694q6 6 10 0q-4 -4 -8 -6l-1 2t-1 4zM602 612q0 6 1 10.5t1 10.5q4 14 29 39q0 23 1 26l1 4q-20 -14 -17 -8q-6 -4 -8 -5t-4 -1 q-18 6 -14 35t10 41q2 0 2 2q8 20 23 20q14 -20 12 -57v-5v-3q-2 -45 -3 -60.5t-1 -58.5q-23 -23 -33 10zM606 614q2 -12 12 -18l13 6q0 6 1 14.5t1 47.5q-18 -14 -23 -25h-1h-1q0 -6 -1 -12.5t-1 -12.5zM596 709q4 -12 8 -17q14 6 14 10q-18 14 -14 56h-1h-1 q-2 -12 -4 -24.5t-2 -24.5zM606 727q4 -14 15 -22h1t3 2q6 14 12 38.5t-12 38.5q-18 -4 -18.5 -24.5t-0.5 -32.5zM627 705v-3v0q8 6 8 21q-6 -18 -8 -18zM475 733q-18 0 -33 4q-4 16 9 49h-3h-2q-12 -6 -40.5 -17t-28.5 15q6 6 18.5 16.5t18.5 18.5q0 2 -6 43q-4 14 -9 47 q-6 18 -12 30.5t-10 25.5q-6 55 -6 112q4 39 4 43q-14 -25 -19 -43q0 -25 2 -38t-26 -11q-10 20 -8 14q0 8 8 59.5t14 67.5q-2 4 -1 10.5t1 12.5q0 31 3 68.5t36 56.5q-12 16 -12 31q0 14 -2 20q-16 6 -29 10l1 3q1 3 1 5q23 10 27 15q4 14 10 29q27 18 61 -9q6 -18 35 -32 v-5v-2q-14 -8 -22 -10q0 -10 2 -19.5t4 -17.5q23 -6 28 -16q14 -6 27.5 -25.5t22.5 -31.5v-11.5v-11.5q12 -37 20 -86q4 -12 2 -22.5t2 -20.5q0 -18 -3 -33.5t3 -29.5q0 -45 -33 -37q-12 8 -12 32q-4 -27 -8 -43q0 -12 1 -23t1 -24q-6 -12 -3 -29.5t5 -29.5q0 -57 -18 -113 q-2 -31 -4 -35q-5 -4 -17 -12zM471 741q6 2 14 11q0 18 5.5 38.5t5.5 40.5q-20 -4 -35 3q0 -39 -2 -58q-10 -18 -10 -33q4 0 10 -1t12 -1zM406 774q4 2 17 7t15 12q2 2 15 8q0 29 -2 43q-2 6 -2 12q-18 -2 -25 -1l-6 1q0 -12 3 -28.5t-11 -22.5q-4 -8 -15 -14v-1v-2 q-8 -4 -10 -12q6 0 10.5 -1t10.5 -1zM487 836q2 0 5.5 1t7.5 3q0 4 1 10t3 12q-2 20 -5 45t3 45v19.5v19.5q6 47 18 90q0 20 -6 39q6 0 -39 -12q-2 -14 7.5 -29.5t9.5 -31.5q-12 0 -26.5 22.5t-19.5 34.5q-37 0 -57 6h-3h-1q-12 -53 -4 -100t27 -97q-2 0 -2 -2 q2 -12 5 -26.5t13 -20.5q6 0 10 -1t10 -1q-2 12 -3 34t-3 71q-10 31 -21 63.5t-14 67.5h3h4q14 -74 49 -142v-3v-1q0 -2 -1 -2h-1q-4 0 -6 2t-5 4q0 -31 4.5 -67.5t8.5 -42.5q-1 -4 28 -10zM547 1014q14 10 6 41q-16 2 -25 2v-11.5v-11.5q4 -8 4 -16q2 -2 6.5 -3t8.5 -1z M338 1036v11.5v11.5q2 -2 6 -2q0 -6 1 -10.5t3 -8.5h1h1v17.5v19.5q-12 4 -14 4q-6 -25 -2 -43h1h3zM553 1063q2 94 -21 170h-2v0q-2 31 -4 37q-37 41 -63 57v1v3h-5h-3q-16 -27 -25 -31q18 -23 23 -30q0 -10 -4 -35q-6 -2 -13 -2q0 -2 -18 31q-8 25 -15 24q-2 -10 -6 -38.5 t-20 -22.5q-2 6 -5 12t-3 12q-4 -23 0 -45t10 -41q8 -10 45 -16q-6 10 -12 20.5t-6 22.5q16 4 20 4q18 -35 21.5 -41t5.5 -6q31 8 41 10v1v3h1h1q0 8 -11 35q-8 57 -4 88q6 2 11 2q-12 -41 2 -85t28 -79q6 -20 10 -51l-1 -1l-1 -1v-3v-3q15 0 23 -2zM479 1067q-2 6 -14 39 q-4 -2 -12 -2q4 -10 12 -18.5t10 -16.5h1h3v-2v0zM350 1085q8 25 10 37q10 4 11 33q-8 23 -9.5 49.5t-1.5 50.5q4 6 13.5 23.5t15.5 19.5v4v7q-12 -4 -16 -13h-1h-1q-10 -16 -11.5 -22t-5.5 -17q-4 -66 0 -59q0 -25 -12 -65q-2 -12 -3 -22.5t-1 -20.5q10 -3 12 -5zM451 1112 q33 6 40 8t19 8q0 6 -4 13.5t-4 13.5q-63 -23 -121 -2q0 -29 4 -31t31 -6q8 -2 17.5 -3t17.5 -1zM444 1149q-10 23 -20 39q-6 0 -10 -2q12 -25 18 -35q2 0 5 -1t7 -1zM383 1241q12 23 10 49q-26 -16 -10 -49zM442 1243q2 41 -22 51q0 -8 16 -45h1h1q0 -2 1 -4t3 -2z M410 1298q27 16 34 35q-2 0 -4 -1l-2 -1q-8 -29 -41 -22q2 -4 2 -11h4.5h6.5zM412 1315q6 6 16 18.5t23 9.5q-6 25 -7 25q-14 -4 -65 0q-4 -20 3 -39.5t30 -13.5zM436 1374q20 8 27 12v0v3q-6 0 -11.5 3t-9.5 5q-12 31 -55 28q-2 -6 -4 -14t-2 -14q-16 -8 -23 -11v-3v-1 q18 -6 38 -7t40 -1zM379 555h-1h-1h-1t-1 2v0v2q0 2 2 4v1v3l-1 1l-1 1h-1h-1h-1t-1 2l1 1l1 1h1h1q0 4 2 5q2 2 4 2h1h3t2 -2v-2q0 -1 2 -1l-1 -1l-1 -1l-1 1l-1 1h-3h-1v0v0h-1h-1v-2v0h1h1h1h1v0h2v-2v0v0v0v-1v-1h-1h-1h-1h-1h-1h-1v-1v-1v0h2v-1v-1h-1h-1v-1v-1v-3v-1 v0v0v-1v-1q2 0 2 -2h-1h-1zM399 555q-6 0 -6 4v2v4v2v2q2 0 2 -2v-1v-1v0v0v-3v-1v-1v-1v0v0v-1v-1h1h1q0 2 2 2v-2v2h1h1v1v1v1v1v1v1v1v3h1h4v-1v-1v-3v-1v-2v-2v-1v-1v0v0q0 -2 -3 -2v0v0h-3h-1zM420 555h-2v0q-2 0 -4 2h-1t-1 2v1v1q2 2 0 6q0 4 4 4h1h1v0h2v0v0v0h2h1 h1v0h2q-2 -2 0 -2v-1v-1v0v0l1 -1l1 -1v-1v-1l-1 -1l-1 -1v0v0h-2v0h-2v0h-2v0q0 2 -2 0v0v2v1v1v0h2v0h2h1h1v0v0v0v2v0v0h-3h-1h-1h-1h-2v0v0h-1h-1v-2v0h1h1v0v0v-1t2 -1q0 -2 -1 -2h-1l-1 -1l-1 -1v0h2v-3v-1v2h1h1h1h1l1 1t3 1v0h2v0h2v-1v-1h-1h-1q0 -2 -2 -2h-2h-2z M436 555q-2 0 -2 4v4v4v1v1q0 2 2 2h1h1q0 4 4 0v0h2v0v0q2 0 5 -2q0 -2 2 -4v0v0h-1h-1v-1v-1v0h2v-2v0h-1h-1v0v0v-1t2 -1v-1v-1h-1h-1v-2v0q-2 0 -3 2v1v1v1v3v0v2l-1 1l-1 1v0v0q-2 0 -3 1l-1 1l-1 -1l-1 -1v0v0v0v0q-2 0 -2 -1v-1v-3v-1v-3v-1v-2v0zM465 555v1v1h-2v0 q-2 0 -2 1v1q-2 0 -2 4h-2v0l1 1l1 1v0v2v1v1v1v1h-1h-1q-4 0 -4 2l4 5q0 -2 1 -2.5t1 2.5v1v1v1v1q0 2 4 2v-1v-1v-2v0v-2v0q0 -2 2 0l1 -2l1 -1h1h1v-1v-1q0 -2 -2 0v-2v0h-2v0v0v0q-2 0 -2 -1v-1v-2v-2q-2 -2 -1 -2h1v-3v-1l1 1t3 1l1 1l1 1q2 2 2 0v-2v-2q0 -2 -1 -2h-1 q0 2 -2 0l-1 -1zM469 559l1 1l1 1h-2v0v-1v-1zM483 555h-1h-1q-2 0 -4 2h-1t-1 2v1v1q2 2 2 6q-4 4 2 4h1h1v0h2v0v0v0h2h1h1v0h2v-2v0v-1v-1h1h2v-1v-1v-1v-1v-1v-1h-2h-1h-2v0h-1h-1h-2v0v0v0q-2 0 -2 2v1v1h1h1h1h1h1h1v0v0v0v2v0v0h-1h-1h-2v0h-2v0h-2v0v0v0q-2 -2 0 -2 v0v0v0v0l1 -1l1 -1q0 -2 -2 -2v-1v-1q-2 0 -1 0h1v-3v-1l1 1l1 1v0v0h1h1l2 1l2 1v0h2h1h2v-1v-1v0v0q0 -2 -5 -2h-3h-1zM506 557h-1h-1h-3h-1l-1 1t-1 3v1v1l1 -1l1 -1h1h3h1h3q0 2 -2 4h-3h-1q-4 0 -4 2v2l1 2l1 2h2h4q4 0 4 -2h1h1q-2 -2 0 -2v0v0l-1 -1l-1 -1v-1v-1 l1 -1l1 -1v0v0q0 -2 -2 -2v-2v0q0 -2 -4 -2v0v0zM506 567q2 0 2 2h-1h-1q-2 0 -4 2v-1v-1h-2h2v-1v-1v0h2v0h2v0v0z" unicode=""/><glyph horiz-adv-x="2048" unicode=""/><glyph horiz-adv-x="2048" unicode=""/><glyph d="M721 623q-4 -6 -10 -27t-25 -47q-106 -35 -159.5 -82t-84.5 -80q-14 -4 -55 -10t-45 -10q-23 -4 -42 14t-101 18q-4 10 -21.5 -6t-21.5 -4q-49 6 -69.5 36t-43.5 79q-2 0 -15 -2l-14 -2q-6 12 -4 43.5t-4 46.5q-12 63 1 121.5t38 119.5q27 25 45.5 42.5t48.5 46.5 q8 8 -3 10t-17 18q-6 8 16.5 40t28.5 40q14 16 66.5 32.5t66.5 35.5q66 76 111 135t108 139q25 -4 47.5 3t46.5 9q14 12 34 -9t36 -7q33 0 62.5 -16.5t60.5 -28.5l71 -158l64 -182l-37 -125h-6l-45 -49h-152l-92 41l-170 35l-127 -17q-51 -80 -85 -158.5t-13 -166.5 q37 0 79 22.5t83 30.5q0 8 40 28.5t48 26.5q47 31 55 17.5t43 29.5l82 29h49l51 -37zM729 1137q-55 59 -65.5 85.5t-59.5 26.5q-53 -29 -59 -102q-6 -72 16.5 -72t59.5 -45q31 4 46 -7t38 3q37 23 43 38.5t-19 72.5zM690 1599q-14 8 -35 27q4 8 8.5 16.5t10.5 18.5 q-23 20 -36 36.5t-15 45.5q6 27 24.5 40t42.5 29q29 14 38 19.5t36 23.5q18 18 22 19q66 12 99 36.5t71 12.5q78 37 158 68.5t166 52.5h5h5q-14 -20 -29.5 -41t-27.5 -39q-6 -6 -10 -11t-9 -11q-41 -43 -110 -87q-4 -6 0 -18q-6 -8 -8 -8q-33 -25 -69 -39t-66 -39 q-6 -6 -16.5 -11t-14.5 -11q-43 -14 -46 -27.5t-59 -26.5q-2 2 -22.5 -19.5t-20.5 -17.5q-25 -10 -47 -20.5t-45 -18.5z" horiz-adv-x="884" unicode=""/><glyph d="M494 590q-86 37 -139.5 -9t-139.5 -102q-4 0 -46 -75l-42 -76q-16 12 -31.5 11t-15.5 34q-6 0 -17.5 7t-15.5 9q-4 25 14.5 78t18.5 78q-12 0 -26.5 8t-26.5 8l32 141l52 91l63 137l35 137q8 2 35.5 68.5t38.5 70.5q25 43 69.5 111.5t93.5 130.5h4h5q49 -63 129 -80 q-2 -49 -9.5 -76.5t-31.5 -70.5q-25 -35 -34 -46.5t-38 -44.5q-6 -14 -20.5 -46.5t-14.5 -47.5q-27 -57 -38 -89t-52 -140q102 2 174 35q12 6 72.5 28.5t52.5 1.5q-12 -27 -22.5 -56.5t-18.5 -45.5l-53 -123zM508 1591q-10 6 -18.5 13.5t-16.5 15.5q12 25 16 37 q-20 20 -34.5 36.5t-16.5 47.5q6 29 25.5 42t44.5 29q29 14 38 20.5t38 25.5q20 20 24 20q68 12 101.5 38t74.5 13q80 37 164 70t172 55h3h7q-16 -23 -31.5 -43t-29.5 -41q-12 -16 -18 -22q-27 -31 -54.5 -50.5t-60.5 -39.5q-4 -10 2 -19l-8 -8l-2 -2q-35 -25 -72 -39 t-70 -39q-6 -8 -15 -13t-15 -12q-43 -14 -46 -27t-61 -28q-4 2 -25.5 -19.5t-21.5 -17.5q-25 -12 -48 -22.5t-46 -20.5z" horiz-adv-x="542" unicode=""/><glyph d="M608 1550q-6 10 -10 19.5t-8 21.5q20 16 33 23q-20 61 -9 96q18 18 42 22.5t51 6.5h42t42 4q27 8 30 6q63 -18 103.5 -13t68.5 -24q86 -6 171 -14t171 -31q4 0 8 -4q-23 -12 -45 -22.5t-43 -20.5q-10 -4 -26 -12q-55 -20 -137 -23q-6 -6 -9 -16q-10 -6 -12 -4 q-39 -6 -79 -2t-77 -2q-8 -4 -19 -4.5t-17 -4.5q-43 8 -52.5 -2t-64.5 6q0 2 -27.5 -7t-27.5 -5q-25 0 -49.5 2t-49.5 4zM1247 879q-129 -55 -217 -150.5t-162 -210.5q-18 -18 -53 -26.5t-57 6.5q-55 66 -24.5 159t42.5 168q12 12 14.5 38t6.5 42q6 18 7 35.5t3 30.5 q0 20 -27.5 36.5t-60.5 4.5q-41 -16 -96.5 -40t-73.5 -24q-55 -53 -135 -116.5t-107 -124.5q-23 -12 -75 -117t-72 -115q-43 -12 -82 -23.5t-82 -11.5q0 41 -11.5 86t-17.5 88q129 211 287 412t258 430q18 2 57 -19.5t58 -31.5q0 -104 -48.5 -143t-76.5 -138q25 -6 91 41 t103 74q12 18 103.5 67.5t109.5 65.5q61 6 73.5 -11.5t18.5 -17.5q-4 0 80 136q31 23 63 19.5t73 -3.5q23 -57 12.5 -88t-19.5 -92q-25 -57 -44 -106.5t-44 -108.5q-2 -25 -13 -48.5t-11 -47.5q102 25 209 92q2 2 8 -3.5t10 -0.5z" horiz-adv-x="1187" unicode=""/><glyph d="M555 1479l4 4q18 4 33.5 7t91.5 21q12 -25 18 -34q45 2 94.5 -8.5t80.5 -47.5h1h3q6 -12 14 -23.5t16 -23.5q25 -57 26 -117.5t-9 -119.5q-20 -31 -42 -60.5t-40 -58.5q-74 -117 -87.5 -208t-74.5 -214q-25 0 -95.5 -24.5t-90.5 -30.5q-23 -27 -66 -44.5t-45 -21.5 q-66 -20 -148.5 -33.5t-127.5 47.5q-2 0 -23 24l-22 24q-8 10 -16.5 21t-14.5 24q-25 55 -27 115.5t10 121.5q2 82 132.5 262.5t209.5 335.5q23 0 44.5 -4t44.5 2q23 25 45 58q30 6 61 6zM219 760q31 -80 83 -79t130 1q31 23 60.5 45.5t72.5 63.5q14 18 42 72.5t42 82.5 q20 53 35.5 103.5t26.5 117.5l-54 9l-26 -72q-27 0 -45.5 -27.5t-48.5 -54.5q-14 0 -24.5 68.5t-31.5 68.5q-55 -41 -105 -67.5t-79 -81.5q-23 -53 -46.5 -118.5t-31.5 -131.5zM584 1593q-10 6 -19.5 13.5t-15.5 13.5q4 8 7 17.5t9 19.5q-20 20 -34.5 36.5t-16.5 45.5 q6 27 25.5 41t42.5 28q31 14 40 19.5t35 23.5q18 20 23 21q68 12 100.5 37.5t71.5 13.5q80 37 161 68.5t167 52.5h5h5q-18 -27 -60 -80q-6 -6 -9 -12t-7 -13q-27 -29 -54.5 -48t-58.5 -38q-4 -6 0 -18q-6 -8 -8 -8q-35 -25 -70.5 -40t-66.5 -38q-6 -8 -16.5 -13t-14.5 -12 q-43 -14 -46 -27.5t-58 -25.5q-4 2 -24.5 -19.5t-20.5 -17.5q-25 -12 -47 -21.5t-45 -19.5z" horiz-adv-x="884" unicode=""/><glyph d="M152 369q-37 25 -75 43t-57 59q-37 4 -61 18q10 70 28.5 114t67.5 91q23 16 43.5 41t44.5 41q49 184 128 365.5t227 310.5q35 23 65 33q2 -25 6 -48.5t6 -47.5q23 -12 34.5 -10.5t35.5 7.5q-8 -27 -14 -65q-14 -31 -35 -56.5t-39 -50.5q-23 -68 -56.5 -117.5 t-47.5 -119.5q-6 -6 -15.5 -62.5t-9.5 -64.5q2 -61 73.5 -37.5t145.5 57.5q55 25 88 51.5t82 71.5q53 94 95 152.5t92 132.5q61 61 96 91t74 73q0 -6 37.5 -9t48.5 -42q8 -2 33.5 -3.5t35.5 -1.5q-6 -33 -20.5 -67.5t-24.5 -65.5q-96 -197 -218 -376t-224 -369l-129.5 -14 t-20.5 -5q-72 -20 -67 -20q6 55 2 55t16 56q12 12 22.5 51t10.5 51q-6 23 -71.5 4.5t-133.5 -65.5q-47 -41 -61.5 -61.5t-59.5 -59.5q-121 -88 -157.5 -109.5t-40.5 -21.5zM799 1599q-10 6 -19.5 13.5t-15.5 13.5q4 8 7 17.5t9 19.5q-20 20 -34.5 36.5t-16.5 45.5 q6 27 25.5 41t42.5 29q31 14 40 20t35 25q20 18 23 20q68 12 100.5 37t73.5 12q78 37 160 69t168 52q6 0 10 2q-16 -23 -31.5 -43t-27.5 -39q-12 -16 -19 -22q-27 -31 -54.5 -50.5t-57.5 -37.5q-4 -10 2 -19q-6 -8 -11 -8q-33 -25 -69.5 -40t-67.5 -38q-6 -8 -15 -13 t-16 -11q-43 -14 -46 -27.5t-58 -26.5q-4 2 -24.5 -19.5t-20.5 -17.5q-25 -12 -47 -21.5t-45 -19.5z" horiz-adv-x="1175" unicode=""/><glyph d="M145 332q-35 25 -72.5 43t-56.5 57q-43 8 -61 21q10 68 27.5 111.5t68.5 90.5q23 16 43.5 40t44.5 42q47 182 126 362.5t227 309.5q16 8 30.5 16.5t32.5 14.5q8 -47 12 -94q23 -12 34 -10.5t36 7.5q-6 -20 -14 -65q-14 -31 -35 -55.5t-39 -48.5q-23 -68 -55.5 -118 t-47.5 -120q-6 -6 -15 -62.5t-9 -62.5q2 -61 72.5 -38.5t144.5 56.5q55 25 87 52.5t81 70.5q53 94 95 151.5t91 131.5q61 61 96 92t72 72q2 -6 40 -9.5t46 -41.5q8 -2 34 -3.5t36 -1.5q-6 -33 -19.5 -66.5t-25.5 -64.5q-94 -197 -216 -375t-225 -368q-109 -12 -127 -14 t-20 -2q-33 -10 -47 -16.5t-21 -6.5q6 55 2 55t17 56q12 12 22.5 51t10.5 51q-6 23 -71 4.5t-132 -65.5q-47 -39 -61.5 -60.5t-59.5 -58.5q-121 -88 -157 -109.5t-42 -21.5zM725 1599q-4 4 -6 9q6 16 16 32.5t15 34.5q-8 12 -15.5 25.5t-13.5 28.5q4 45 43 98q16 12 89 36.5 t97 22.5l27 -14l37 -49l-25 -43l37 4q-10 -20 -20.5 -42t-34.5 -46q-2 -4 -10 -17q-2 -6 -5.5 -17t-5.5 -17q-4 -6 -30.5 -33t-26.5 -33q-4 -6 -44 -8t-40 -6zM1477 1855q2 -4 4 -6t4 -2q-6 -18 -17.5 -34.5t-13.5 -34.5q6 -14 14.5 -27.5t16.5 -26.5q-6 -47 -43 -98 q-18 -14 -90 -39.5t-97 -23.5l-26 14l-37 51l25 41l-39 -4q8 18 18 41t37 47q6 14 8 19q2 2 10 34q2 6 29 33t31 33q0 6 40 8t42 8z" horiz-adv-x="1161" unicode=""/><glyph d="M1163 594q-84 37 -208 -99.5t-210 -191.5q-2 2 -8 2q6 31 16.5 60.5t10.5 62.5q-10 4 -23 8q-2 25 -4 49.5t-2 49.5h-30.5h-26.5q-6 -10 -11 -18.5t-34 -45.5q-98 -92 -119.5 -113.5t-52.5 -54.5q-14 -4 -55 -11t-48 -11q-20 -2 -37.5 -3.5t-101.5 -1.5q-4 6 -14 41 q-51 6 -100.5 28t-73.5 71q-2 2 -6 2q-6 18 -23 55q-12 68 -1 133.5t36 128.5q57 51 115 109q104 109 198 225.5t189 235.5q25 -4 47 -13.5t47 -9.5q14 12 29.5 25.5t31.5 25.5q33 2 68 -7t67 -21q66 -55 66 -117q10 2 20.5 5t22.5 7q66 39 99.5 108.5t80.5 131.5h2h6 q47 -61 125 -80q0 -49 -7 -76t-32 -70q-25 -35 -34 -46t-35 -42q-6 -14 -21.5 -46.5t-15.5 -45.5q-25 -57 -35 -88t-51 -139q100 2 172 35q18 10 52 7t50 -7zM477 778v20.5v22.5q68 49 125 105.5t57 148.5q-47 16 -108 17q-43 -53 -85 -106.5t-85 -106.5 q-57 -86 -117.5 -199t-36.5 -221q37 0 82 15t86 24q0 10 2 19t4 22q78 37 151 85t83 146q-16 -10 -33.5 -21.5t-34.5 -11.5q-14 18 -24 41h-34h-32zM805 1579q-10 6 -18.5 13t-16.5 16q4 8 8 17t10 20q-23 20 -37 36.5t-16 44.5q6 27 25.5 41.5t44.5 28.5q29 16 38 21.5 t36 23.5q20 20 24 21q68 12 100.5 36.5t73.5 12.5q80 37 162 69.5t168 53.5h4h6q-16 -20 -30.5 -41t-28.5 -41q-6 -6 -19 -23q-27 -31 -54.5 -50t-57.5 -38q-2 -8 0 -16q-6 -10 -8 -10q-35 -25 -72 -40.5t-68 -37.5q-6 -8 -15 -13.5t-15 -11.5q-43 -14 -46.5 -27.5 t-58.5 -25.5q-4 0 -24.5 -20.5t-20.5 -16.5q-33 -14 -94 -43z" horiz-adv-x="1161" unicode=""/><glyph d="M721 623q-4 -6 -10 -27t-25 -47q-106 -35 -159.5 -82t-84.5 -80q-14 -4 -55 -10t-45 -10q-23 -4 -42 14t-101 18q-4 10 -21.5 -6t-21.5 -4q-49 6 -69.5 36t-43.5 79q-2 0 -15 -2l-14 -2q-6 12 -4 43.5t-4 46.5q-12 63 1 121.5t38 119.5q27 25 45.5 42.5t48.5 46.5 q8 8 -3 10t-17 18q-6 8 16.5 40t28.5 40q14 16 66.5 32.5t66.5 35.5q66 76 111 135t108 139q25 -4 47.5 3t46.5 9q14 12 34 -9t36 -7q33 0 62.5 -16.5t60.5 -28.5l71 -158l64 -182l-37 -125h-6l-45 -49h-152l-92 41l-170 35l-127 -17q-51 -80 -85 -158.5t-13 -166.5 q37 0 79 22.5t83 30.5q0 8 40 28.5t48 26.5q47 31 55 17.5t43 29.5l82 29h49l51 -37zM729 1137q-55 59 -65.5 85.5t-59.5 26.5q-53 -29 -59 -102q-6 -72 16.5 -72t59.5 -45q31 4 46 -7t38 3q37 23 43 38.5t-19 72.5zM690 1599q-14 8 -35 27q4 8 8.5 16.5t10.5 18.5 q-23 20 -36 36.5t-15 45.5q6 27 24.5 40t42.5 29q29 14 38 19.5t36 23.5q18 18 22 19q66 12 99 36.5t71 12.5q78 37 158 68.5t166 52.5h5h5q-14 -20 -29.5 -41t-27.5 -39q-6 -6 -10 -11t-9 -11q-41 -43 -110 -87q-4 -6 0 -18q-6 -8 -8 -8q-33 -25 -69 -39t-66 -39 q-6 -6 -16.5 -11t-14.5 -11q-43 -14 -46 -27.5t-59 -26.5q-2 2 -22.5 -19.5t-20.5 -17.5q-25 -10 -47 -20.5t-45 -18.5z" horiz-adv-x="884" unicode=""/><glyph d="M494 590q-86 37 -139.5 -9t-139.5 -102q-4 0 -46 -75l-42 -76q-16 12 -31.5 11t-15.5 34q-6 0 -17.5 7t-15.5 9q-4 25 14.5 78t18.5 78q-12 0 -26.5 8t-26.5 8l32 141l52 91l63 137l35 137q8 2 35.5 68.5t38.5 70.5q25 43 69.5 111.5t93.5 130.5h4h5q49 -63 129 -80 q-2 -49 -9.5 -76.5t-31.5 -70.5q-25 -35 -34 -46.5t-38 -44.5q-6 -14 -20.5 -46.5t-14.5 -47.5q-27 -57 -38 -89t-52 -140q102 2 174 35q12 6 72.5 28.5t52.5 1.5q-12 -27 -22.5 -56.5t-18.5 -45.5l-53 -123zM508 1591q-10 6 -18.5 13.5t-16.5 15.5q12 25 16 37 q-20 20 -34.5 36.5t-16.5 47.5q6 29 25.5 42t44.5 29q29 14 38 20.5t38 25.5q20 20 24 20q68 12 101.5 38t74.5 13q80 37 164 70t172 55h3h7q-16 -23 -31.5 -43t-29.5 -41q-12 -16 -18 -22q-27 -31 -54.5 -50.5t-60.5 -39.5q-4 -10 2 -19l-8 -8l-2 -2q-35 -25 -72 -39 t-70 -39q-6 -8 -15 -13t-15 -12q-43 -14 -46 -27t-61 -28q-4 2 -25.5 -19.5t-21.5 -17.5q-25 -12 -48 -22.5t-46 -20.5z" horiz-adv-x="542" unicode=""/><glyph d="M608 1550q-6 10 -10 19.5t-8 21.5q20 16 33 23q-20 61 -9 96q18 18 42 22.5t51 6.5h42t42 4q27 8 30 6q63 -18 103.5 -13t68.5 -24q86 -6 171 -14t171 -31q4 0 8 -4q-23 -12 -45 -22.5t-43 -20.5q-10 -4 -26 -12q-55 -20 -137 -23q-6 -6 -9 -16q-10 -6 -12 -4 q-39 -6 -79 -2t-77 -2q-8 -4 -19 -4.5t-17 -4.5q-43 8 -52.5 -2t-64.5 6q0 2 -27.5 -7t-27.5 -5q-25 0 -49.5 2t-49.5 4zM1247 879q-129 -55 -217 -150.5t-162 -210.5q-18 -18 -53 -26.5t-57 6.5q-55 66 -24.5 159t42.5 168q12 12 14.5 38t6.5 42q6 18 7 35.5t3 30.5 q0 20 -27.5 36.5t-60.5 4.5q-41 -16 -96.5 -40t-73.5 -24q-55 -53 -135 -116.5t-107 -124.5q-23 -12 -75 -117t-72 -115q-43 -12 -82 -23.5t-82 -11.5q0 41 -11.5 86t-17.5 88q129 211 287 412t258 430q18 2 57 -19.5t58 -31.5q0 -104 -48.5 -143t-76.5 -138q25 -6 91 41 t103 74q12 18 103.5 67.5t109.5 65.5q61 6 73.5 -11.5t18.5 -17.5q-4 0 80 136q31 23 63 19.5t73 -3.5q23 -57 12.5 -88t-19.5 -92q-25 -57 -44 -106.5t-44 -108.5q-2 -25 -13 -48.5t-11 -47.5q102 25 209 92q2 2 8 -3.5t10 -0.5z" horiz-adv-x="1187" unicode=""/><glyph d="M555 1479l4 4q18 4 33.5 7t91.5 21q12 -25 18 -34q45 2 94.5 -8.5t80.5 -47.5h1h3q6 -12 14 -23.5t16 -23.5q25 -57 26 -117.5t-9 -119.5q-20 -31 -42 -60.5t-40 -58.5q-74 -117 -87.5 -208t-74.5 -214q-25 0 -95.5 -24.5t-90.5 -30.5q-23 -27 -66 -44.5t-45 -21.5 q-66 -20 -148.5 -33.5t-127.5 47.5q-2 0 -23 24l-22 24q-8 10 -16.5 21t-14.5 24q-25 55 -27 115.5t10 121.5q2 82 132.5 262.5t209.5 335.5q23 0 44.5 -4t44.5 2q23 25 45 58q30 6 61 6zM219 760q31 -80 83 -79t130 1q31 23 60.5 45.5t72.5 63.5q14 18 42 72.5t42 82.5 q20 53 35.5 103.5t26.5 117.5l-54 9l-26 -72q-27 0 -45.5 -27.5t-48.5 -54.5q-14 0 -24.5 68.5t-31.5 68.5q-55 -41 -105 -67.5t-79 -81.5q-23 -53 -46.5 -118.5t-31.5 -131.5zM584 1593q-10 6 -19.5 13.5t-15.5 13.5q4 8 7 17.5t9 19.5q-20 20 -34.5 36.5t-16.5 45.5 q6 27 25.5 41t42.5 28q31 14 40 19.5t35 23.5q18 20 23 21q68 12 100.5 37.5t71.5 13.5q80 37 161 68.5t167 52.5h5h5q-18 -27 -60 -80q-6 -6 -9 -12t-7 -13q-27 -29 -54.5 -48t-58.5 -38q-4 -6 0 -18q-6 -8 -8 -8q-35 -25 -70.5 -40t-66.5 -38q-6 -8 -16.5 -13t-14.5 -12 q-43 -14 -46 -27.5t-58 -25.5q-4 2 -24.5 -19.5t-20.5 -17.5q-25 -12 -47 -21.5t-45 -19.5z" horiz-adv-x="884" unicode=""/><glyph d="M152 369q-37 25 -75 43t-57 59q-37 4 -61 18q10 70 28.5 114t67.5 91q23 16 43.5 41t44.5 41q49 184 128 365.5t227 310.5q35 23 65 33q2 -25 6 -48.5t6 -47.5q23 -12 34.5 -10.5t35.5 7.5q-8 -27 -14 -65q-14 -31 -35 -56.5t-39 -50.5q-23 -68 -56.5 -117.5 t-47.5 -119.5q-6 -6 -15.5 -62.5t-9.5 -64.5q2 -61 73.5 -37.5t145.5 57.5q55 25 88 51.5t82 71.5q53 94 95 152.5t92 132.5q61 61 96 91t74 73q0 -6 37.5 -9t48.5 -42q8 -2 33.5 -3.5t35.5 -1.5q-6 -33 -20.5 -67.5t-24.5 -65.5q-96 -197 -218 -376t-224 -369l-129.5 -14 t-20.5 -5q-72 -20 -67 -20q6 55 2 55t16 56q12 12 22.5 51t10.5 51q-6 23 -71.5 4.5t-133.5 -65.5q-47 -41 -61.5 -61.5t-59.5 -59.5q-121 -88 -157.5 -109.5t-40.5 -21.5zM799 1599q-10 6 -19.5 13.5t-15.5 13.5q4 8 7 17.5t9 19.5q-20 20 -34.5 36.5t-16.5 45.5 q6 27 25.5 41t42.5 29q31 14 40 20t35 25q20 18 23 20q68 12 100.5 37t73.5 12q78 37 160 69t168 52q6 0 10 2q-16 -23 -31.5 -43t-27.5 -39q-12 -16 -19 -22q-27 -31 -54.5 -50.5t-57.5 -37.5q-4 -10 2 -19q-6 -8 -11 -8q-33 -25 -69.5 -40t-67.5 -38q-6 -8 -15 -13 t-16 -11q-43 -14 -46 -27.5t-58 -26.5q-4 2 -24.5 -19.5t-20.5 -17.5q-25 -12 -47 -21.5t-45 -19.5z" horiz-adv-x="1175" unicode=""/><glyph d="M145 332q-35 25 -72.5 43t-56.5 57q-43 8 -61 21q10 68 27.5 111.5t68.5 90.5q23 16 43.5 40t44.5 42q47 182 126 362.5t227 309.5q16 8 30.5 16.5t32.5 14.5q8 -47 12 -94q23 -12 34 -10.5t36 7.5q-6 -20 -14 -65q-14 -31 -35 -55.5t-39 -48.5q-23 -68 -55.5 -118 t-47.5 -120q-6 -6 -15 -62.5t-9 -62.5q2 -61 72.5 -38.5t144.5 56.5q55 25 87 52.5t81 70.5q53 94 95 151.5t91 131.5q61 61 96 92t72 72q2 -6 40 -9.5t46 -41.5q8 -2 34 -3.5t36 -1.5q-6 -33 -19.5 -66.5t-25.5 -64.5q-94 -197 -216 -375t-225 -368q-109 -12 -127 -14 t-20 -2q-33 -10 -47 -16.5t-21 -6.5q6 55 2 55t17 56q12 12 22.5 51t10.5 51q-6 23 -71 4.5t-132 -65.5q-47 -39 -61.5 -60.5t-59.5 -58.5q-121 -88 -157 -109.5t-42 -21.5zM725 1599q-4 4 -6 9q6 16 16 32.5t15 34.5q-8 12 -15.5 25.5t-13.5 28.5q4 45 43 98q16 12 89 36.5 t97 22.5l27 -14l37 -49l-25 -43l37 4q-10 -20 -20.5 -42t-34.5 -46q-2 -4 -10 -17q-2 -6 -5.5 -17t-5.5 -17q-4 -6 -30.5 -33t-26.5 -33q-4 -6 -44 -8t-40 -6zM1477 1855q2 -4 4 -6t4 -2q-6 -18 -17.5 -34.5t-13.5 -34.5q6 -14 14.5 -27.5t16.5 -26.5q-6 -47 -43 -98 q-18 -14 -90 -39.5t-97 -23.5l-26 14l-37 51l25 41l-39 -4q8 18 18 41t37 47q6 14 8 19q2 2 10 34q2 6 29 33t31 33q0 6 40 8t42 8z" horiz-adv-x="1161" unicode=""/><glyph horiz-adv-x="1073"/><glyph horiz-adv-x="2146"/><glyph horiz-adv-x="1073"/><glyph horiz-adv-x="2146"/><glyph horiz-adv-x="715"/><glyph horiz-adv-x="536"/><glyph horiz-adv-x="357"/><glyph horiz-adv-x="357"/><glyph horiz-adv-x="268"/><glyph horiz-adv-x="429"/><glyph horiz-adv-x="119"/><glyph horiz-adv-x="429"/><glyph horiz-adv-x="536"/><glyph d="M991 674q-6 -6 -47 -35t-63 -57q-104 -98 -131 -93t-60 -32q-16 -4 -59 -11.5t-49 -13.5q-25 -2 -43.5 -3t-106.5 -1q-4 12 -8 22.5t-6 22.5q-55 6 -107.5 28.5t-77.5 76.5h-4h-2q-16 41 -22 59q-25 96 16 223q-16 2 -59 2q-12 4 -50 8t-61 15q-2 4 -4 15t-6 24l8 16 q-6 0 -5 0t-5 0q6 10 18 18l-9 -1l-9 -1l-2 8q-2 7 -2 9q12 4 18 0q111 6 138.5 10t125.5 4q10 10 21.5 20.5t23.5 22.5q18 18 56 60h-12.5h-12.5q-2 -2 -90 -1t-90 1q-106 0 -129 1t-41 1q-2 0 -3 -1l-1 -1q-6 2 -19 2l2 2q1 2 1 4h1h3q2 4 5 8t7 10q6 0 14 1t15 1 q0 6 2 11.5t4 11.5q-2 8 -4 12t-2 10q29 8 71.5 23.5t59.5 21.5q10 0 37.5 -2t37.5 4q43 -4 87.5 -1t87.5 3h19t19 2h5.5h7.5t8 3q6 -2 20 -3q61 74 121 150t121 154q25 -6 49.5 -15.5t50.5 -9.5q16 12 32 26.5t34 28.5q63 2 143 -32q25 -20 76 -112.5t57 -123.5l-51 -41 l-149 115q-6 2 -68.5 -2t-138.5 -43q-33 -37 -96 -95q70 0 107.5 -4t156.5 -8h22q0 -2 -2 -9l-2 -7q-2 -2 -13 0l-11 2l24 -19l-8 -2h-6q4 -6 4 -8t6 -6q-6 -12 -8 -24.5t-2 -16.5q-31 -10 -79 -14t-62 -8q-117 -2 -152 -9.5t-121 0.5q-4 -8 -8 -10q-12 -20 -29.5 -41.5 t-36.5 -46.5q29 -2 59 -3t58 1q6 -6 28.5 -4t31.5 2q12 -6 78.5 -8t91.5 -10q0 -25 6 -45.5t-8 -22.5l-30 -6l-30 -6q-16 -2 -26.5 -9.5t-94.5 -7.5q-2 0 -71 -1l-70 -1q-57 0 -86 -2q-6 0 -12 -1t-11 -1q-37 -68 -39 -130t76 -105q41 0 88 15t90 26q0 10 45.5 11t55.5 7 q49 33 71.5 13.5t59.5 25.5l63 47h54l55 -41z" horiz-adv-x="1136" unicode=""/><glyph d="M0 1464h1464v-1464h-1464v1464z" horiz-adv-x="1464" unicode=""/></font>
</defs>
</svg>
